<svg viewBox="0 0 32 21" fill="none" xmlns="http://www.w3.org/2000/svg">
<path d="M12.8889 8.98889C14.6556 8.14444 15.5778 6.86667 15.5778 4.87778C15.5778 0.955555 12.6556 0 9.28333 0H0V19.6889H9.54445C13.1222 19.6889 16.4833 17.9722 16.4833 13.9722C16.4833 11.5 15.3111 9.67222 12.8889 8.98889ZM4.32778 3.36111H8.38889C9.95 3.36111 11.3556 3.8 11.3556 5.61111C11.3556 7.28333 10.2611 7.95556 8.71667 7.95556H4.32778V3.36111ZM8.95556 16.3444H4.32778V10.9222H9.04445C10.95 10.9222 12.1556 11.7167 12.1556 13.7333C12.1556 15.7222 10.7167 16.3444 8.95556 16.3444ZM28.8722 2.97222H20.8889V1.03333H28.8722V2.97222ZM32 12.7667C32 8.55 29.5333 5.03333 25.0611 5.03333C20.7167 5.03333 17.7667 8.3 17.7667 12.5778C17.7667 17.0167 20.5611 20.0611 25.0611 20.0611C28.4667 20.0611 30.6722 18.5278 31.7333 15.2667H28.2778C27.9056 16.4833 26.3722 17.1278 25.1833 17.1278C22.8889 17.1278 21.6833 15.7833 21.6833 13.5H31.9667C31.9833 13.2667 32 13.0167 32 12.7667ZM21.6889 11.0333C21.8167 9.16111 23.0611 7.98889 24.9389 7.98889C26.9056 7.98889 27.8944 9.14444 28.0611 11.0333H21.6889Z" fill="currentColor"/>
</svg>
