<svg viewBox="0 0 32 32" fill="none" xmlns="http://www.w3.org/2000/svg">
<path d="M31.3928 9.98143L16.7678 0.231446C16.2686 -0.0757408 15.7358 -0.0785533 15.2321 0.231446L0.607124 9.98143C0.232125 10.2314 0 10.6779 0 11.1242V20.8742C0 21.3206 0.232125 21.767 0.607186 22.017L15.2322 31.7684C15.7313 32.0756 16.2641 32.0784 16.7678 31.7684L31.3928 22.017C31.7678 21.7671 32 21.3206 32 20.8742V11.1242C31.9999 10.6779 31.7678 10.2314 31.3928 9.98143ZM17.375 3.94563L28.1428 11.1242L23.3393 14.3385L17.375 10.3564V3.94563ZM14.625 3.94563V10.3564L8.66067 14.3385L3.85712 11.1242L14.625 3.94563ZM2.74999 13.6957L6.19643 15.9992L2.74999 18.3028V13.6957ZM14.625 28.0528L3.85712 20.8742L8.66067 17.6599L14.625 21.6421V28.0528ZM16 19.2492L11.1428 15.9992L16 12.7492L20.8571 15.9992L16 19.2492ZM17.375 28.0528V21.6421L23.3393 17.6599L28.1428 20.8742L17.375 28.0528ZM29.2499 18.3028L25.8035 15.9992L29.2499 13.6957V18.3028Z" fill="currentColor"/>
</svg>
