<svg viewBox="0 0 42 32" fill="none" xmlns="http://www.w3.org/2000/svg">
<path d="M3.9375 0C1.76367 0 0 1.76367 0 3.9375C0 5.17617 0.582422 6.34102 1.575 7.0875L19.425 20.475C20.3602 21.1723 21.6398 21.1723 22.575 20.475L40.425 7.0875C41.4176 6.34102 42 5.17617 42 3.9375C42 1.76367 40.2363 0 38.0625 0H3.9375ZM0 9.1875V26.25C0 29.1457 2.3543 31.5 5.25 31.5H36.75C39.6457 31.5 42 29.1457 42 26.25V9.1875L24.15 22.575C22.2797 23.9777 19.7203 23.9777 17.85 22.575L0 9.1875Z" fill="currentColor"/>
</svg>
