<svg viewBox="0 0 214 214" fill="none" xmlns="http://www.w3.org/2000/svg">
	<path d="M21.6717 107C21.6717 140.792 41.2983 169.965 69.7677 183.8L29.053 72.2694C24.3223 82.888 21.6717 94.6054 21.6717 107ZM164.621 102.701C164.621 92.1574 158.952 84.8347 155.714 79.1707C151.378 72.0827 147.309 66.1734 147.309 59.16C147.309 51.3467 155.154 44.0134 163.528 44.0134C163.906 44.0134 164.248 44.0454 164.626 44.056C149.458 30.1147 129.229 21.6667 107.005 21.6667C78.2637 21.6667 52.8557 35.8854 37.3943 57.6614C38.6103 58.056 39.0317 57.8694 40.653 57.8694C49.5543 57.8694 63.3943 56.8027 63.3943 56.8027C67.981 56.4987 68.541 63.2667 63.9223 63.8214C63.9223 63.8214 59.3143 64.3814 54.173 64.632L85.805 159.448L104.472 103.443L90.589 64.7867C85.997 64.5414 81.6343 63.976 81.6343 63.976C77.037 63.6774 77.5703 56.6427 82.157 56.9574C82.157 56.9574 96.2797 58.024 104.648 58.024C113.581 58.024 127.389 56.9574 127.389 56.9574C131.981 56.6534 132.536 63.4214 127.944 63.976C127.944 63.976 123.304 64.536 118.173 64.7867L149.592 158.707L158.12 130.301C162.461 119.208 164.621 110.035 164.621 102.701ZM108.498 114.445L82.8983 188.856C90.557 191.128 98.6317 192.333 107.005 192.333C116.93 192.333 126.466 190.605 135.357 187.496C135.144 187.117 134.904 186.733 134.728 186.323L108.498 114.445ZM181.896 66.0294C182.274 68.7494 182.472 71.6774 182.472 74.8027C182.472 83.4854 180.84 93.208 175.97 105.4L149.917 180.787C175.293 166.003 192.333 138.477 192.333 107C192.333 92.168 188.541 78.2214 181.896 66.0294Z" fill="currentColor" />
	<path d="M0.333008 107C0.333008 165.795 48.173 213.667 106.994 213.667C165.826 213.667 213.666 165.795 213.666 107C213.666 48.2054 165.826 0.333374 107 0.333374C48.173 0.333374 0.333008 48.2054 0.333008 107ZM10.973 107C10.973 54.072 54.0343 11.0054 106.994 11.0054C159.954 11.0054 203.026 54.072 203.026 107C203.026 159.928 159.954 203.005 107 203.005C54.0503 203.005 10.973 159.928 10.973 107Z" fill="currentColor" />
</svg>
