<svg viewBox="0 0 103 99" fill="none" xmlns="http://www.w3.org/2000/svg">
<path d="M3.50806 19.6524C-1.16933 15.1567 -1.16932 7.86769 3.50807 3.37195C8.18546 -1.1238 15.769 -1.1238 20.4464 3.37194L99.492 79.3477C104.169 83.8434 104.169 91.1325 99.492 95.6282C94.8146 100.124 87.231 100.124 82.5536 95.6282L3.50806 19.6524Z" fill="currentColor"/>
<path d="M82.5536 3.3718C87.231 -1.12394 94.8145 -1.12393 99.4919 3.37181C104.169 7.86755 104.169 15.1566 99.4919 19.6523L20.4464 95.6281C15.769 100.124 8.18543 100.124 3.50804 95.6281C-1.16935 91.1323 -1.16935 83.8433 3.50804 79.3475L82.5536 3.3718Z" fill="currentColor"/>
</svg>
