<svg viewBox="0 0 258 192" fill="none" xmlns="http://www.w3.org/2000/svg">
	<path d="M221.314 110.346C212.369 110.392 204.618 112.543 198.12 115.743C195.745 111.002 193.338 106.829 192.934 103.726C192.463 100.106 191.915 97.9456 192.483 93.6294C193.052 89.3133 195.55 83.2051 195.509 82.7494C195.473 82.2937 194.951 80.0973 189.79 80.0563C184.629 80.0205 180.216 81.0496 179.694 82.4115C179.171 83.7734 178.178 86.8403 177.564 90.0403C176.657 94.72 167.262 111.411 161.922 120.141C160.176 116.731 158.691 113.731 158.384 111.355C157.913 107.735 157.365 105.574 157.934 101.258C158.502 96.9421 161 90.8339 160.96 90.3782C160.924 89.9225 160.401 87.7261 155.24 87.6851C150.08 87.6493 145.666 88.6784 145.144 90.0403C144.622 91.4022 144.069 94.5869 143.014 97.6691C141.954 100.751 129.461 128.589 126.19 135.803C124.52 139.479 123.072 142.433 122.048 144.451L122.042 144.44C122.042 144.44 121.981 144.573 121.868 144.804C120.993 146.519 120.471 147.471 120.471 147.471C120.471 147.471 120.476 147.487 120.486 147.507C119.79 148.767 119.047 149.939 118.679 149.939C118.423 149.939 117.905 146.58 118.791 141.978C120.65 132.321 125.114 117.258 125.073 116.741C125.053 116.475 125.903 113.853 122.155 112.476C118.515 111.145 117.214 113.367 116.881 113.372C116.559 113.377 116.318 114.155 116.318 114.155C116.318 114.155 120.378 97.2185 108.577 97.2185C101.204 97.2185 90.9845 105.288 85.9464 112.599C82.772 114.33 75.9726 118.042 68.7586 122.004C65.9886 123.525 63.1624 125.082 60.4795 126.561C60.2952 126.362 60.116 126.157 59.9266 125.957C45.6213 110.694 19.1816 99.9014 20.3029 79.3856C20.7125 71.9257 23.3032 52.2854 71.1138 28.4621C110.277 8.94462 141.632 14.3155 147.048 26.2195C154.79 43.223 130.291 74.8288 89.6226 79.3856C74.1243 81.1212 65.9682 75.1155 63.9355 72.8781C61.8005 70.5229 61.483 70.4153 60.6843 70.8608C59.3838 71.5827 60.2082 73.6614 60.6843 74.9005C61.8978 78.0595 66.8795 83.6659 75.3787 86.4512C82.8539 88.9037 101.045 90.2502 123.051 81.7408C147.694 72.2073 166.935 45.6909 161.287 23.5264C155.537 0.98302 118.161 -6.42562 82.7874 6.13886C61.7339 13.6192 38.9448 25.3593 22.5557 40.6835C3.06896 58.9107 -0.0337615 74.7725 1.24624 81.3977C5.79792 104.95 38.2536 120.284 51.2533 131.651C50.6133 132.004 50.0091 132.337 49.4613 132.639C42.9435 135.864 18.2037 148.813 12.0136 162.493C4.99408 178.012 13.1298 189.148 18.5211 190.648C35.2123 195.292 52.3438 186.936 61.5496 173.204C70.7554 159.478 69.629 141.604 65.405 133.443C65.3538 133.34 65.2923 133.243 65.2411 133.14C66.9256 132.142 68.6408 131.133 70.3406 130.135C73.6584 128.189 76.9147 126.372 79.741 124.831C78.1589 129.162 77.0018 134.354 76.3976 141.855C75.691 150.666 79.3006 162.053 84.0264 166.533C86.1051 168.504 88.6088 168.55 90.196 168.55C95.6949 168.55 98.2037 163.978 100.963 158.566C104.353 151.931 107.358 144.21 107.358 144.21C107.358 144.21 103.585 165.074 113.866 165.074C117.608 165.074 121.377 160.215 123.056 157.742C123.061 157.768 123.061 157.783 123.061 157.783C123.061 157.783 123.159 157.624 123.348 157.297C123.737 156.703 123.957 156.324 123.957 156.324C123.957 156.324 123.968 156.283 123.978 156.216C125.483 153.605 128.821 147.645 133.829 137.815C140.295 125.117 146.501 109.215 146.501 109.215C146.501 109.215 147.079 113.106 148.968 119.532C150.08 123.315 152.445 127.498 154.309 131.507C152.808 133.591 151.887 134.784 151.887 134.784C151.887 134.784 151.897 134.804 151.912 134.845C150.714 136.438 149.368 138.153 147.96 139.832C142.855 145.915 136.773 152.858 135.959 154.865C135.001 157.225 135.226 158.966 137.08 160.358C138.432 161.377 140.843 161.536 143.362 161.367C147.95 161.06 151.18 159.918 152.773 159.227C155.256 158.351 158.149 156.969 160.862 154.972C165.87 151.291 168.89 146.022 168.604 139.044C168.445 135.199 167.216 131.389 165.665 127.79C166.12 127.135 166.576 126.479 167.032 125.809C174.927 114.263 181.05 101.581 181.05 101.581C181.05 101.581 181.629 105.472 183.518 111.898C184.476 115.154 186.365 118.702 188.06 122.184C180.636 128.215 176.033 135.224 174.43 139.822C171.476 148.326 173.79 152.182 178.132 153.057C180.098 153.457 182.878 152.556 184.967 151.67C187.568 150.81 190.691 149.371 193.61 147.226C198.617 143.544 203.435 138.388 203.143 131.41C203.01 128.235 202.15 125.082 200.983 122.051C207.275 119.429 215.426 117.97 225.804 119.183C248.071 121.784 252.439 135.685 251.604 141.501C250.769 147.323 246.1 150.518 244.538 151.485C242.977 152.453 242.501 152.786 242.634 153.503C242.823 154.547 243.545 154.506 244.876 154.281C246.709 153.974 256.565 149.55 256.99 138.808C257.523 125.199 244.456 110.223 221.314 110.346ZM49.7019 168.202C42.3291 176.246 32.0226 179.287 27.604 176.727C22.8322 173.962 24.7214 162.115 33.7736 153.579C39.2878 148.378 46.4098 143.585 51.1355 140.631C52.2107 139.986 53.7877 139.034 55.7077 137.882C56.0251 137.702 56.2043 137.6 56.2043 137.6L56.1992 137.59C56.5678 137.37 56.9518 137.139 57.341 136.904C60.6331 149.059 57.4434 159.759 49.7019 168.202ZM103.426 131.676C100.856 137.938 95.4798 153.958 92.2082 153.098C89.3973 152.361 87.6872 140.18 91.645 128.2C93.6366 122.168 97.8914 114.959 100.395 112.159C104.419 107.658 108.853 106.184 109.928 108.012C111.306 110.336 105.039 127.749 103.426 131.676ZM147.816 152.858C146.726 153.426 145.728 153.784 145.267 153.508C144.924 153.303 145.717 152.556 145.717 152.556C145.717 152.556 151.267 146.58 153.459 143.862C154.728 142.28 156.208 140.401 157.811 138.301C157.826 138.511 157.831 138.721 157.831 138.926C157.811 146.084 150.899 150.912 147.816 152.858ZM182.013 145.06C181.199 144.481 181.337 142.612 184.005 136.796C185.054 134.513 187.445 130.662 191.608 126.986C192.089 128.497 192.386 129.946 192.376 131.297C192.319 140.303 185.894 143.667 182.013 145.06Z" fill="currentColor" />
</svg>
