<svg xmlns="http://www.w3.org/2000/svg" viewBox="0 0 50 50">
	<path d="M 29.691406 2.007813 C 24.347656 2.167969 20 6.664063 20 12.03125 C 20 14.945313 21.519531 17.21875 22.859375 19.226563 C 23.492188 20.171875 24.09375 21.085938 24.5 22 L 29 22 L 29 13.414063 L 27.292969 11.707031 C 26.902344 11.316406 26.902344 10.683594 27.292969 10.292969 C 27.683594 9.902344 28.316406 9.902344 28.707031 10.292969 L 30 11.585938 L 31.292969 10.292969 C 31.683594 9.902344 32.316406 9.902344 32.707031 10.292969 C 33.097656 10.683594 33.097656 11.316406 32.707031 11.707031 L 31 13.414063 L 31 22 L 35.488281 22 C 35.890625 21.09375 36.492188 20.183594 37.125 19.246094 C 38.472656 17.226563 40 14.941406 40 12 C 40 9.273438 38.921875 6.722656 36.964844 4.820313 C 35.007813 2.921875 32.441406 1.914063 29.691406 2.007813 Z M 24.996094 24 C 24.996094 24.019531 25 24.035156 25 24.050781 L 25 26 C 25 27.652344 26.347656 29 28 29 L 28.277344 29 C 28.625 29.59375 29.261719 30 30 30 C 30.738281 30 31.375 29.59375 31.722656 29 L 32 29 C 33.652344 29 35 27.652344 35 26 L 35 24 Z M 44.34375 27.992188 C 43.621094 27.96875 42.882813 28.152344 42.226563 28.566406 L 32.875 34.328125 C 33.585938 35.050781 34 36.035156 34 37.066406 C 34 39.238281 32.234375 41 30.0625 41 C 29.757813 41 29.457031 40.964844 29.160156 40.894531 C 28.394531 40.714844 18.570313 37.773438 17.453125 37.4375 C 16.921875 37.28125 16.625 36.722656 16.78125 36.191406 C 16.941406 35.664063 17.496094 35.367188 18.027344 35.523438 C 22.390625 36.832031 29.085938 38.824219 29.625 38.953125 C 29.765625 38.984375 29.914063 39.003906 30.0625 39.003906 C 31.132813 39.003906 32 38.136719 32 37.066406 C 32 36.378906 31.640625 35.761719 31.042969 35.410156 C 30.753906 35.242188 20.882813 30.925781 18.894531 30.058594 C 15.785156 28.691406 12.199219 28.65625 9.0625 29.964844 L 2.617188 32.648438 C 2.105469 32.859375 2 33.320313 2 33.953125 L 2 46 C 2 46.550781 2.449219 47 3 47 C 3.304688 47 3.550781 46.835938 3.585938 46.808594 L 7.070313 44.25 C 8.847656 42.945313 11.214844 42.660156 13.296875 43.515625 L 24.996094 47.664063 C 25.652344 47.898438 26.332031 48.011719 27.007813 48.011719 C 28.296875 48.011719 29.570313 47.59375 30.632813 46.789063 L 46.371094 34.863281 C 48.039063 33.714844 48.5 31.464844 47.417969 29.75 C 46.726563 28.648438 45.554688 28.03125 44.34375 27.992188 Z" fill="currentColor" />
</svg>
