<svg viewBox="0 0 56 46" fill="none" xmlns="http://www.w3.org/2000/svg">
<path fill-rule="evenodd" clip-rule="evenodd" d="M16.7174 2.31666C10.588 3.64599 5.71664 4.7542 5.50813 4.8667C5.30535 4.97597 5.05294 5.18685 4.94734 5.33516C4.64899 5.75411 -0.00194096 18.6524 6.07723e-07 19.0553C0.00248151 19.5453 0.407731 20.2179 0.861304 20.4842C1.23301 20.7026 1.37744 20.7064 10.4612 20.7363C20.4752 20.769 20.2384 20.7817 20.7996 20.1843C20.9271 20.0486 22.4363 16.9221 24.1535 13.2364C25.8707 9.55075 27.3553 6.38134 27.4524 6.19334L27.6291 5.85151L30.9124 12.8964C32.7182 16.7711 34.2991 20.0515 34.4256 20.1861C34.9849 20.7815 34.7522 20.769 44.7623 20.7363C53.8461 20.7064 53.9905 20.7026 54.3622 20.4842C54.8169 20.2171 55.221 19.545 55.2235 19.0519C55.2257 18.6142 50.5353 5.65131 50.238 5.27335C50.1229 5.12698 49.8859 4.93347 49.7114 4.84319C49.4387 4.70221 41.0433 2.8534 27.7196 0.000258136C27.6306 -0.018834 22.6796 1.02357 16.7174 2.31666ZM26.3791 19.3846C25.7406 20.7639 25.0599 22.1352 24.8664 22.4318C24.1248 23.5685 22.9541 24.4969 21.6493 24.9832L20.978 25.2335L12.7803 25.2888L4.58254 25.3441L4.55072 32.2475C4.53314 36.0444 4.54846 39.4033 4.5847 39.7118C4.66021 40.3541 4.9783 40.8892 5.44579 41.1604C5.80131 41.3666 27.0399 46.0005 27.6274 46C28.2291 45.9995 49.4155 41.3732 49.7734 41.1642C49.9535 41.059 50.2103 40.8106 50.344 40.6122L50.587 40.2515V32.7741V25.2967L42.4162 25.2654L34.2455 25.2341L33.5742 24.9836C32.2903 24.5044 31.0844 23.5479 30.3568 22.4318C30.1634 22.1352 29.4829 20.7639 28.8444 19.3846C28.206 18.0053 27.6512 16.8767 27.6118 16.8767C27.5723 16.8767 27.0175 18.0053 26.3791 19.3846Z" fill="currentColor"/>
</svg>
