<svg viewBox="0 0 216 216" fill="none" xmlns="http://www.w3.org/2000/svg">
	<path d="M201.88 0.47998H14.1405C6.60047 0.47998 0.480469 6.59998 0.480469 14.14V201.86C0.480469 209.4 6.60047 215.52 14.1405 215.52H201.86C209.4 215.52 215.52 209.4 215.52 201.88V14.14C215.52 6.59998 209.4 0.47998 201.88 0.47998ZM118.24 165.26C118.24 185.72 106.24 195.04 88.7205 195.04C72.8805 195.04 61.4605 184.42 56.8005 174.56L72.9005 164.82C76.0005 170.32 80.7205 174.56 87.5205 174.56C94.0205 174.56 97.7605 172.02 97.7605 162.14V97.76H118.24V165.26ZM162.66 195.04C144.52 195.04 134.22 185.9 128.48 174.56L143.84 164.32C148.02 171.16 152.58 177.7 162.22 177.7C170.32 177.7 174.56 173.66 174.56 168.06C174.56 161.38 170.16 159 161.26 155.1L156.38 153C142.28 147 132.9 139.48 132.9 123.56C132.9 108.92 144.08 97.76 161.52 97.76C173.94 97.76 182.86 102.08 189.3 113.4L174.1 123.18C170.74 117.16 167.14 114.8 161.52 114.8C155.8 114.8 152.18 118.44 152.18 123.18C152.18 129.04 155.8 131.4 164.18 135.04L169.06 137.14C185.68 144.24 195.04 151.5 195.04 167.82C195.04 185.4 181.22 195.04 162.66 195.04Z" fill="currentColor" />
</svg>
