<svg xmlns="http://www.w3.org/2000/svg" viewBox="0 0 468 468">
	<path d="M 249.77539 102.83203 C 235.45465 102.50375 220.99312 107.22914 209.58984 117.22852 L 148 173.32031 C 139.562 181.50031 139.12484 190.63288 150.33984 201.54688 C 171.53384 222.17288 208.10317 215.21408 230.32617 195.83008 L 270.62109 166.45117 L 388.53125 293.0957 L 388.53125 144.5293 L 311.70898 144.5293 L 293.26562 123.0957 C 282.05466 110.06627 266.00556 103.20408 249.77539 102.83203 z M 160.76367 112.16211 C 140.34577 112.25211 119.44491 121.75569 107.75391 139.46094 L 80.435547 139.46094 L 80.435547 307.70508 L 107.75391 307.70508 L 152.50195 357.31641 C 159.88295 365.49941 171.91384 367.55134 181.58984 362.27734 C 195.15484 354.88434 198.20383 336.73541 187.79883 325.31641 L 212.64258 353.23633 C 219.42358 360.81433 230.06155 362.3227 239.18555 358.7207 C 254.05055 352.3217 258.31025 333.36592 247.65625 321.29492 L 262.70312 337.50977 C 270.34312 346.04777 282.46267 347.25353 292.38867 342.51953 C 307.08967 334.87553 310.50447 315.47166 299.35547 303.34766 C 299.35547 303.34766 293.59933 296.07706 314.98633 318.91406 C 321.94733 326.34706 332.56016 327.86792 341.78516 324.41992 C 356.24216 318.55492 361.38391 301.4587 353.87891 288.8457 L 267.48047 198.53711 L 246.20703 214.9668 C 205.89903 247.8718 153.31906 241.8695 120.41406 201.5625 C 111.52106 187.6235 118.28992 173.76455 126.41992 165.06055 L 180.66016 115.25391 C 174.32066 113.14716 167.56964 112.13211 160.76367 112.16211 z M 410.77148 124.39844 L 410.77148 323.20117 L 468.00195 323.20117 L 468.00195 124.39844 L 410.77148 124.39844 z M 0 124.66797 L 0 323.4707 L 57.228516 323.4707 L 57.228516 124.66797 L 0 124.66797 z" fill="currentColor" />
</svg>
