<svg viewBox="0 0 41 46" fill="none" xmlns="http://www.w3.org/2000/svg">
<path fill-rule="evenodd" clip-rule="evenodd" d="M18.964 0.0266576C16.0709 0.382839 13.648 1.5643 11.6364 3.59989C9.84979 5.40767 8.81972 7.33727 8.29435 9.86047C8.07347 10.9208 8.07347 13.2951 8.29435 14.3554C8.82026 16.8813 9.8532 18.815 11.6364 20.6119C13.4469 22.4364 15.4256 23.5053 17.9752 24.0362C19.0229 24.2544 21.3955 24.2543 22.4918 24.0358C24.9178 23.5525 26.9279 22.476 28.7307 20.6942C30.5414 18.9049 31.6197 16.9062 32.1509 14.3554C32.3718 13.2952 32.3718 10.9208 32.1509 9.86047C31.8055 8.20183 31.1653 6.65925 30.2479 5.27561C29.6819 4.42193 27.9257 2.65954 27.0925 2.10909C25.6434 1.15175 24.081 0.494404 22.5403 0.19396C21.8158 0.0526385 19.5965 -0.0511952 18.964 0.0266576ZM15.3918 27.083C10.363 27.6923 5.82239 30.5488 2.89904 34.9424C1.18538 37.5178 0.2026 40.5497 0.0281051 43.7989C-0.0252052 44.7923 -0.0143273 44.9095 0.163763 45.2585C0.292679 45.5113 0.475804 45.6984 0.712149 45.819C1.06446 45.9987 1.20165 46 20.2226 46C39.2436 46 39.3808 45.9987 39.7331 45.819C39.9695 45.6984 40.1526 45.5113 40.2815 45.2585C40.4596 44.9095 40.4705 44.7923 40.4172 43.7989C40.1792 39.368 38.4896 35.4825 35.4181 32.3028C32.5072 29.2894 28.7449 27.4507 24.6407 27.0356C23.2766 26.8976 16.6415 26.9316 15.3918 27.083Z" fill="currentColor"/>
</svg>
