<svg viewBox="0 0 47 46" fill="none" xmlns="http://www.w3.org/2000/svg">
<path fill-rule="evenodd" clip-rule="evenodd" d="M21.9692 0.105214C20.8035 0.433392 21.1269 0.133829 10.7605 10.4867C5.37593 15.8643 0.851525 20.442 0.706197 20.6595C-0.408458 22.3277 -0.184123 24.5598 1.24143 25.9853C2.06642 26.8103 3.1198 27.2379 4.32705 27.2379H4.93805V34.4324C4.93805 39.3029 4.96991 41.7808 5.03677 42.1037C5.37647 43.7445 6.70385 45.2266 8.34042 45.792C8.93739 45.9983 8.97914 46 13.3226 46C17.6061 46 17.7082 45.9959 17.9513 45.8144C18.088 45.7124 18.2833 45.5171 18.3854 45.3805C18.5673 45.1369 18.5718 45.016 18.6159 39.1249L18.6609 33.1176L18.9341 32.6749C19.2745 32.1232 19.9697 31.6821 20.6278 31.6003C20.8823 31.5687 22.1434 31.5562 23.4302 31.5726L25.7698 31.6023L26.2426 31.8642C26.6932 32.1139 26.9842 32.4113 27.263 32.9071C27.3669 33.0917 27.3976 34.2062 27.4345 39.1321C27.4786 45.016 27.4831 45.1369 27.6651 45.3805C27.7671 45.5171 27.9625 45.7124 28.0992 45.8144C28.3422 45.9959 28.4443 46 32.7279 46C37.0713 46 37.1131 45.9983 37.71 45.792C39.3466 45.2266 40.674 43.7445 41.0137 42.1037C41.0805 41.7808 41.1124 39.3029 41.1124 34.4324V27.2379H41.7234C43.8855 27.2379 45.6337 25.7718 45.9885 23.661C46.1287 22.8274 45.9933 21.9432 45.5994 21.1189C45.3415 20.5795 44.5588 19.772 35.5448 10.7447C30.1686 5.36057 25.5787 0.83194 25.3451 0.681124C25.1116 0.530397 24.7067 0.324689 24.4453 0.224085C23.8202 -0.0165371 22.6082 -0.074758 21.9692 0.105214Z" fill="currentColor"/>
</svg>
