<svg viewBox="0 0 232 236" fill="none" xmlns="http://www.w3.org/2000/svg">
<path d="M118.1 235.76C53.1603 235.76 0.320312 182.94 0.320312 118C0.320312 53.06 53.1603 0.23999 118.1 0.23999C147.52 0.23999 175.68 11.14 197.42 30.94L201.38 34.56L162.54 73.4L158.94 70.32C147.54 60.56 133.04 55.18 118.1 55.18C83.4603 55.18 55.2603 83.36 55.2603 118C55.2603 152.64 83.4603 180.82 118.1 180.82C143.08 180.82 162.82 168.06 172.12 146.32H112.98V93.3L228.44 93.46L229.3 97.52C235.32 126.1 230.5 168.14 206.1 198.22C185.9 223.12 156.3 235.76 118.1 235.76Z" fill="currentColor"/>
</svg>
