<svg viewBox="0 0 125 121" fill="none" xmlns="http://www.w3.org/2000/svg">
<path fill-rule="evenodd" clip-rule="evenodd" d="M30.4932 0.321289L90.2538 0.321289C106.916 0.321289 121.687 13.6349 122.354 30.9736L124.601 89.3792C125.268 106.718 111.522 120.032 94.8595 120.032L35.0989 120.032C18.4366 120.032 3.66577 106.718 2.99868 89.3792L0.75158 30.9736C0.0844911 13.6349 13.8308 0.321289 30.4932 0.321289ZM31.2512 20.0225C25.0627 20.0225 20.2347 24.9255 20.4674 30.9736L22.7145 89.3792C22.9472 95.4273 28.1525 100.33 34.3409 100.33L94.1016 100.33C100.29 100.33 105.118 95.4273 104.885 89.3792L102.638 30.9736C102.406 24.9255 97.2002 20.0225 91.0118 20.0225L31.2512 20.0225Z" fill="currentColor"/>
</svg>
