<svg viewBox="0 0 571 571" fill="none" xmlns="http://www.w3.org/2000/svg">
<path d="M51.9091 0C23.2293 0 0 23.2293 0 51.9091V519.091C0 547.771 23.2293 571 51.9091 571H519.091C547.771 571 571 547.771 571 519.091V51.9091C571 23.2293 547.771 0 519.091 0H51.9091ZM103.818 155.525H207.079C258.183 155.525 293.155 190.484 293.155 242.107C293.155 292.848 256.907 327.625 205.102 327.625H149.593V411.572H103.818V155.525ZM149.593 193.848V289.657H194.862C227.513 289.657 246.67 272.63 246.67 242.107C246.67 210.728 228.002 193.848 195.014 193.848H149.593ZM394.692 213.517C440.813 213.517 469.768 233.93 472.961 269.228H431.646C428.454 255.576 415.476 246.872 394.894 246.872C374.857 246.872 359.764 256.48 359.764 270.495C359.764 281.5 368.989 288.235 388.507 292.648L422.725 300.454C459.814 308.786 477.016 324.777 477.016 353.327C477.016 390.623 442.768 415.476 394.337 415.476C345.906 415.476 315.386 394.505 312.012 359.207H355.506C359.763 373.586 373.392 382.12 395.401 382.12C417.566 382.12 433.015 372.369 433.015 357.99C433.015 346.986 424.703 340.04 406.249 335.939L371.829 327.98C334.559 319.467 317.031 302.256 317.031 272.979C317.031 237.837 348.908 213.517 394.692 213.517Z" fill="currentColor"/>
</svg>
