<svg viewBox="0 0 56 46" fill="none" xmlns="http://www.w3.org/2000/svg">
<path fill-rule="evenodd" clip-rule="evenodd" d="M5.1529 0.0767069C3.88075 0.265597 2.42122 1.06445 1.55312 2.04691C0.949403 2.7301 0.268581 4.11049 0.115122 4.96264C0.0461994 5.34506 0 7.30148 0 9.83566V14.0696H27.5752H55.1504L55.1155 9.46585L55.0806 4.86206L54.8046 4.14915C54.4046 3.11628 53.9942 2.46518 53.3144 1.78544C52.6104 1.08146 51.9794 0.691945 50.9085 0.300489L50.1301 0.0159693L27.9458 0.00121551C15.7444 -0.006969 5.48761 0.0270614 5.1529 0.0767069ZM9.56403 7.28791C10.5749 7.90422 10.3447 9.49439 9.18948 9.87572C8.2194 10.1958 7.15919 9.24541 7.37748 8.25142C7.46115 7.8703 7.90936 7.30363 8.22953 7.17408C8.62292 7.01491 9.19659 7.06391 9.56403 7.28791ZM15.7984 7.2808C17.1723 8.11842 16.2283 10.2958 14.6729 9.87691C13.5841 9.58377 13.2559 8.2484 14.0831 7.47787C14.2446 7.32743 14.4494 7.17785 14.5383 7.14554C14.8879 7.01825 15.4704 7.08082 15.7984 7.2808ZM21.9791 7.23654C22.6545 7.58578 22.9293 8.57137 22.5367 9.23614C22.2699 9.6878 21.5549 10.0101 21.0337 9.91384C20.5452 9.8236 19.983 9.28202 19.8888 8.81109C19.6552 7.64296 20.9211 6.68936 21.9791 7.23654ZM47.271 7.44147C48.1097 8.24517 47.8165 9.5604 46.7289 9.87227C46.5071 9.93592 43.5443 9.97738 39.2236 9.97738C33.4167 9.97738 32.0203 9.94981 31.7385 9.82974C30.6264 9.3559 30.4771 7.89335 31.478 7.27951C31.8131 7.07403 32.0329 7.06886 39.381 7.09579L46.9391 7.12357L47.271 7.44147ZM0 28.6958C0 36.541 0.0380149 40.6256 0.115122 41.0533C0.178444 41.4048 0.42301 42.0942 0.658745 42.5852C1.37704 44.0816 2.58781 45.1314 4.30764 45.7488L5.00763 46H27.5689H50.1301L50.8301 45.7488C51.8473 45.3836 52.6037 44.9202 53.3012 44.2347C53.9899 43.5581 54.3968 42.9178 54.8062 41.8668L55.0839 41.1539L55.1135 29.0656L55.1431 16.9773H27.5716H0V28.6958ZM16.4893 24.1633C16.6626 24.2657 16.9003 24.5475 17.0174 24.7896C17.2144 25.1964 17.2306 25.4608 17.2306 28.2685C17.2306 31.6062 17.2446 31.6945 17.8902 32.4299C19.0937 33.8006 21.3676 33.4582 22.1448 31.7892C22.3913 31.2599 22.3977 31.1699 22.3986 28.1934C22.3996 25.5662 22.4248 25.0877 22.5796 24.7615C23.074 23.7196 24.6331 23.7196 25.1275 24.7615C25.2825 25.0881 25.3072 25.5625 25.3058 28.1934C25.304 31.5493 25.234 32.1038 24.6721 33.2171C23.6417 35.2581 21.3252 36.4673 19.0604 36.1462C16.9403 35.8455 15.0468 34.1874 14.5203 32.1704C14.2572 31.1623 14.2328 25.2178 14.4897 24.7209C14.8389 24.0455 15.8245 23.7707 16.4893 24.1633ZM30.6183 24.0964C30.7476 24.1619 31.7136 25.0701 32.765 26.1144L34.6765 28.0134L36.5341 26.1716C37.5558 25.1586 38.5117 24.2505 38.6581 24.1535C39.018 23.9152 39.7156 23.9315 40.1365 24.1883C40.7567 24.5663 40.9913 25.3783 40.6607 26.0018C40.5758 26.1617 39.6793 27.1159 38.6684 28.1221C37.6574 29.1284 36.8303 30.0012 36.8303 30.0617C36.8303 30.1223 37.6574 30.9951 38.6684 32.0014C39.6793 33.0076 40.5758 33.9618 40.6607 34.1217C40.9913 34.7452 40.7567 35.5572 40.1365 35.9352C39.7156 36.1919 39.018 36.2083 38.6581 35.97C38.5117 35.873 37.5565 34.9655 36.5354 33.9532L34.6791 32.1127L32.6521 34.1296L30.6251 36.1463H30.0535C29.5332 36.1463 29.4445 36.1088 29.0638 35.7282C28.6921 35.3564 28.6458 35.2517 28.6458 34.7829C28.6458 34.4749 28.7191 34.1451 28.8221 33.9896C28.9191 33.8431 29.8156 32.8989 30.8145 31.8913L32.6305 30.0595L30.7924 28.2298C29.7814 27.2235 28.8849 26.2694 28.8 26.1095C28.7153 25.9495 28.6458 25.5925 28.6458 25.316C28.6458 24.8758 28.6977 24.7615 29.0638 24.3953C29.4163 24.0429 29.5528 23.9772 29.9325 23.9772C30.1803 23.9772 30.4888 24.0308 30.6183 24.0964Z" fill="currentColor"/>
</svg>
