<svg viewBox="0 0 172 256" fill="none" xmlns="http://www.w3.org/2000/svg">
<path d="M43.3128 0C19.7502 0 0.666992 19.1045 0.666992 42.6458C0.666992 66.1872 19.7608 85.2917 43.3128 85.2917C19.7502 85.3557 0.666992 104.448 0.666992 128C0.666992 151.552 19.7608 170.646 43.3128 170.646C19.7502 170.646 0.666992 189.749 0.666992 213.354C0.666992 236.949 19.7608 256 43.3128 256C66.8648 256 85.9587 236.896 85.9587 213.354V85.3542H128.667C122.991 85.2317 117.347 86.244 112.067 88.3317C106.787 90.4193 101.977 93.5402 97.9195 97.5114C93.8618 101.483 90.6378 106.224 88.4368 111.458C86.2359 116.691 85.1021 122.312 85.1021 127.99C85.1021 133.667 86.2359 139.288 88.4368 144.521C90.6378 149.755 93.8618 154.497 97.9195 158.468C101.977 162.439 106.787 165.56 112.067 167.648C117.347 169.735 122.991 170.747 128.667 170.625C139.815 170.387 150.427 165.792 158.229 157.825C166.03 149.857 170.401 139.151 170.403 128C170.406 116.849 166.041 106.14 158.243 98.1689C150.446 90.1975 139.836 85.5973 128.688 85.3542C152.25 85.3542 171.334 66.2497 171.334 42.7083C171.334 19.167 152.24 0 128.688 0H43.3128Z" fill="currentColor"/>
</svg>
