<svg viewBox="0 0 113 241" fill="none" xmlns="http://www.w3.org/2000/svg">
	<path d="M105.234 1.00003C104.908 1.01265 104.654 1.10365 104.484 1.26565L74.7656 36.5625L68.7031 57.4063C64.5831 57.2703 60.3288 57.2188 55.9688 57.2188C25.0807 57.2188 0 60.4909 0 64.5469C0 74.2269 111.922 74.2269 111.922 64.5469C111.922 61.5469 98.5231 59.0125 79.2031 57.8125L84 40.6563L111.797 7.21878L111.844 7.1719C112.468 6.5239 111.25 4.57903 109.266 2.87503C107.778 1.59103 106.213 0.962152 105.234 1.00003ZM66.4219 65.6094L66.3125 65.9375C66.2645 65.9775 66.2656 66.0302 66.2656 66.0782C66.2656 66.6782 68.6886 67.1719 71.6406 67.1719C74.5926 67.1719 77.0312 66.6782 77.0312 66.0782L77.125 65.7032C77.901 65.9832 78.3281 66.3039 78.3281 66.6719C78.3281 67.6399 75.3298 68.4307 71.5938 68.3907C67.9618 68.3907 64.9531 67.6555 64.9531 66.6875C64.9531 66.2715 65.5499 65.8894 66.4219 65.6094ZM111.297 68.3594C96.4889 76.2554 15.5984 76.3088 0.734375 68.4688L7.3125 126.328C10.1685 117.104 17.3915 104.651 26.6875 100.875C29.7355 99.627 32.8304 99.6329 35.7344 101.297C38.2544 102.681 40.385 105.582 40.625 106.734C41.209 109.734 39.6611 110.922 38.4531 110.922C36.9971 110.922 35.8842 108.811 35.1562 107.563C33.1723 104.195 30.1688 104.05 26.9688 106.266C23.6247 108.57 20.7195 112.445 18.6875 115.813C16.2155 119.869 14.131 124.341 12.875 128.813C12.147 131.397 11.4818 135.536 12.5938 137.984C13.0818 139 13.8008 139.641 14.9688 139.641C17.3928 139.641 20.9134 136.6 22.6094 134.984C24.7854 132.912 27.5922 129.681 28.6562 127.609L31.1875 120.469C32.4435 117.333 35.9688 117.885 35.9688 120.469C35.9688 125.173 34.1886 126.741 31.1406 136.469C28.3326 145.461 27.4531 148.375 27.4531 148.375C27.1171 149.663 25.8062 151.828 24.4062 151.828C23.8223 151.828 23.3962 151.634 23.1562 151.266C22.6682 150.618 22.7176 148.839 22.7656 148.375C22.8616 146.903 25.8089 138.134 26.2969 136.75C25.3289 137.766 24.3151 138.789 23.2031 139.797C20.5871 142.149 16.3809 145.234 12.7969 145.234C11.1489 145.234 10.0941 144.813 9.07812 144.125L12.75 180.828C13.718 183.132 31.7331 188.719 55.4531 188.719C79.2211 188.719 97.2206 183.092 98.1406 180.828L103.422 137.219C100.662 139.619 97.4735 142.575 93.9375 144.047C91.3215 145.111 85.5156 145.79 85.5156 141.406C85.5156 139.006 89.9244 134.588 92.4844 131.5C93.1644 130.716 94.75 128.782 94.75 127.766C94.75 126.43 91.8537 126.738 89.0938 128.906C87.5417 130.154 86.083 131.823 84.875 133.391C82.795 136.159 81.6856 138.547 80.7656 140.531C77.7656 147.075 78.7834 144.496 76.3594 150.672C73.9354 156.808 74.3318 156.109 73.8438 157.125C73.4117 158.005 72.7782 158.747 71.9062 159.203C70.9862 159.667 69.7291 159.615 68.9531 159.063C68.5211 158.783 68.3125 158.183 68.3125 157.359C68.3125 156.943 68.3727 156.525 68.4688 156.109C69.1967 153.293 72.2464 147.769 75.7344 140.297C76.5104 138.593 76.2134 139.098 76.1094 139.234C73.1094 142.002 70.8286 143.342 69.1406 144.078C66.3326 145.278 62.845 145.276 62.125 142.188C62.077 142.004 62.0793 141.809 62.0312 141.625C56.3193 145.865 50.2714 147.019 52.3594 137.891C50.1354 141.675 46.252 144.766 41.5 144.766C39.516 144.766 38.0638 144.126 37.3438 142.422C36.2318 139.886 37.9705 135.542 39.5625 131.438C40.3865 129.366 41.5116 126.873 43.0156 123.969C43.7916 122.401 45.0395 121.475 46.6875 121.891C46.9755 121.987 47.2288 122.083 47.4688 122.219C48.7248 123.051 48.2414 124.283 47.6094 125.531C45.7694 128.987 44.1734 131.525 43.1094 135.125C42.6774 136.645 42.1321 139.281 43.8281 139.281C44.9881 139.281 46.0999 138.908 47.1719 138.172C49.3959 136.604 51.1869 134.257 52.5469 131.953C53.5149 130.297 54.6816 128.129 55.2656 126.281C55.5056 125.497 55.8046 124.759 56.1406 124.063C56.6766 122.911 57.3922 121.719 58.6562 121.719C59.2883 121.719 59.8111 121.95 60.2031 122.406C61.0271 123.422 60.8462 124.466 60.4062 125.578C59.4383 128.162 58.1345 130.473 57.0625 133.281C56.4305 134.897 55.75 136.968 55.75 138.672C55.75 140.24 57.5429 139.867 59.0469 139.219C60.2069 138.715 61.3677 137.94 62.3438 137.156C62.9277 134.9 62.773 135.399 75.125 105.703C75.757 104.183 76.9181 103.531 78.0781 103.531C78.6621 103.531 79.137 103.727 79.625 104.047C80.449 104.647 80.461 105.923 80.125 106.891C79.789 107.771 79.8255 107.494 77.9375 111.734C75.4175 117.31 73.7789 121.333 71.5469 126.453C70.6269 128.573 67.8237 135.166 67.3438 136.734C67.0558 137.75 66.7081 139.406 67.8281 139.406C70.4441 139.406 77.1756 133.363 79.0156 131.563C79.1116 131.427 79.2611 131.377 79.4531 131.281C79.7411 130.401 80.0256 129.582 80.2656 128.75C80.9456 126.998 81.5797 124.955 82.8438 123.531C83.2278 123.067 83.6606 122.797 84.1406 122.797C85.4926 122.797 86.1719 123.345 86.1719 124.641C86.1719 125.145 85.8406 126.996 85.6406 127.5C86.3206 126.812 87.0365 126.126 87.8125 125.438C95.0765 119.03 100.25 122.299 100.25 125.531C100.25 128.939 95.9461 133.681 93.5781 136.313C92.8021 137.193 91.2043 138.802 91.1562 139.266C91.1562 139.866 91.5867 140.109 92.2188 140.109C93.1867 140.109 95.3177 138.49 96.0938 137.938C98.5178 136.138 101.797 133.374 104.125 131.438L111.297 68.3594ZM15.4375 185.25L22.6562 196.969L25.4688 233.578C25.4688 237.682 39.1676 241 56.0156 241C72.8636 241 86.5625 237.682 86.5625 233.578L88.7969 196.594L95.6094 185.25C76.4334 192.954 35.3895 193.226 15.4375 185.25Z" fill="currentColor" />
</svg>
