<svg viewBox="0 0 200 208" fill="none" xmlns="http://www.w3.org/2000/svg">
	<path d="M95.9998 160H75.2638C73.6118 164.652 69.2158 168 63.9998 168C57.3718 168 51.9998 162.628 51.9998 156C51.9998 149.372 57.3718 144 63.9998 144C69.2158 144 73.6118 147.348 75.2638 152H95.9998V80H69.5278L61.4558 63.852C60.9718 63.912 60.4998 64 59.9998 64C53.3718 64 47.9998 58.628 47.9998 52C47.9998 45.372 53.3718 40 59.9998 40C66.6278 40 71.9998 45.372 71.9998 52C71.9998 55.232 70.7078 58.156 68.6278 60.312L74.4718 72H95.9998V3.65598C76.0518 -7.40802 50.6838 8.79998 43.6398 23.716C38.9598 26.516 26.7998 33.996 25.9198 48.836C15.5198 56.716 9.71979 65.076 10.3998 91.076C6.16779 95.64 1.66379 101.216 0.383789 108H24.7358C26.3878 103.348 30.7838 100 35.9998 100C42.6278 100 47.9998 105.372 47.9998 112C47.9998 118.628 42.6278 124 35.9998 124C30.7838 124 26.3878 120.652 24.7358 116H0.483788C1.39179 120.384 3.73179 125.172 8.23979 130.436C4.35979 145.356 11.9198 159.516 22.5198 168.916C25.9998 182.076 42.0398 195.636 55.5198 196.636C64.2398 210.78 84.5278 210.204 95.9998 202.212V160ZM200 117.396C200 98.076 189.48 87.076 189.48 87.076C192.884 58.596 185.872 44.188 165.448 32H136V44.736C140.652 46.388 144 50.784 144 56C144 62.628 138.628 68 132 68C125.372 68 120 62.628 120 56C120 50.784 123.348 46.388 128 44.736V24H158.584C146.452 7.49198 121.368 -6.47202 104 3.43198V108H135.056L148.148 101.456C148.088 100.972 148 100.5 148 100C148 93.372 153.372 88 160 88C166.628 88 172 93.372 172 100C172 106.628 166.628 112 160 112C156.768 112 153.844 110.708 151.688 108.628L136.948 116H104V202.532C112.748 208.88 126.544 209.736 136 204.808V167.268C131.348 165.616 128 161.22 128 156.004C128 149.376 133.372 144.004 140 144.004C146.628 144.004 152 149.376 152 156.004C152 161.22 148.652 165.616 144 167.268V197.28C144.124 197.06 144.284 196.864 144.4 196.636C157.84 195.636 175.36 182.636 178.84 169.476C184.72 158.116 195.52 145.316 191.64 130.436C191.64 130.436 200 128.756 200 117.396Z" fill="currentColor" />
</svg>
