<svg viewBox="0 0 204 204" fill="none" xmlns="http://www.w3.org/2000/svg">
	<path d="M192.458 0.562387C192.064 0.575334 191.671 0.61011 191.281 0.666553H123.333C121.92 0.646563 120.516 0.907697 119.205 1.43478C117.893 1.96186 116.699 2.74437 115.693 3.73685C114.686 4.72932 113.887 5.91196 113.341 7.21604C112.796 8.52011 112.515 9.91962 112.515 11.3332C112.515 12.7468 112.796 14.1463 113.341 15.4504C113.887 16.7545 114.686 17.9371 115.693 18.9296C116.699 19.9221 117.893 20.7046 119.205 21.2317C120.516 21.7587 121.92 22.0199 123.333 21.9999H166.917L94.4582 94.4582C93.4344 95.4411 92.6171 96.6184 92.0541 97.9211C91.491 99.2238 91.1936 100.626 91.1791 102.045C91.1647 103.464 91.4335 104.872 91.97 106.186C92.5064 107.499 93.2996 108.693 94.3031 109.697C95.3066 110.7 96.5003 111.493 97.8142 112.03C99.128 112.566 100.536 112.835 101.955 112.821C103.374 112.806 104.776 112.509 106.079 111.946C107.381 111.383 108.559 110.565 109.542 109.542L182 37.0832V80.6666C181.98 82.08 182.241 83.4834 182.768 84.795C183.295 86.1067 184.078 87.3005 185.07 88.3071C186.063 89.3137 187.245 90.113 188.549 90.6586C189.853 91.2042 191.253 91.4851 192.667 91.4851C194.08 91.4851 195.48 91.2042 196.784 90.6586C198.088 90.113 199.27 89.3137 200.263 88.3071C201.255 87.3005 202.038 86.1067 202.565 84.795C203.092 83.4834 203.353 82.08 203.333 80.6666V12.6457C203.539 11.1132 203.409 9.55419 202.953 8.07678C202.496 6.59938 201.724 5.23887 200.69 4.0895C199.655 2.94014 198.383 2.0294 196.962 1.42037C195.541 0.81134 194.004 0.518585 192.458 0.562387ZM40.6665 16.6666C18.7075 16.6666 0.666504 34.7076 0.666504 56.6666V163.333C0.666504 185.292 18.7075 203.333 40.6665 203.333H147.333C169.292 203.333 187.333 185.292 187.333 163.333V112.667C187.353 111.253 187.092 109.85 186.565 108.538C186.038 107.226 185.255 106.033 184.263 105.026C183.27 104.019 182.088 103.22 180.784 102.675C179.48 102.129 178.08 101.848 176.667 101.848C175.253 101.848 173.853 102.129 172.549 102.675C171.245 103.22 170.063 104.019 169.07 105.026C168.078 106.033 167.295 107.226 166.768 108.538C166.241 109.85 165.98 111.253 166 112.667V163.333C166 173.716 157.716 182 147.333 182H40.6665C30.2842 182 21.9998 173.716 21.9998 163.333V56.6666C21.9998 46.2842 30.2842 37.9999 40.6665 37.9999H91.3332C92.7466 38.0199 94.15 37.7587 95.4616 37.2317C96.7733 36.7046 97.9671 35.9221 98.9737 34.9296C99.9803 33.9371 100.78 32.7545 101.325 31.4504C101.871 30.1463 102.152 28.7468 102.152 27.3332C102.152 25.9196 101.871 24.5201 101.325 23.216C100.78 21.912 99.9803 20.7293 98.9737 19.7368C97.9671 18.7444 96.7733 17.9619 95.4616 17.4348C94.15 16.9077 92.7466 16.6466 91.3332 16.6666H40.6665Z" fill="white" />
</svg>
