<svg viewBox="0 0 285 64" fill="none" xmlns="http://www.w3.org/2000/svg">
<path d="M37.941 41.2444V63.4222C45.3073 62.0444 51.7418 58.0889 56.4012 52.5778L43.2661 39.0222C41.3135 37.0667 37.941 38.4445 37.941 41.2444Z" fill="currentColor"/>
<path d="M31.9503 0C14.2889 0 0 14.3111 0 32C0 46.8444 10.0732 59.2889 23.7409 62.9333V17.1111C23.7409 15.3778 25.1165 14 26.8471 14H36.6541C37.4972 14 38.2516 14.3111 38.8285 14.9333L63.0575 39.2C63.59 36.8889 63.8563 34.4889 63.8563 32C63.9006 14.3111 49.5674 0 31.9503 0Z" fill="currentColor"/>
<path d="M102.507 32H99.8447C99.0904 32 98.5135 32.5778 98.5135 33.3333V36.0889C95.6735 33.5556 91.9459 32 87.8634 32C79.0327 32 71.8882 39.1556 71.8882 48C71.8882 56.8444 79.0327 64 87.8634 64C91.9459 64 95.6735 62.4444 98.5135 59.9111V62.6667C98.5135 63.4222 99.0904 64 99.8447 64H102.507C103.262 64 103.839 63.4222 103.839 62.6667V33.3333C103.839 32.5778 103.217 32 102.507 32ZM87.8634 58.6667C81.9614 58.6667 77.2133 53.9111 77.2133 48C77.2133 42.0889 81.9614 37.3333 87.8634 37.3333C93.7653 37.3333 98.5135 42.0889 98.5135 48C98.5135 53.9111 93.7209 58.6667 87.8634 58.6667Z" fill="currentColor"/>
<path d="M140.005 37.6444L138.141 35.7778C137.608 35.2444 136.765 35.2444 136.277 35.7778L127.801 44.2667L119.326 35.7778C118.793 35.2444 117.95 35.2444 117.462 35.7778L115.598 37.6444C115.066 38.1778 115.066 39.0222 115.598 39.5111L124.074 48L115.598 56.4889C115.066 57.0222 115.066 57.8667 115.598 58.3556L117.462 60.2222C117.994 60.7556 118.837 60.7556 119.326 60.2222L127.801 51.7333L136.277 60.2222C136.81 60.7556 137.653 60.7556 138.141 60.2222L140.005 58.3556C140.537 57.8222 140.537 56.9778 140.005 56.4889L131.573 48L140.049 39.5111C140.537 38.9778 140.537 38.1333 140.005 37.6444Z" fill="currentColor"/>
<path d="M182.383 32H179.721C178.966 32 178.389 32.5778 178.389 33.3333V48C178.389 53.9111 173.641 58.6667 167.739 58.6667C161.837 58.6667 157.089 53.9111 157.089 48V33.3333C157.089 32.5778 156.512 32 155.758 32H153.095C152.341 32 151.764 32.5778 151.764 33.3333V48C151.764 56.8444 158.908 64 167.739 64C176.57 64 183.714 56.8444 183.714 48V33.3333C183.714 32.5778 183.093 32 182.383 32Z" fill="currentColor"/>
<path d="M199.69 43.1111H197.027C196.273 43.1111 195.696 43.6889 195.696 44.4444V62.6667C195.696 63.4222 196.273 64 197.027 64H199.69C200.444 64 201.021 63.4222 201.021 62.6667V44.4444C201.021 43.6889 200.4 43.1111 199.69 43.1111Z" fill="currentColor"/>
<path d="M198.358 37.3333C199.829 37.3333 201.021 36.1394 201.021 34.6667C201.021 33.1939 199.829 32 198.358 32C196.888 32 195.696 33.1939 195.696 34.6667C195.696 36.1394 196.888 37.3333 198.358 37.3333Z" fill="currentColor"/>
<path d="M246.284 32H243.621C242.867 32 242.29 32.5778 242.29 33.3333V48C242.29 53.9111 237.542 58.6667 231.64 58.6667C225.738 58.6667 220.99 53.9111 220.99 48V33.3333C220.99 32.5778 220.413 32 219.658 32H216.996C216.242 32 215.665 32.5778 215.665 33.3333V48C215.665 56.8444 222.809 64 231.64 64C240.471 64 247.615 56.8444 247.615 48V33.3333C247.615 32.5778 246.994 32 246.284 32Z" fill="currentColor"/>
<path d="M275.35 48L283.825 39.5111C284.358 38.9778 284.358 38.1333 283.825 37.6444L281.962 35.7778C281.429 35.2444 280.586 35.2444 280.098 35.7778L271.622 44.2667L263.146 35.7778C262.614 35.2444 261.771 35.2444 261.283 35.7778L259.419 37.6444C258.886 38.1778 258.886 39.0222 259.419 39.5111L267.895 48L259.419 56.4889C258.886 57.0222 258.886 57.8667 259.419 58.3556L261.283 60.2222C261.815 60.7556 262.658 60.7556 263.146 60.2222L271.622 51.7333L280.098 60.2222C280.63 60.7556 281.473 60.7556 281.962 60.2222L283.825 58.3556C284.358 57.8222 284.358 56.9778 283.825 56.4889L275.35 48Z" fill="currentColor"/>
</svg>
