<svg viewBox="0 0 42 42" fill="none" xmlns="http://www.w3.org/2000/svg">
<path d="M21 0C9.40199 0 0 9.40199 0 21C0 32.598 9.40199 42 21 42C32.598 42 42 32.598 42 21C42 9.40199 32.598 0 21 0ZM30.7338 14.2817C30.4178 17.6023 29.0504 25.6605 28.3544 29.3797C28.0601 30.9533 27.4804 31.481 26.9193 31.5326C25.6999 31.6449 24.7737 30.7267 23.5926 29.9524C21.7443 28.7409 20.7002 27.9866 18.906 26.8044C16.8327 25.4381 18.1768 24.6874 19.3584 23.4596C19.6676 23.1384 25.0408 18.2511 25.1448 17.8077C25.1577 17.7523 25.1702 17.5452 25.0471 17.4365C24.924 17.3278 24.7431 17.3646 24.6123 17.3942C24.4269 17.4363 21.4743 19.3879 15.7543 23.2489C14.9163 23.8244 14.1572 24.1048 13.477 24.0901C12.7272 24.074 11.2849 23.6662 10.2126 23.3176C8.89748 22.8902 7.85222 22.6642 7.94325 21.9381C7.99067 21.5599 8.51144 21.1732 9.50555 20.7781C15.6275 18.1108 19.7097 16.3524 21.7523 15.5027C27.5842 13.0769 28.796 12.6555 29.5859 12.6415C29.7596 12.6386 30.148 12.6816 30.3996 12.8858C30.567 13.0312 30.6736 13.2342 30.6985 13.4545C30.7412 13.728 30.753 14.0055 30.7338 14.2817Z" fill="currentColor"/>
</svg>
