<svg viewBox="0 0 42 43" fill="none" xmlns="http://www.w3.org/2000/svg">
<path fill-rule="evenodd" clip-rule="evenodd" d="M19.644 0.226755C19.2675 0.355139 18.7648 0.595009 18.5269 0.759868C18.289 0.92483 17.2806 1.90821 16.2862 2.94528L14.4783 4.83085L11.8394 4.83168C8.91735 4.8325 8.1862 4.91133 7.31729 5.31894C6.5643 5.67215 5.65871 6.57115 5.309 7.3126C4.90571 8.1677 4.82318 8.93708 4.82236 11.8495L4.82153 14.489L3.0529 16.1771C1.0136 18.1233 0.593621 18.618 0.286262 19.4361C-0.162979 20.632 -0.0814767 21.9335 0.516755 23.1168C0.632569 23.3459 1.64449 24.4582 2.77409 25.5981L4.82153 27.6642L4.82236 30.2348C4.82318 33.0786 4.90726 33.851 5.309 34.7027C5.65654 35.4396 6.56636 36.3494 7.30328 36.697C8.15807 37.1001 8.92827 37.1829 11.828 37.183L14.4555 37.1831L16.4647 39.2424C18.1557 40.9755 18.5687 41.3443 19.0723 41.5716C19.9351 41.9609 20.8436 42.0955 21.6622 41.9553C22.967 41.7318 23.3167 41.4898 25.5809 39.2427L27.6549 37.1844L30.2255 37.1836C33.0693 37.1828 33.8417 37.0987 34.6934 36.697C35.4303 36.3494 36.3401 35.4396 36.6876 34.7027C37.0894 33.851 37.1735 33.0786 37.1743 30.2348L37.1751 27.6642L39.2334 25.5902C41.4805 23.326 41.7224 22.9764 41.946 21.6715C42.0862 20.8534 41.9517 19.9451 41.5628 19.0816C41.3362 18.5783 40.9661 18.1633 39.2342 16.4697L37.1751 14.4562L37.1743 11.833C37.1735 8.92667 37.0943 8.1948 36.687 7.32661C36.3338 6.57362 35.4348 5.66803 34.6934 5.31832C33.8417 4.91658 33.0693 4.8325 30.2255 4.83168L27.6549 4.83085L25.5888 2.78341C24.4524 1.65732 23.3373 0.642406 23.1106 0.528035C21.9599 -0.0527837 20.7681 -0.156336 19.644 0.226755ZM26.9528 15.6402C27.4 15.8703 27.8107 16.2887 28.0446 16.7522C28.2799 17.219 28.2633 18.2359 28.0124 18.7192C27.9031 18.9294 26.176 20.7321 24.1742 22.7253C20.9108 25.9744 20.4867 26.3616 20.071 26.4715C19.5199 26.6169 18.771 26.5468 18.2992 26.3056C18.1119 26.2099 17.0643 25.2461 15.9712 24.1638C14.1265 22.3373 13.9718 22.1556 13.8207 21.6357C13.5742 20.7878 13.7581 20.0816 14.3908 19.4471C14.9385 18.8979 15.5353 18.6843 16.2492 18.7821C16.9002 18.8714 17.4234 19.2197 18.4209 20.2283L19.2952 21.1122L21.9756 18.4431C23.4499 16.975 24.7952 15.7013 24.9652 15.6128C25.4124 15.3801 26.4753 15.3947 26.9528 15.6402Z" fill="currentColor"/>
</svg>
