<svg version="1.0" xmlns="http://www.w3.org/2000/svg" width="960" height="960" viewBox="0 0 720 720"><g fill="#66DB79"><path d="M336.8 3.5c-.1.2-3.9.6-8.3 1-4.4.3-9.1.8-10.5 1-1.4.2-4.7.6-7.5.9-2.7.4-6.1.8-7.5 1.1-5.2 1-9.6 1.7-11.5 2-5 .8-21.1 4.7-32 7.9C194.9 36 132.2 75.9 89.7 125.5c-3.3 3.8-6.3 7.2-6.7 7.5-.7.6-8.3 10.5-15.4 20-22.8 30.8-45.4 78.2-54.7 114.4-1.2 4.5-2.3 8.8-2.5 9.6-1.1 4.3-5.2 24.1-5.8 28-.3 2.5-.9 6.5-1.2 9-.3 2.5-.8 5.6-1 7-1.2 7.9-1.9 22.1-1.9 41.5 0 26.4 1.2 42.4 4.6 61 .6 3.3 1.3 7.1 1.5 8.5 1.7 11.8 11.2 44.8 17.6 61 4.6 11.9 5.9 14.7 12.6 28.5 5.4 10.9 9 17.4 19.7 35.3 15.9 26.6 48.8 63.4 77.2 86.2 8.8 7.1 12.2 9.6 21.8 16.2 29.8 20.4 58 34.5 91 45.3 8.8 2.9 17.1 5.5 18.5 5.8l2.5.6V452.7c0-142 .3-260.3.6-262.8 1.8-11.4 10.8-22.8 21.6-27 5.8-2.3 5.9-2.3 65.8-2.4 33-.1 62 .3 64.4.7 2.5.4 6.5 1.8 9 3 3.5 1.6 37.3 34.8 143.4 140.9C648.6 381.4 711 443.7 711 443.5c0-.1.9-4.5 1.9-9.6 2-9.7 2.5-12.8 3.7-21.4.3-2.8.8-5.8.9-6.7 2.6-13.7 2.6-68.2.1-84.9-.3-1.3-.7-4.7-1.1-7.4-1.3-10.2-1.6-12.2-3.1-19.5-3-14.9-10.8-43.8-14.2-52-.6-1.4-3.2-7.9-5.8-14.5-13-33-35.4-69.8-59.4-97.9C583.4 70.5 514.9 28.9 440.5 12.1c-12.4-2.8-14.6-3.2-24-4.6-2.2-.4-5.1-.8-6.5-1-1.4-.3-5.2-.7-8.5-1-3.3-.4-7.3-.9-9-1.2-3.4-.6-55.1-1.3-55.7-.8z"/><path d="M452.4 433.4c-8 2.7-15.4 8.4-19.8 15.4-5.1 8.3-5 4.4-5.1 140.5 0 69.8.3 127.1.6 127.3.8.5 23-4.9 35.7-8.6 49.1-14.6 95.4-40.4 134.6-75 10.8-9.5 35.4-35.1 36.3-37.8.3-.7-4.6-5.9-48.2-50.7-14.5-14.9-30-30.8-34.5-35.5-21.6-22.4-61-62.8-65-66.7-6.6-6.5-13.8-9.6-23-9.9-4.3-.2-9.2.3-11.6 1z"/></g></svg>