<?xml version="1.0" encoding="utf-8"?><svg viewBox="0 0 640 571" xmlns="http://www.w3.org/2000/svg" xmlns:xlink="http://www.w3.org/1999/xlink"><style>:root>svg{display:none}:root>svg:target{display:block}</style><svg viewBox="0 0 32 21" fill="none" id="behance" xmlns="http://www.w3.org/2000/svg"><path d="M12.889 8.989c1.767-.845 2.689-2.122 2.689-4.111C15.578.956 12.656 0 9.283 0H0v19.689h9.544c3.578 0 6.94-1.717 6.94-5.717 0-2.472-1.173-4.3-3.595-4.983zM4.328 3.36h4.06c1.562 0 2.968.439 2.968 2.25 0 1.672-1.095 2.345-2.64 2.345H4.329V3.36zm4.628 12.983H4.328v-5.422h4.716c1.906 0 3.112.795 3.112 2.811 0 1.99-1.44 2.611-3.2 2.611zM28.872 2.972H20.89V1.033h7.983v1.94zM32 12.767c0-4.217-2.467-7.734-6.939-7.734-4.344 0-7.294 3.267-7.294 7.545 0 4.439 2.794 7.483 7.294 7.483 3.406 0 5.611-1.533 6.672-4.794h-3.455c-.372 1.216-1.906 1.86-3.095 1.86-2.294 0-3.5-1.344-3.5-3.627h10.284c.016-.233.033-.483.033-.733zm-10.311-1.734c.128-1.872 1.372-3.044 3.25-3.044 1.967 0 2.955 1.155 3.122 3.044H21.69z" fill="currentColor"/></svg><svg viewBox="0 0 32 32" fill="none" id="codepen" xmlns="http://www.w3.org/2000/svg"><path d="M31.393 9.981L16.768.231c-.5-.307-1.032-.31-1.536 0L.607 9.981c-.375.25-.607.697-.607 1.143v9.75c0 .447.232.893.607 1.143l14.625 9.751c.5.308 1.032.31 1.536 0l14.625-9.751c.375-.25.607-.696.607-1.143v-9.75c0-.446-.232-.893-.607-1.143zM17.375 3.946l10.768 7.178-4.804 3.214-5.964-3.982v-6.41zm-2.75 0v6.41l-5.964 3.982-4.804-3.214 10.768-7.178zM2.75 13.696l3.446 2.303-3.446 2.304v-4.607zm11.875 14.357L3.857 20.874l4.804-3.214 5.964 3.982v6.41zM16 19.249L11.143 16 16 12.75 20.857 16 16 19.25zm1.375 8.804v-6.41l5.964-3.983 4.804 3.214-10.768 7.179zm11.875-9.75l-3.447-2.304 3.447-2.303v4.607z" fill="currentColor"/></svg><svg viewBox="0 0 42 32" fill="none" id="email" xmlns="http://www.w3.org/2000/svg"><path d="M3.938 0a3.939 3.939 0 00-2.363 7.088l17.85 13.387a2.633 2.633 0 003.15 0l17.85-13.388A3.939 3.939 0 0038.063 0H3.937zM0 9.188V26.25a5.255 5.255 0 005.25 5.25h31.5A5.255 5.255 0 0042 26.25V9.187L24.15 22.575a5.242 5.242 0 01-6.3 0L0 9.188z" fill="currentColor"/></svg><svg viewBox="0 0 200 208" fill="none" id="icon-ai" xmlns="http://www.w3.org/2000/svg"><path d="M96 160H75.264c-1.652 4.652-6.048 8-11.264 8-6.628 0-12-5.372-12-12s5.372-12 12-12c5.216 0 9.612 3.348 11.264 8H96V80H69.528l-8.072-16.148c-.484.06-.956.148-1.456.148-6.628 0-12-5.372-12-12s5.372-12 12-12 12 5.372 12 12c0 3.232-1.292 6.156-3.372 8.312L74.472 72H96V3.656C76.052-7.408 50.684 8.8 43.64 23.716c-4.68 2.8-16.84 10.28-17.72 25.12-10.4 7.88-16.2 16.24-15.52 42.24C6.168 95.64 1.664 101.216.384 108h24.352c1.652-4.652 6.048-8 11.264-8 6.628 0 12 5.372 12 12s-5.372 12-12 12c-5.216 0-9.612-3.348-11.264-8H.484c.908 4.384 3.248 9.172 7.756 14.436-3.88 14.92 3.68 29.08 14.28 38.48 3.48 13.16 19.52 26.72 33 27.72 8.72 14.144 29.008 13.568 40.48 5.576V160zm104-42.604c0-19.32-10.52-30.32-10.52-30.32 3.404-28.48-3.608-42.888-24.032-55.076H136v12.736c4.652 1.652 8 6.048 8 11.264 0 6.628-5.372 12-12 12s-12-5.372-12-12c0-5.216 3.348-9.612 8-11.264V24h30.584C146.452 7.492 121.368-6.472 104 3.432V108h31.056l13.092-6.544c-.06-.484-.148-.956-.148-1.456 0-6.628 5.372-12 12-12s12 5.372 12 12-5.372 12-12 12c-3.232 0-6.156-1.292-8.312-3.372L136.948 116H104v86.532c8.748 6.348 22.544 7.204 32 2.276v-37.54c-4.652-1.652-8-6.048-8-11.264 0-6.628 5.372-12 12-12s12 5.372 12 12c0 5.216-3.348 9.612-8 11.264v30.012c.124-.22.284-.416.4-.644 13.44-1 30.96-14 34.44-27.16 5.88-11.36 16.68-24.16 12.8-39.04 0 0 8.36-1.68 8.36-13.04z" fill="currentColor"/></svg><svg viewBox="0 0 56 46" fill="none" id="icon-box" xmlns="http://www.w3.org/2000/svg"><path fill-rule="evenodd" clip-rule="evenodd" d="M16.717 2.317c-6.129 1.329-11 2.437-11.209 2.55-.203.109-.455.32-.56.468-.299.42-4.95 13.317-4.948 13.72.002.49.408 1.163.861 1.43.372.218.516.221 9.6.251 10.014.033 9.777.046 10.339-.552.127-.135 1.636-3.262 3.354-6.948 1.717-3.685 3.201-6.855 3.298-7.043l.177-.341 3.283 7.044c1.806 3.875 3.387 7.155 3.514 7.29.559.596.326.583 10.336.55 9.084-.03 9.228-.033 9.6-.252.455-.267.859-.939.861-1.432.003-.438-4.688-13.4-4.985-13.779a1.917 1.917 0 00-.527-.43C49.44 4.703 41.043 2.853 27.72 0c-.09-.019-5.04 1.024-11.003 2.317zm9.662 17.068c-.638 1.379-1.32 2.75-1.513 3.047-.741 1.137-1.912 2.065-3.217 2.551l-.671.25-8.198.056-8.197.055-.032 6.904c-.018 3.796-.003 7.155.034 7.464.075.642.393 1.177.86 1.448.356.207 21.595 4.84 22.182 4.84.602 0 21.789-4.627 22.146-4.836.18-.105.437-.353.571-.552l.243-.36V25.297l-8.17-.032-8.172-.03-.67-.251c-1.285-.48-2.49-1.436-3.218-2.552-.194-.297-.874-1.668-1.513-3.047-.638-1.38-1.193-2.508-1.232-2.508-.04 0-.595 1.128-1.233 2.508z" fill="currentColor"/></svg><svg viewBox="0 0 119 123" fill="none" id="icon-circle" xmlns="http://www.w3.org/2000/svg"><path fill-rule="evenodd" clip-rule="evenodd" d="M119 61.5c0 33.128-25.822 61.5-59.5 61.5S0 94.628 0 61.5 25.822 0 59.5 0 119 28.372 119 61.5zm-59.5 41.702c21.961 0 39.765-18.67 39.765-41.702 0-23.032-17.804-41.702-39.765-41.702-21.961 0-39.765 18.67-39.765 41.702 0 23.031 17.804 41.702 39.765 41.702z" fill="currentColor"/></svg><svg viewBox="0 0 384 512" id="icon-code" xmlns="http://www.w3.org/2000/svg"><path d="M384 121.941V128H256V0h6.059c6.365 0 12.47 2.529 16.971 7.029l97.941 97.941A24.005 24.005 0 01384 121.941zM248 160c-13.2 0-24-10.8-24-24V0H24C10.745 0 0 10.745 0 24v464c0 13.255 10.745 24 24 24h336c13.255 0 24-10.745 24-24V160H248zM123.206 400.505a5.4 5.4 0 01-7.633.246l-64.866-60.812a5.4 5.4 0 010-7.879l64.866-60.812a5.4 5.4 0 017.633.246l19.579 20.885a5.4 5.4 0 01-.372 7.747L101.65 336l40.763 35.874a5.4 5.4 0 01.372 7.747l-19.579 20.884zm51.295 50.479l-27.453-7.97a5.402 5.402 0 01-3.681-6.692l61.44-211.626a5.402 5.402 0 016.692-3.681l27.452 7.97a5.4 5.4 0 013.68 6.692l-61.44 211.626a5.397 5.397 0 01-6.69 3.681zm160.792-111.045l-64.866 60.812a5.4 5.4 0 01-7.633-.246l-19.58-20.885a5.4 5.4 0 01.372-7.747L284.35 336l-40.763-35.874a5.4 5.4 0 01-.372-7.747l19.58-20.885a5.4 5.4 0 017.633-.246l64.866 60.812a5.4 5.4 0 01-.001 7.879z" fill="currentColor"/></svg><svg viewBox="0 0 640 512" id="icon-console" xmlns="http://www.w3.org/2000/svg"><path d="M257.981 272.971L63.638 467.314c-9.373 9.373-24.569 9.373-33.941 0L7.029 444.647c-9.357-9.357-9.375-24.522-.04-33.901L161.011 256 6.99 101.255c-9.335-9.379-9.317-24.544.04-33.901l22.667-22.667c9.373-9.373 24.569-9.373 33.941 0L257.981 239.03c9.373 9.372 9.373 24.568 0 33.941zM640 456v-32c0-13.255-10.745-24-24-24H312c-13.255 0-24 10.745-24 24v32c0 13.255 10.745 24 24 24h304c13.255 0 24-10.745 24-24z" fill="currentColor"/></svg><svg viewBox="0 0 50 50" id="icon-csharp" xmlns="http://www.w3.org/2000/svg"><path d="M25 2c-.715 0-1.43.18-2.066.54L6.09 12.003A4.066 4.066 0 004 15.535v18.93c0 1.453.8 2.808 2.09 3.531l16.844 9.465c.636.36 1.351.539 2.066.539.715 0 1.43-.18 2.066-.54L43.91 38A4.077 4.077 0 0046 34.465v-18.93c0-1.453-.8-2.808-2.09-3.531L27.066 2.539A4.206 4.206 0 0025 2zm0 11c3.781 0 7.277 1.754 9.543 4.738l-4.383 2.54A6.993 6.993 0 0025 18c-3.86 0-7 3.14-7 7s3.14 7 7 7a6.993 6.993 0 005.16-2.277l4.383 2.539A11.933 11.933 0 0125 37c-6.617 0-12-5.383-12-12s5.383-12 12-12zm10 7h2v2h2v-2h2v2h2v2h-2v2h2v2h-2v2h-2v-2h-2v2h-2v-2h-2v-2h2v-2h-2v-2h2zm2 4v2h2v-2z" fill="currentColor"/></svg><svg viewBox="0 0 172 256" fill="none" id="icon-figma" xmlns="http://www.w3.org/2000/svg"><path d="M43.313 0C19.75 0 .667 19.105.667 42.646s19.094 42.646 42.646 42.646C19.75 85.356.667 104.448.667 128s19.094 42.646 42.646 42.646c-23.563 0-42.646 19.103-42.646 42.708C.667 236.949 19.761 256 43.313 256s42.646-19.104 42.646-42.646v-128h42.708a42.645 42.645 0 100 85.271 42.644 42.644 0 00.021-85.27c23.562 0 42.646-19.105 42.646-42.647C171.334 19.167 152.24 0 128.688 0H43.313z" fill="currentColor"/></svg><svg viewBox="0 0 50 50" id="icon-fullscreen" xmlns="http://www.w3.org/2000/svg"><path d="M5 6v11c-.012.723.367 1.39.992 1.754a1.982 1.982 0 002.016 0A1.988 1.988 0 009 17v-4.172l6.586 6.586c.5.523 1.246.734 1.95.55a2.006 2.006 0 001.429-1.429 1.997 1.997 0 00-.55-1.95L11.827 10H16a1.988 1.988 0 001.754-.992 1.982 1.982 0 000-2.016A1.988 1.988 0 0016 6zm27 0a1.988 1.988 0 00-1.754.992 1.982 1.982 0 000 2.016A1.988 1.988 0 0032 10h4.172l-6.586 6.586a1.997 1.997 0 00-.55 1.95c.183.698.73 1.245 1.429 1.429a1.997 1.997 0 001.95-.55L39 12.827V17c-.012.723.367 1.39.992 1.754a1.982 1.982 0 002.016 0A1.988 1.988 0 0043 17V6zM16.96 29.98a2.01 2.01 0 00-1.374.606L9 37.172V33a2 2 0 10-4 0v11h11a1.988 1.988 0 001.754-.992 1.982 1.982 0 000-2.016A1.988 1.988 0 0016 40h-4.172l6.586-6.586c.59-.574.77-1.453.45-2.215a2.008 2.008 0 00-1.903-1.219zm14.02 0c-.816 0-1.546.497-1.851 1.25a1.993 1.993 0 00.457 2.184L36.172 40H32a1.988 1.988 0 00-1.754.992 1.982 1.982 0 000 2.016A1.988 1.988 0 0032 44h11V33a2 2 0 10-4 0v4.172l-6.586-6.586a2.007 2.007 0 00-1.434-.606z" fill="#fff"/></svg><svg viewBox="0 0 448 512" id="icon-git" xmlns="http://www.w3.org/2000/svg"><path d="M80 104c13.3 0 24-10.7 24-24S93.3 56 80 56 56 66.7 56 80s10.7 24 24 24zm80-24c0 32.8-19.7 61-48 73.3v87.8c18.8-10.9 40.7-17.1 64-17.1h96c35.3 0 64-28.7 64-64v-6.7c-28.3-12.3-48-40.5-48-73.3 0-44.2 35.8-80 80-80s80 35.8 80 80c0 32.8-19.7 61-48 73.3v6.7c0 70.7-57.3 128-128 128h-96c-35.3 0-64 28.7-64 64v6.7c28.3 12.3 48 40.5 48 73.3 0 44.2-35.8 80-80 80S0 476.2 0 432c0-32.8 19.7-61 48-73.3V153.3C19.7 141 0 112.8 0 80 0 35.8 35.8 0 80 0s80 35.8 80 80zm232 0c0-13.3-10.7-24-24-24s-24 10.7-24 24 10.7 24 24 24 24-10.7 24-24zM80 456c13.3 0 24-10.7 24-24s-10.7-24-24-24-24 10.7-24 24 10.7 24 24 24z" fill="currentColor"/></svg><svg viewBox="0 0 232 236" fill="none" id="icon-google" xmlns="http://www.w3.org/2000/svg"><path d="M118.1 235.76C53.16 235.76.32 182.94.32 118S53.16.24 118.1.24c29.42 0 57.58 10.9 79.32 30.7l3.96 3.62-38.84 38.84-3.6-3.08c-11.4-9.76-25.9-15.14-40.84-15.14-34.64 0-62.84 28.18-62.84 62.82s28.2 62.82 62.84 62.82c24.98 0 44.72-12.76 54.02-34.5h-59.14V93.3l115.46.16.86 4.06c6.02 28.58 1.2 70.62-23.2 100.7-20.2 24.9-49.8 37.54-88 37.54z" fill="currentColor"/></svg><svg viewBox="0 0 113 241" fill="none" id="icon-gulp" xmlns="http://www.w3.org/2000/svg"><path d="M105.234 1c-.326.013-.58.104-.75.266L74.766 36.563l-6.063 20.843c-4.12-.136-8.374-.187-12.734-.187C25.08 57.219 0 60.49 0 64.547c0 9.68 111.922 9.68 111.922 0 0-3-13.399-5.534-32.719-6.734L84 40.656 111.797 7.22l.047-.047c.624-.648-.594-2.593-2.578-4.297-1.488-1.284-3.053-1.913-4.032-1.875zM66.422 65.61l-.11.328c-.047.04-.046.092-.046.14 0 .6 2.423 1.094 5.375 1.094s5.39-.494 5.39-1.094l.094-.375c.776.28 1.203.6 1.203.969 0 .968-2.998 1.759-6.734 1.719-3.632 0-6.64-.736-6.64-1.704 0-.415.596-.798 1.468-1.078zm44.875 2.75c-14.808 7.895-95.699 7.949-110.563.109l6.579 57.859c2.856-9.224 10.079-21.677 19.375-25.453 3.047-1.248 6.142-1.242 9.046.422 2.52 1.384 4.651 4.285 4.891 5.437.584 3-.964 4.188-2.172 4.188-1.456 0-2.569-2.111-3.297-3.359-1.984-3.368-4.987-3.513-8.187-1.297-3.344 2.304-6.25 6.179-8.282 9.547-2.472 4.056-4.556 8.528-5.812 13-.728 2.584-1.393 6.723-.281 9.171.488 1.016 1.207 1.657 2.375 1.657 2.424 0 5.944-3.041 7.64-4.657 2.176-2.072 4.983-5.303 6.047-7.375l2.532-7.14c1.256-3.136 4.78-2.584 4.78 0 0 4.704-1.78 6.272-4.827 16-2.808 8.992-3.688 11.906-3.688 11.906-.336 1.288-1.647 3.453-3.047 3.453-.584 0-1.01-.194-1.25-.562-.488-.648-.438-2.427-.39-2.891.096-1.472 3.043-10.241 3.53-11.625a58.885 58.885 0 01-3.093 3.047c-2.616 2.352-6.822 5.437-10.406 5.437-1.648 0-2.703-.421-3.719-1.109l3.672 36.703c.968 2.304 18.983 7.891 42.703 7.891 23.768 0 41.768-5.627 42.688-7.891l5.281-43.609c-2.76 2.4-5.948 5.356-9.484 6.828-2.617 1.064-8.422 1.743-8.422-2.641 0-2.4 4.408-6.818 6.968-9.906.68-.784 2.266-2.718 2.266-3.734 0-1.336-2.896-1.028-5.656 1.14-1.552 1.248-3.011 2.917-4.219 4.485-2.08 2.768-3.19 5.156-4.11 7.14-3 6.544-1.982 3.965-4.406 10.141-2.424 6.136-2.027 5.437-2.515 6.453-.432.88-1.066 1.622-1.938 2.078-.92.464-2.177.412-2.953-.14-.432-.28-.64-.88-.64-1.704 0-.416.06-.834.156-1.25.728-2.816 3.777-8.34 7.265-15.812.776-1.704.48-1.199.375-1.063-3 2.768-5.28 4.108-6.968 4.844-2.808 1.2-6.296 1.198-7.016-1.89-.048-.184-.046-.379-.094-.563-5.712 4.24-11.76 5.394-9.672-3.734-2.224 3.784-6.107 6.875-10.859 6.875-1.984 0-3.436-.64-4.156-2.344-1.112-2.536.627-6.88 2.218-10.984.825-2.072 1.95-4.565 3.454-7.469.776-1.568 2.023-2.494 3.672-2.078.287.096.54.192.78.328 1.257.832.773 2.064.141 3.312-1.84 3.456-3.436 5.994-4.5 9.594-.432 1.52-.977 4.156.72 4.156 1.16 0 2.27-.373 3.343-1.109 2.224-1.568 4.015-3.915 5.375-6.219.968-1.656 2.135-3.824 2.719-5.672.24-.784.539-1.522.875-2.218.536-1.152 1.251-2.344 2.515-2.344.632 0 1.155.231 1.547.687.824 1.016.643 2.06.203 3.172-.968 2.584-2.271 4.895-3.343 7.703-.633 1.616-1.313 3.687-1.313 5.391 0 1.568 1.793 1.195 3.297.547 1.16-.504 2.32-1.279 3.297-2.063.584-2.256.429-1.757 12.781-31.453.632-1.52 1.793-2.172 2.953-2.172.584 0 1.059.196 1.547.516.824.6.836 1.876.5 2.844-.336.88-.3.603-2.188 4.843-2.52 5.576-4.158 9.599-6.39 14.719-.92 2.12-3.723 8.713-4.203 10.281-.288 1.016-.636 2.672.484 2.672 2.616 0 9.348-6.043 11.188-7.843.096-.136.245-.186.437-.282.288-.88.573-1.699.813-2.531.68-1.752 1.314-3.795 2.578-5.219.384-.464.817-.734 1.297-.734 1.352 0 2.03.548 2.03 1.844 0 .504-.33 2.355-.53 2.859a45.23 45.23 0 012.171-2.062c7.264-6.408 12.438-3.139 12.438.093 0 3.408-4.304 8.15-6.672 10.782-.776.88-2.374 2.489-2.422 2.953 0 .6.43.843 1.063.843.968 0 3.099-1.619 3.875-2.171 2.424-1.8 5.703-4.564 8.031-6.5l7.172-63.079zm-95.86 116.89l7.22 11.719 2.812 36.609c0 4.104 13.699 7.422 30.547 7.422s30.547-3.318 30.547-7.422l2.234-36.984 6.812-11.344c-19.176 7.704-60.22 7.976-80.171 0z" fill="currentColor"/></svg><svg viewBox="0 0 468 468" id="icon-handshake" xmlns="http://www.w3.org/2000/svg"><path d="M249.775 102.832c-14.32-.328-28.782 4.397-40.185 14.397L148 173.32c-8.438 8.18-8.875 17.313 2.34 28.227 21.194 20.626 57.763 13.667 79.986-5.717l40.295-29.379 117.91 126.645V144.529H311.71l-18.443-21.433c-11.211-13.03-27.26-19.892-43.49-20.264zm-89.011 9.33c-20.418.09-41.32 9.594-53.01 27.299H80.436v168.244h27.318l44.748 49.611a23.82 23.82 0 0029.088 4.961c13.565-7.393 16.614-25.542 6.209-36.96l24.844 27.92c6.78 7.577 17.419 9.086 26.543 5.484 14.865-6.4 19.124-25.355 8.47-37.426l15.047 16.215c7.64 8.538 19.76 9.744 29.686 5.01 14.7-7.644 18.115-27.048 6.966-39.172 0 0-5.756-7.27 15.631 15.566 6.961 7.433 17.574 8.954 26.8 5.506 14.456-5.865 19.598-22.961 12.093-35.574l-86.399-90.309-21.273 16.43c-40.308 32.905-92.888 26.902-125.793-13.405-8.893-13.939-2.124-27.797 6.006-36.501l54.24-49.807c-6.34-2.107-13.09-3.122-19.896-3.092zm250.007 12.236v198.803h57.231V124.398h-57.23zM0 124.668v198.803h57.229V124.668H0z" fill="currentColor"/></svg><svg viewBox="0 0 47 46" fill="none" id="icon-home" xmlns="http://www.w3.org/2000/svg"><path fill-rule="evenodd" clip-rule="evenodd" d="M21.97.105c-1.166.328-.843.029-11.21 10.382C5.377 15.864.853 20.442.707 20.66a4.221 4.221 0 00.535 5.325c.825.825 1.879 1.253 3.086 1.253h.611v7.194c0 4.87.032 7.349.099 7.672.34 1.64 1.667 3.123 3.303 3.688.597.206.64.208 4.983.208 4.283 0 4.385-.004 4.628-.186.137-.102.332-.297.434-.434.182-.243.187-.364.23-6.255l.046-6.007.273-.443c.34-.552 1.036-.993 1.694-1.075.254-.031 1.515-.044 2.802-.027l2.34.03.473.261c.45.25.741.547 1.02 1.043.104.185.135 1.3.171 6.225.045 5.884.05 6.005.231 6.248.102.137.297.332.434.434.243.182.345.186 4.629.186 4.343 0 4.385-.002 4.982-.208 1.637-.565 2.964-2.047 3.304-3.688.066-.323.098-2.801.098-7.672v-7.194h.611c2.163 0 3.91-1.466 4.266-3.577.14-.834.004-1.718-.39-2.542-.257-.54-1.04-1.347-10.054-10.374C30.169 5.36 25.579.832 25.345.68a5.933 5.933 0 00-.9-.457c-.625-.24-1.837-.299-2.476-.119z" fill="currentColor"/></svg><svg viewBox="0 0 50 50" id="icon-idea" xmlns="http://www.w3.org/2000/svg"><path d="M29.691 2.008C24.348 2.168 20 6.664 20 12.03c0 2.914 1.52 5.188 2.86 7.196.632.945 1.234 1.859 1.64 2.773H29v-8.586l-1.707-1.707a1 1 0 111.414-1.414L30 11.586l1.293-1.293a1 1 0 111.414 1.414L31 13.414V22h4.488c.403-.906 1.004-1.816 1.637-2.754C38.473 17.226 40 14.941 40 12a9.936 9.936 0 00-3.035-7.18c-1.957-1.898-4.524-2.906-7.274-2.812zM24.996 24c0 .02.004.035.004.05V26c0 1.652 1.348 3 3 3h.277c.348.594.985 1 1.723 1 .738 0 1.375-.406 1.723-1H32c1.652 0 3-1.348 3-3v-2zm19.348 3.992a3.73 3.73 0 00-2.117.574l-9.352 5.762A3.915 3.915 0 0134 37.066a3.938 3.938 0 01-4.84 3.829c-.765-.18-10.59-3.122-11.707-3.458a1 1 0 01-.672-1.246c.16-.527.715-.824 1.246-.668 4.364 1.309 11.059 3.301 11.598 3.43A1.937 1.937 0 0032 37.066a1.91 1.91 0 00-.957-1.656c-.29-.168-10.16-4.484-12.148-5.351a12.545 12.545 0 00-9.832-.094l-6.446 2.683C2.105 32.86 2 33.32 2 33.953V46c0 .55.45 1 1 1 .305 0 .55-.164.586-.191L7.07 44.25c1.778-1.305 4.145-1.59 6.227-.734l11.7 4.148a6 6 0 005.637-.875L46.37 34.863a3.76 3.76 0 001.047-5.113 3.762 3.762 0 00-3.074-1.758z" fill="currentColor"/></svg><svg viewBox="0 0 216 216" fill="none" id="icon-js" xmlns="http://www.w3.org/2000/svg"><path d="M201.88.48H14.14C6.6.48.48 6.6.48 14.14v187.72c0 7.54 6.12 13.66 13.66 13.66h187.72c7.54 0 13.66-6.12 13.66-13.64V14.14c0-7.54-6.12-13.66-13.64-13.66zm-83.64 164.78c0 20.46-12 29.78-29.52 29.78-15.84 0-27.26-10.62-31.92-20.48l16.1-9.74c3.1 5.5 7.82 9.74 14.62 9.74 6.5 0 10.24-2.54 10.24-12.42V97.76h20.48v67.5zm44.42 29.78c-18.14 0-28.44-9.14-34.18-20.48l15.36-10.24c4.18 6.84 8.74 13.38 18.38 13.38 8.1 0 12.34-4.04 12.34-9.64 0-6.68-4.4-9.06-13.3-12.96l-4.88-2.1c-14.1-6-23.48-13.52-23.48-29.44 0-14.64 11.18-25.8 28.62-25.8 12.42 0 21.34 4.32 27.78 15.64l-15.2 9.78c-3.36-6.02-6.96-8.38-12.58-8.38-5.72 0-9.34 3.64-9.34 8.38 0 5.86 3.62 8.22 12 11.86l4.88 2.1c16.62 7.1 25.98 14.36 25.98 30.68 0 17.58-13.82 27.22-32.38 27.22z" fill="currentColor"/></svg><svg viewBox="0 0 204 204" fill="none" id="icon-link" xmlns="http://www.w3.org/2000/svg"><path d="M192.458.562c-.394.013-.787.048-1.177.105h-67.948a10.665 10.665 0 00-10.818 10.666 10.678 10.678 0 003.178 7.597 10.658 10.658 0 007.64 3.07h43.584L94.458 94.458a10.666 10.666 0 003.356 17.572 10.681 10.681 0 0011.728-2.488L182 37.083v43.584a10.669 10.669 0 1021.333 0V12.646a10.672 10.672 0 00-2.643-8.556 10.677 10.677 0 00-8.232-3.528zM40.667 16.667c-21.96 0-40 18.04-40 40v106.666c0 21.959 18.04 40 40 40h106.666c21.959 0 40-18.041 40-40v-50.666a10.67 10.67 0 00-6.549-9.992 10.661 10.661 0 00-11.714 2.351 10.674 10.674 0 00-3.07 7.641v50.666c0 10.383-8.284 18.667-18.667 18.667H40.667C30.284 182 22 173.716 22 163.333V56.667C22 46.284 30.284 38 40.666 38h50.667a10.669 10.669 0 100-21.333H40.667z" fill="#fff"/></svg><svg viewBox="0 0 571 571" fill="none" id="icon-photoshop" xmlns="http://www.w3.org/2000/svg"><path d="M51.91 0C23.23 0 0 23.23 0 51.91v467.18C0 547.771 23.23 571 51.91 571h467.18c28.68 0 51.909-23.229 51.909-51.909V51.909C571 23.23 547.771 0 519.091 0H51.909zm51.908 155.525h103.261c51.104 0 86.076 34.959 86.076 86.582 0 50.741-36.248 85.518-88.053 85.518h-55.509v83.947h-45.775V155.525zm45.775 38.323v95.809h45.269c32.651 0 51.808-17.027 51.808-47.55 0-31.379-18.668-48.259-51.656-48.259h-45.421zm245.099 19.669c46.121 0 75.076 20.413 78.269 55.711h-41.315c-3.192-13.652-16.17-22.356-36.752-22.356-20.037 0-35.13 9.608-35.13 23.623 0 11.005 9.225 17.74 28.743 22.153l34.218 7.806c37.089 8.332 54.291 24.323 54.291 52.873 0 37.296-34.248 62.149-82.679 62.149-48.431 0-78.951-20.971-82.325-56.269h43.494c4.257 14.379 17.886 22.913 39.895 22.913 22.165 0 37.614-9.751 37.614-24.13 0-11.004-8.312-17.95-26.766-22.051l-34.42-7.959c-37.27-8.513-54.798-25.724-54.798-55.001 0-35.142 31.877-59.462 77.661-59.462z" fill="currentColor"/></svg><svg viewBox="0 0 258 192" fill="none" id="icon-sass" xmlns="http://www.w3.org/2000/svg"><path d="M221.314 110.346c-8.945.046-16.696 2.197-23.194 5.397-2.375-4.741-4.782-8.914-5.186-12.017-.471-3.62-1.019-5.78-.451-10.097.569-4.316 3.067-10.424 3.026-10.88-.036-.455-.558-2.652-5.719-2.693-5.161-.035-9.574.994-10.096 2.356-.523 1.361-1.516 4.428-2.13 7.628-.907 4.68-10.302 21.371-15.642 30.101-1.746-3.41-3.231-6.41-3.538-8.786-.471-3.62-1.019-5.781-.45-10.097.568-4.316 3.066-10.424 3.026-10.88-.036-.456-.559-2.652-5.72-2.693-5.16-.036-9.574.993-10.096 2.355-.522 1.362-1.075 4.547-2.13 7.63-1.06 3.081-13.553 30.919-16.824 38.133a225.049 225.049 0 01-4.142 8.648l-.006-.011s-.061.133-.174.364a112.566 112.566 0 01-1.397 2.667s.005.016.015.036c-.696 1.26-1.439 2.432-1.807 2.432-.256 0-.774-3.359.112-7.961 1.859-9.657 6.323-24.72 6.282-25.237-.02-.266.83-2.888-2.918-4.265-3.64-1.331-4.941.891-5.274.896-.322.005-.563.783-.563.783s4.06-16.936-7.741-16.936c-7.373 0-17.593 8.069-22.63 15.38a5718.77 5718.77 0 00-25.467 13.962c-.185-.199-.364-.404-.553-.604-14.306-15.263-40.745-26.056-39.624-46.571.41-7.46 3-27.1 50.81-50.924 39.164-19.517 70.519-14.146 75.935-2.242 7.742 17.003-16.757 48.609-57.425 53.166-15.499 1.735-23.655-4.27-25.688-6.508-2.135-2.355-2.452-2.463-3.25-2.017-1.301.722-.477 2.8 0 4.04 1.213 3.159 6.194 8.765 14.694 11.55 7.475 2.453 25.666 3.8 47.672-4.71 24.643-9.534 43.884-36.05 38.236-58.215-5.75-22.543-43.126-29.952-78.5-17.387-21.053 7.48-43.842 19.22-60.231 34.544C3.069 58.912-.034 74.774 1.246 81.399c4.552 23.552 37.008 38.886 50.007 50.253l-1.792.988c-6.517 3.225-31.257 16.174-37.447 29.854-7.02 15.519 1.116 26.655 6.507 28.155 16.691 4.644 33.823-3.712 43.029-17.444 9.205-13.726 8.079-31.6 3.855-39.761-.051-.103-.113-.2-.164-.303 1.685-.998 3.4-2.007 5.1-3.005a348.576 348.576 0 019.4-5.304c-1.582 4.331-2.74 9.523-3.343 17.024-.707 8.811 2.903 20.198 7.628 24.678 2.08 1.971 4.583 2.017 6.17 2.017 5.499 0 8.008-4.572 10.767-9.984 3.39-6.635 6.395-14.356 6.395-14.356s-3.773 20.864 6.508 20.864c3.742 0 7.511-4.859 9.19-7.332a.242.242 0 01.005.041s.098-.159.287-.486c.389-.594.609-.973.609-.973s.011-.041.021-.108c1.505-2.611 4.843-8.571 9.851-18.401 6.466-12.698 12.672-28.6 12.672-28.6s.578 3.891 2.467 10.317c1.112 3.783 3.477 7.966 5.341 11.975-1.501 2.084-2.422 3.277-2.422 3.277s.01.02.025.061a121.353 121.353 0 01-3.952 4.987c-5.105 6.083-11.187 13.026-12.001 15.033-.958 2.36-.733 4.101 1.121 5.493 1.352 1.019 3.763 1.178 6.282 1.009 4.588-.307 7.818-1.449 9.411-2.14 2.483-.876 5.376-2.258 8.089-4.255 5.008-3.681 8.028-8.95 7.742-15.928-.159-3.845-1.388-7.655-2.939-11.254.455-.655.911-1.311 1.367-1.981 7.895-11.546 14.018-24.228 14.018-24.228s.579 3.891 2.468 10.317c.958 3.256 2.847 6.804 4.542 10.286-7.424 6.031-12.027 13.04-13.63 17.638-2.954 8.504-.64 12.36 3.702 13.235 1.966.4 4.746-.501 6.835-1.387 2.601-.86 5.724-2.299 8.643-4.444 5.007-3.682 9.825-8.838 9.533-15.816-.133-3.175-.993-6.328-2.16-9.359 6.292-2.622 14.443-4.081 24.821-2.868 22.267 2.601 26.635 16.502 25.8 22.318-.835 5.822-5.504 9.017-7.066 9.984-1.561.968-2.037 1.301-1.904 2.018.189 1.044.911 1.003 2.242.778 1.833-.307 11.689-4.731 12.114-15.473.533-13.609-12.534-28.585-35.676-28.462zM49.702 168.202c-7.373 8.044-17.68 11.085-22.098 8.525-4.772-2.765-2.883-14.612 6.17-23.148 5.514-5.201 12.636-9.994 17.361-12.948 1.076-.645 2.653-1.597 4.573-2.749l.496-.282-.005-.01c.369-.22.753-.451 1.142-.686 3.292 12.155.102 22.855-7.64 31.298zm53.724-36.526c-2.57 6.262-7.946 22.282-11.218 21.422-2.81-.737-4.52-12.918-.563-24.898 1.992-6.032 6.246-13.241 8.75-16.041 4.024-4.501 8.458-5.975 9.533-4.147 1.378 2.324-4.889 19.737-6.502 23.664zm44.39 21.182c-1.09.568-2.088.926-2.549.65-.343-.205.45-.952.45-.952s5.55-5.976 7.742-8.694a294.432 294.432 0 004.352-5.561c.015.21.02.42.02.625-.02 7.158-6.932 11.986-10.015 13.932zm34.197-7.798c-.814-.579-.676-2.448 1.992-8.264 1.049-2.283 3.44-6.134 7.603-9.81.481 1.511.778 2.96.768 4.311-.057 9.006-6.482 12.37-10.363 13.763z" fill="currentColor"/></svg><svg viewBox="0 0 125 121" fill="none" id="icon-square" xmlns="http://www.w3.org/2000/svg"><path fill-rule="evenodd" clip-rule="evenodd" d="M30.493.321h59.76c16.663 0 31.434 13.314 32.101 30.653l2.247 58.405c.667 17.339-13.079 30.653-29.742 30.653H35.1c-16.662 0-31.433-13.314-32.1-30.653L.752 30.974C.084 13.634 13.83.32 30.493.32zm.758 19.701c-6.188 0-11.016 4.904-10.784 10.952l2.248 58.405c.232 6.048 5.438 10.951 11.626 10.951H94.1c6.189 0 11.017-4.903 10.784-10.95l-2.247-58.406c-.232-6.049-5.438-10.951-11.626-10.951h-59.76z" fill="currentColor"/></svg><svg viewBox="0 0 127 119" fill="none" id="icon-triangle" xmlns="http://www.w3.org/2000/svg"><path fill-rule="evenodd" clip-rule="evenodd" d="M63.267 26.064L23.145 98.661h80.244L63.267 26.064zM75.788 7.932c-5.565-10.07-19.477-10.07-25.042 0L2.226 95.724c-5.565 10.069 1.391 22.656 12.521 22.656h97.04c11.13 0 18.086-12.587 12.521-22.656L75.788 7.932z" fill="currentColor"/></svg><svg viewBox="0 0 56 46" fill="none" id="icon-uiux" xmlns="http://www.w3.org/2000/svg"><path fill-rule="evenodd" clip-rule="evenodd" d="M5.153.077c-1.272.189-2.732.987-3.6 1.97C.95 2.73.27 4.11.115 4.963.046 5.345 0 7.3 0 9.836v4.234h55.15l-.035-4.604-.034-4.604-.276-.713c-.4-1.033-.81-1.684-1.49-2.364C52.61 1.081 51.978.692 50.907.3L50.13.016 27.946.001C15.744-.007 5.488.027 5.153.077zm4.411 7.21c1.01.617.78 2.207-.375 2.589-.97.32-2.03-.63-1.812-1.625.084-.38.532-.947.853-1.077.393-.16.967-.11 1.334.114zm6.234-.006c1.374.837.43 3.015-1.125 2.596a1.4 1.4 0 01-.59-2.4c.162-.15.366-.3.455-.331.35-.128.932-.065 1.26.135zm6.181-.044c.675.349.95 1.334.558 2-.267.45-.982.773-1.503.677-.489-.09-1.051-.632-1.145-1.103-.234-1.168 1.032-2.122 2.09-1.574zm25.292.204c.839.804.545 2.12-.542 2.431-.222.064-3.185.105-7.505.105-5.807 0-7.204-.027-7.485-.147-1.113-.474-1.262-1.937-.261-2.55.335-.206.555-.211 7.903-.184l7.558.028.332.317zM0 28.696c0 7.845.038 11.93.115 12.357.063.352.308 1.041.544 1.532.718 1.497 1.929 2.546 3.649 3.164l.7.251H50.13l.7-.251c1.017-.365 1.774-.829 2.471-1.514.689-.677 1.096-1.317 1.505-2.368l.278-.713.03-12.088.03-12.089H0v11.719zm16.49-4.533c.173.103.41.384.527.627.197.406.214.67.214 3.479 0 3.337.014 3.426.66 4.16 1.203 1.372 3.477 1.03 4.254-.64.246-.53.253-.62.254-3.596 0-2.627.026-3.105.18-3.431.495-1.042 2.054-1.042 2.549 0 .154.326.18.8.178 3.431-.002 3.356-.072 3.91-.634 5.024-1.03 2.041-3.347 3.25-5.612 2.93-2.12-.301-4.013-1.96-4.54-3.977-.263-1.008-.287-6.952-.03-7.45.349-.674 1.335-.95 2-.557zm14.128-.067c.13.066 1.096.974 2.147 2.018l1.911 1.9 1.858-1.842c1.022-1.013 1.978-1.922 2.124-2.018.36-.239 1.058-.223 1.478.034.62.378.855 1.19.525 1.814-.085.16-.982 1.114-1.993 2.12-1.01 1.006-1.838 1.88-1.838 1.94 0 .06.827.933 1.838 1.94 1.011 1.006 1.908 1.96 1.993 2.12.33.623.096 1.435-.525 1.813-.42.257-1.118.273-1.478.035-.146-.097-1.102-1.005-2.123-2.017l-1.856-1.84-2.027 2.017-2.027 2.016h-.572c-.52 0-.608-.037-.99-.418-.37-.372-.417-.476-.417-.945 0-.308.073-.638.176-.793.097-.147.994-1.091 1.992-2.099l1.816-1.831-1.838-1.83c-1.01-1.006-1.907-1.96-1.992-2.12-.085-.16-.154-.517-.154-.794 0-.44.052-.554.418-.92.352-.353.489-.419.869-.419.247 0 .556.054.685.12z" fill="currentColor"/></svg><svg viewBox="0 0 448 512" id="icon-unity" xmlns="http://www.w3.org/2000/svg"><path d="M243.583 91.603l80.112 46.781c2.88 1.642 2.985 6.199 0 7.841l-95.192 55.629a8.747 8.747 0 01-8.954 0l-95.192-55.629c-2.932-1.589-2.984-6.252 0-7.841l80.06-46.781V0L0 119.417v238.835l78.384-45.775v-93.563c-.052-3.338 3.823-5.722 6.703-3.921l95.192 55.629a9.092 9.092 0 014.503 7.842v111.205c.052 3.338-3.823 5.722-6.703 3.92l-80.112-46.781-78.384 45.775L224 512l204.417-119.417-78.384-45.775-80.112 46.781c-2.828 1.749-6.807-.529-6.703-3.92V278.464c0-3.338 1.833-6.305 4.503-7.842l95.193-55.629c2.827-1.748 6.806.477 6.702 3.921v93.563L448 358.252V119.417L243.583 0v91.603z" fill="currentColor"/></svg><svg viewBox="0 0 41 46" fill="none" id="icon-user" xmlns="http://www.w3.org/2000/svg"><path fill-rule="evenodd" clip-rule="evenodd" d="M18.964.027c-2.893.356-5.316 1.537-7.328 3.573C9.85 5.408 8.82 7.337 8.294 9.86c-.22 1.06-.22 3.435 0 4.495.526 2.526 1.56 4.46 3.342 6.257 1.81 1.824 3.79 2.893 6.34 3.424 1.047.218 3.42.218 4.516 0 2.426-.484 4.436-1.56 6.239-3.342 1.81-1.79 2.889-3.788 3.42-6.339.22-1.06.22-3.434 0-4.495a13.08 13.08 0 00-1.903-4.584c-.566-.854-2.322-2.616-3.155-3.167C25.643 1.152 24.08.494 22.54.194c-.724-.141-2.944-.245-3.576-.167zm-3.572 27.056c-5.029.61-9.57 3.466-12.493 7.86C1.185 37.517.203 40.55.029 43.798c-.054.993-.043 1.11.135 1.46.129.252.312.44.548.56.352.18.49.181 19.51.181 19.022 0 19.159-.001 19.511-.181.236-.12.42-.308.549-.56.178-.35.189-.467.135-1.46-.238-4.431-1.927-8.316-4.999-11.496-2.91-3.014-6.673-4.852-10.777-5.267-1.364-.138-8-.104-9.25.047z" fill="currentColor"/></svg><svg viewBox="0 0 214 214" fill="none" id="icon-wordpress" xmlns="http://www.w3.org/2000/svg"><path d="M21.672 107c0 33.792 19.626 62.965 48.096 76.8L29.053 72.27A85.02 85.02 0 0021.672 107zm142.949-4.299c0-10.544-5.669-17.866-8.907-23.53-4.336-7.088-8.405-12.998-8.405-20.011 0-7.813 7.845-15.147 16.219-15.147.378 0 .72.032 1.098.043-15.168-13.941-35.397-22.39-57.621-22.39-28.741 0-54.15 14.22-69.61 35.995 1.215.395 1.637.208 3.258.208 8.901 0 22.741-1.066 22.741-1.066 4.587-.304 5.147 6.464.528 7.018 0 0-4.608.56-9.749.811l31.632 94.816 18.667-56.005-13.883-38.656c-4.592-.246-8.955-.811-8.955-.811-4.597-.299-4.064-7.333.523-7.019 0 0 14.123 1.067 22.491 1.067 8.933 0 22.741-1.067 22.741-1.067 4.592-.304 5.147 6.464.555 7.019 0 0-4.64.56-9.771.81l31.419 93.921 8.528-28.406c4.341-11.093 6.501-20.266 6.501-27.6zm-56.123 11.744l-25.6 74.411c7.659 2.272 15.734 3.477 24.107 3.477 9.925 0 19.461-1.728 28.352-4.837-.213-.379-.453-.763-.629-1.173l-26.23-71.878zm73.398-48.416c.378 2.72.576 5.648.576 8.774 0 8.682-1.632 18.405-6.502 30.597l-26.053 75.387c25.376-14.784 42.416-42.31 42.416-73.787a85.335 85.335 0 00-10.437-40.97z" fill="currentColor"/><path d="M.333 107c0 58.795 47.84 106.667 106.661 106.667 58.832 0 106.672-47.872 106.672-106.667S165.826.333 107 .333C48.173.333.333 48.205.333 107zm10.64 0c0-52.928 43.061-95.995 96.021-95.995S203.026 54.072 203.026 107c0 52.928-43.072 96.005-96.026 96.005-52.95 0-96.027-43.077-96.027-96.005z" fill="currentColor"/></svg><svg viewBox="0 0 103 99" fill="none" id="icon-x" xmlns="http://www.w3.org/2000/svg"><path d="M3.508 19.652c-4.677-4.495-4.677-11.784 0-16.28s12.261-4.496 16.938 0l79.046 75.976c4.677 4.495 4.677 11.784 0 16.28s-12.261 4.496-16.938 0L3.508 19.652z" fill="currentColor"/><path d="M82.554 3.372c4.677-4.496 12.26-4.496 16.938 0 4.677 4.496 4.677 11.785 0 16.28L20.446 95.628c-4.677 4.496-12.26 4.496-16.938 0-4.677-4.496-4.677-11.785 0-16.28L82.554 3.371z" fill="currentColor"/></svg><svg viewBox="0 0 65 64" fill="none" id="logo" xmlns="http://www.w3.org/2000/svg"><path d="M38.337 41.596V64A32.022 32.022 0 0056.96 53.063L43.7 39.409c-1.94-2.011-5.361-.635-5.361 2.188z" fill="currentColor"/><path d="M32.271 0C14.461 0 0 14.465 0 32.282c0 14.96 10.193 27.555 23.983 31.189V17.253c0-1.73 1.41-3.14 3.139-3.14h9.91c.847 0 1.623.317 2.223.917L63.73 39.515a32.71 32.71 0 00.811-7.233C64.542 14.465 50.082 0 32.272 0z" fill="currentColor"/></svg><svg viewBox="0 0 285 64" fill="none" id="logo-full" xmlns="http://www.w3.org/2000/svg"><path d="M37.941 41.244v22.178c7.366-1.378 13.8-5.333 18.46-10.844L43.266 39.022c-1.953-1.955-5.325-.578-5.325 2.222z" fill="currentColor"/><path d="M31.95 0C14.29 0 0 14.311 0 32c0 14.844 10.073 27.289 23.74 30.933V17.111A3.09 3.09 0 0126.848 14h9.807c.843 0 1.598.311 2.174.933L63.058 39.2a31.97 31.97 0 00.798-7.2C63.901 14.311 49.567 0 31.95 0zm70.557 32h-2.662c-.755 0-1.332.578-1.332 1.333v2.756C95.673 33.556 91.946 32 87.863 32c-8.83 0-15.975 7.156-15.975 16 0 8.844 7.145 16 15.975 16 4.083 0 7.81-1.556 10.65-4.089v2.756c0 .755.577 1.333 1.332 1.333h2.662c.755 0 1.332-.578 1.332-1.333V33.333c0-.755-.622-1.333-1.332-1.333zM87.863 58.667A10.633 10.633 0 0177.213 48a10.633 10.633 0 0110.65-10.667c5.902 0 10.65 4.756 10.65 10.667s-4.792 10.667-10.65 10.667zm52.142-21.023l-1.864-1.866c-.533-.534-1.376-.534-1.864 0l-8.476 8.489-8.475-8.49c-.533-.533-1.376-.533-1.864 0l-1.864 1.867c-.532.534-.532 1.378 0 1.867L124.074 48l-8.476 8.489c-.532.533-.532 1.378 0 1.867l1.864 1.866c.532.534 1.375.534 1.864 0l8.475-8.489 8.476 8.49c.533.533 1.376.533 1.864 0l1.864-1.867c.532-.534.532-1.378 0-1.867L131.573 48l8.476-8.489c.488-.533.488-1.378-.044-1.867zM182.383 32h-2.662c-.755 0-1.332.578-1.332 1.333V48a10.633 10.633 0 01-10.65 10.667A10.633 10.633 0 01157.089 48V33.333c0-.755-.577-1.333-1.331-1.333h-2.663c-.754 0-1.331.578-1.331 1.333V48c0 8.844 7.144 16 15.975 16s15.975-7.156 15.975-16V33.333c0-.755-.621-1.333-1.331-1.333zm17.307 11.111h-2.663c-.754 0-1.331.578-1.331 1.333v18.223c0 .755.577 1.333 1.331 1.333h2.663c.754 0 1.331-.578 1.331-1.333V44.444c0-.755-.621-1.333-1.331-1.333zm-1.332-5.778a2.665 2.665 0 002.663-2.666A2.665 2.665 0 00198.358 32a2.664 2.664 0 00-2.662 2.667 2.664 2.664 0 002.662 2.666zM246.284 32h-2.663c-.754 0-1.331.578-1.331 1.333V48a10.633 10.633 0 01-10.65 10.667A10.633 10.633 0 01220.99 48V33.333c0-.755-.577-1.333-1.332-1.333h-2.662c-.754 0-1.331.578-1.331 1.333V48c0 8.844 7.144 16 15.975 16s15.975-7.156 15.975-16V33.333c0-.755-.621-1.333-1.331-1.333zm29.066 16l8.475-8.489c.533-.533.533-1.378 0-1.867l-1.863-1.866c-.533-.534-1.376-.534-1.864 0l-8.476 8.489-8.476-8.49c-.532-.533-1.375-.533-1.863 0l-1.864 1.867c-.533.534-.533 1.378 0 1.867L267.895 48l-8.476 8.489c-.533.533-.533 1.378 0 1.867l1.864 1.866c.532.534 1.375.534 1.863 0l8.476-8.489 8.476 8.49c.532.533 1.375.533 1.864 0l1.863-1.867c.533-.534.533-1.378 0-1.867L275.35 48z" fill="currentColor"/></svg><svg viewBox="0 0 42 42" fill="none" id="telegram" xmlns="http://www.w3.org/2000/svg"><path d="M21 0C9.402 0 0 9.402 0 21s9.402 21 21 21 21-9.402 21-21S32.598 0 21 0zm9.734 14.282c-.316 3.32-1.684 11.378-2.38 15.098-.294 1.573-.874 2.101-1.435 2.153-1.22.112-2.145-.806-3.326-1.58-1.849-1.212-2.893-1.966-4.687-3.149-2.073-1.366-.73-2.117.452-3.344.31-.322 5.683-5.209 5.787-5.652.013-.056.025-.263-.098-.372-.123-.108-.304-.071-.435-.042-.185.042-3.138 1.994-8.858 5.855-.838.575-1.597.856-2.277.841-.75-.016-2.192-.424-3.264-.772-1.316-.428-2.36-.654-2.27-1.38.048-.378.568-.765 1.563-1.16 6.121-2.667 10.204-4.426 12.246-5.275 5.832-2.426 7.044-2.848 7.834-2.861.174-.003.562.04.814.244a.885.885 0 01.299.569 3.7 3.7 0 01.035.827z" fill="currentColor"/></svg><svg viewBox="0 0 42 43" fill="none" id="verify" xmlns="http://www.w3.org/2000/svg"><path fill-rule="evenodd" clip-rule="evenodd" d="M19.644.227c-.377.128-.88.368-1.117.533-.238.165-1.246 1.148-2.24 2.185l-1.809 1.886H11.84c-2.922.001-3.653.08-4.522.488-.753.353-1.658 1.252-2.008 1.994-.403.855-.486 1.624-.487 4.537v2.639l-1.77 1.688C1.015 18.123.595 18.618.287 19.437c-.449 1.195-.367 2.496.23 3.68.117.229 1.128 1.341 2.258 2.481l2.048 2.066v2.57c.001 2.845.085 3.617.487 4.469.348.737 1.257 1.646 1.994 1.994.855.403 1.625.486 4.525.486h2.628l2.009 2.06c1.69 1.732 2.104 2.101 2.607 2.329.863.389 1.772.523 2.59.383 1.305-.223 1.655-.465 3.919-2.712l2.074-2.059h2.57c2.844-.001 3.617-.085 4.468-.487.737-.348 1.647-1.257 1.995-1.994.401-.852.485-1.624.486-4.468l.001-2.57 2.058-2.075c2.248-2.264 2.49-2.614 2.713-3.918.14-.819.006-1.727-.383-2.59-.227-.504-.597-.919-2.329-2.612l-2.059-2.014v-2.623c-.002-2.906-.08-3.638-.488-4.506-.353-.753-1.252-1.659-1.994-2.009-.851-.401-1.624-.486-4.467-.486l-2.571-.001-2.066-2.048C24.452 1.657 23.337.643 23.11.528c-1.151-.58-2.343-.684-3.467-.301zm7.309 15.413c.447.23.858.649 1.092 1.112.235.467.218 1.484-.033 1.967-.109.21-1.836 2.013-3.838 4.006-3.263 3.25-3.687 3.637-4.103 3.746-.551.146-1.3.076-1.772-.165-.187-.096-1.235-1.06-2.328-2.142-1.845-1.827-2-2.008-2.15-2.528-.247-.848-.063-1.554.57-2.189.547-.55 1.144-.763 1.858-.665.651.09 1.174.438 2.172 1.446l.874.884 2.68-2.669c1.475-1.468 2.82-2.742 2.99-2.83.447-.233 1.51-.218 1.988.027z" fill="currentColor"/></svg></svg>