<svg version="1.0" xmlns="http://www.w3.org/2000/svg"
 width="720.000000pt" height="720.000000pt" viewBox="0 0 720.000000 720.000000"
 preserveAspectRatio="xMidYMid meet">
<g transform="translate(0.000000,720.000000) scale(0.100000,-0.100000)"
fill="#66DB79" stroke="none">
<path d="M3368 7165 c-1 -2 -39 -6 -83 -10 -44 -3 -91 -8 -105 -10 -14 -2 -47
-6 -75 -9 -27 -4 -61 -8 -75 -11 -52 -10 -96 -17 -115 -20 -50 -8 -211 -47
-320 -79 -646 -186 -1273 -585 -1698 -1081 -33 -38 -63 -72 -67 -75 -7 -6 -83
-105 -154 -200 -228 -308 -454 -782 -547 -1144 -12 -45 -23 -88 -25 -96 -11
-43 -52 -241 -58 -280 -3 -25 -9 -65 -12 -90 -3 -25 -8 -56 -10 -70 -12 -79
-19 -221 -19 -415 0 -264 12 -424 46 -610 6 -33 13 -71 15 -85 17 -118 112
-448 176 -610 46 -119 59 -147 126 -285 54 -109 90 -174 197 -353 159 -266
488 -634 772 -862 88 -71 122 -96 218 -162 298 -204 580 -345 910 -453 88 -29
171 -55 185 -58 l25 -6 0 2582 c0 1420 3 2603 6 2628 18 114 108 228 216 270
58 23 59 23 658 24 330 1 620 -3 644 -7 25 -4 65 -18 90 -30 35 -16 373 -348
1434 -1409 763 -763 1387 -1386 1387 -1384 0 1 9 45 19 96 20 97 25 128 37
214 3 28 8 58 9 67 26 137 26 682 1 849 -3 13 -7 47 -11 74 -13 102 -16 122
-31 195 -30 149 -108 438 -142 520 -6 14 -32 79 -58 145 -130 330 -354 698
-594 979 -506 591 -1191 1007 -1935 1175 -124 28 -146 32 -240 46 -22 4 -51 8
-65 10 -14 3 -52 7 -85 10 -33 4 -73 9 -90 12 -34 6 -551 13 -557 8z"/>
<path d="M4524 2866 c-80 -27 -154 -84 -198 -154 -51 -83 -50 -44 -51 -1405 0
-698 3 -1271 6 -1273 8 -5 230 49 357 86 491 146 954 404 1346 750 108 95 354
351 363 378 3 7 -46 59 -482 507 -145 149 -300 308 -345 355 -216 224 -610
628 -650 667 -66 65 -138 96 -230 99 -43 2 -92 -3 -116 -10z"/>
</g>
</svg>
