<svg viewBox="0 0 2000 512" xmlns="http://www.w3.org/2000/svg" xmlns:xlink="http://www.w3.org/1999/xlink"><style>:root&gt;svg{display:none}:root&gt;svg:target{display:block}</style><svg viewBox="0 0 32 21" fill="none" id="behance" xmlns="http://www.w3.org/2000/svg"><path d="M12.889 8.989c1.767-.845 2.689-2.122 2.689-4.111C15.578.956 12.656 0 9.283 0H0v19.689h9.544c3.578 0 6.94-1.717 6.94-5.717 0-2.472-1.173-4.3-3.595-4.983zM4.328 3.36h4.06c1.562 0 2.968.439 2.968 2.25 0 1.672-1.095 2.345-2.64 2.345H4.329V3.36zm4.628 12.983H4.328v-5.422h4.716c1.906 0 3.112.795 3.112 2.811 0 1.99-1.44 2.611-3.2 2.611zM28.872 2.972H20.89V1.033h7.983v1.94zM32 12.767c0-4.217-2.467-7.734-6.939-7.734-4.344 0-7.294 3.267-7.294 7.545 0 4.439 2.794 7.483 7.294 7.483 3.406 0 5.611-1.533 6.672-4.794h-3.455c-.372 1.216-1.906 1.86-3.095 1.86-2.294 0-3.5-1.344-3.5-3.627h10.284c.016-.233.033-.483.033-.733zm-10.311-1.734c.128-1.872 1.372-3.044 3.25-3.044 1.967 0 2.955 1.155 3.122 3.044H21.69z" fill="currentColor"/></svg><svg viewBox="0 0 32 32" fill="none" id="codepen" xmlns="http://www.w3.org/2000/svg"><path d="M31.393 9.981L16.768.231c-.5-.307-1.032-.31-1.536 0L.607 9.981c-.375.25-.607.697-.607 1.143v9.75c0 .447.232.893.607 1.143l14.625 9.751c.5.308 1.032.31 1.536 0l14.625-9.751c.375-.25.607-.696.607-1.143v-9.75c0-.446-.232-.893-.607-1.143zM17.375 3.946l10.768 7.178-4.804 3.214-5.964-3.982v-6.41zm-2.75 0v6.41l-5.964 3.982-4.804-3.214 10.768-7.178zM2.75 13.696l3.446 2.303-3.446 2.304v-4.607zm11.875 14.357L3.857 20.874l4.804-3.214 5.964 3.982v6.41zM16 19.249L11.143 16 16 12.75 20.857 16 16 19.25zm1.375 8.804v-6.41l5.964-3.983 4.804 3.214-10.768 7.179zm11.875-9.75l-3.447-2.304 3.447-2.303v4.607z" fill="currentColor"/></svg><svg viewBox="0 0 42 32" fill="none" id="email" xmlns="http://www.w3.org/2000/svg"><path d="M3.938 0a3.939 3.939 0 00-2.363 7.088l17.85 13.387a2.633 2.633 0 003.15 0l17.85-13.388A3.939 3.939 0 0038.063 0H3.937zM0 9.188V26.25a5.255 5.255 0 005.25 5.25h31.5A5.255 5.255 0 0042 26.25V9.187L24.15 22.575a5.242 5.242 0 01-6.3 0L0 9.188z" fill="currentColor"/></svg><svg fill="none" viewBox="0 0 42 42" id="icon-ai" xmlns="http://www.w3.org/2000/svg"><path d="M20.31 32.31h-4.188a2.416 2.416 0 01-2.275 1.616 2.423 2.423 0 110-4.846c1.053 0 1.941.676 2.275 1.615h4.187v-14.54h-5.346l-1.63-3.26c-.098.011-.193.029-.294.029a2.423 2.423 0 112.424-2.423 2.41 2.41 0 01-.681 1.678l1.18 2.36h4.347V.739c-4.028-2.234-9.151 1.039-10.574 4.05-.945.566-3.4 2.077-3.578 5.074-2.1 1.591-3.272 3.28-3.134 8.53-.855.922-1.765 2.048-2.023 3.418h4.918a2.415 2.415 0 012.274-1.616 2.423 2.423 0 110 4.847 2.415 2.415 0 01-2.274-1.616H1.02c.184.886.656 1.852 1.566 2.915-.783 3.013.744 5.873 2.884 7.771.703 2.658 3.942 5.396 6.664 5.598 1.761 2.856 5.858 2.74 8.175 1.126v-8.524zm21.001-8.603c0-3.902-2.124-6.123-2.124-6.123.687-5.751-.729-8.66-4.853-11.122h-5.947v2.572a2.416 2.416 0 011.616 2.274 2.423 2.423 0 11-4.847 0c0-1.053.676-1.94 1.615-2.274V4.846h6.177c-2.45-3.333-7.516-6.153-11.023-4.153V21.81h6.271l2.644-1.322c-.012-.098-.03-.193-.03-.294a2.423 2.423 0 112.424 2.423 2.41 2.41 0 01-1.679-.68l-2.977 1.488h-6.653V40.9c1.766 1.282 4.552 1.455 6.462.46v-7.582a2.415 2.415 0 01-1.616-2.274 2.423 2.423 0 114.847 0 2.415 2.415 0 01-1.615 2.274v6.061c.025-.044.057-.084.08-.13 2.715-.202 6.253-2.827 6.955-5.485 1.188-2.294 3.369-4.879 2.585-7.884 0 0 1.688-.339 1.688-2.633z" fill="currentColor"/></svg><svg viewBox="0 0 628 338" fill="none" id="icon-arrow-up" xmlns="http://www.w3.org/2000/svg"><path fill-rule="evenodd" clip-rule="evenodd" d="M296.921 7.071c9.432-9.428 24.726-9.428 34.158 0l289.847 289.715c9.432 9.428 9.432 24.714 0 34.143-9.433 9.428-24.726 9.428-34.159 0L314 58.286 41.233 330.929c-9.432 9.428-24.726 9.428-34.158 0-9.433-9.429-9.433-24.715 0-34.143L296.92 7.071z" fill="currentColor"/></svg><svg fill="none" viewBox="0 0 16 16" id="icon-award" xmlns="http://www.w3.org/2000/svg"><path d="M9.669.864L8 0 6.331.864l-1.858.282-.842 1.68-1.337 1.32L2.6 6l-.306 1.854 1.337 1.32.842 1.68 1.858.282L8 12l1.669-.864 1.858-.282.842-1.68 1.337-1.32L13.4 6l.306-1.854-1.337-1.32-.842-1.68L9.669.864zm1.196 1.193l.684 1.365 1.086 1.072L12.387 6l.248 1.506-1.086 1.072-.684 1.365-1.51.229L8 10.874l-1.355-.702-1.51-.229-.684-1.365-1.086-1.072L3.614 6l-.25-1.506 1.087-1.072.684-1.365 1.51-.229L8 1.126l1.356.702 1.509.229z" fill="currentColor"/><path d="M4 11.794V16l4-1 4 1v-4.206l-2.018.306L8 13.126 6.018 12.1 4 11.794z" fill="currentColor"/></svg><svg viewBox="0 0 56 46" fill="none" id="icon-box" xmlns="http://www.w3.org/2000/svg"><path fill-rule="evenodd" clip-rule="evenodd" d="M16.717 2.317c-6.129 1.329-11 2.437-11.209 2.55-.203.109-.455.32-.56.468-.299.42-4.95 13.317-4.948 13.72.002.49.408 1.163.861 1.43.372.218.516.221 9.6.251 10.014.033 9.777.046 10.339-.552.127-.135 1.636-3.262 3.354-6.948 1.717-3.685 3.201-6.855 3.298-7.043l.177-.341 3.283 7.044c1.806 3.875 3.387 7.155 3.514 7.29.559.596.326.583 10.336.55 9.084-.03 9.228-.033 9.6-.252.455-.267.859-.939.861-1.432.003-.438-4.688-13.4-4.985-13.779a1.917 1.917 0 00-.527-.43C49.44 4.703 41.043 2.853 27.72 0c-.09-.019-5.04 1.024-11.003 2.317zm9.662 17.068c-.638 1.379-1.32 2.75-1.513 3.047-.741 1.137-1.912 2.065-3.217 2.551l-.671.25-8.198.056-8.197.055-.032 6.904c-.018 3.796-.003 7.155.034 7.464.075.642.393 1.177.86 1.448.356.207 21.595 4.84 22.182 4.84.602 0 21.789-4.627 22.146-4.836.18-.105.437-.353.571-.552l.243-.36V25.297l-8.17-.032-8.172-.03-.67-.251c-1.285-.48-2.49-1.436-3.218-2.552-.194-.297-.874-1.668-1.513-3.047-.638-1.38-1.193-2.508-1.232-2.508-.04 0-.595 1.128-1.233 2.508z" fill="currentColor"/></svg><svg viewBox="0 0 119 123" fill="none" id="icon-circle" xmlns="http://www.w3.org/2000/svg"><path fill-rule="evenodd" clip-rule="evenodd" d="M119 61.5c0 33.128-25.822 61.5-59.5 61.5S0 94.628 0 61.5 25.822 0 59.5 0 119 28.372 119 61.5zm-59.5 41.702c21.961 0 39.765-18.67 39.765-41.702 0-23.032-17.804-41.702-39.765-41.702-21.961 0-39.765 18.67-39.765 41.702 0 23.031 17.804 41.702 39.765 41.702z" fill="currentColor"/></svg><svg viewBox="0 0 5 5" fill="none" id="icon-close" xmlns="http://www.w3.org/2000/svg"><path d="M.646.646a.5.5 0 01.708 0L2.5 1.793 3.646.646a.5.5 0 11.708.708L3.207 2.5l1.147 1.146a.5.5 0 11-.708.708L2.5 3.207 1.354 4.354a.5.5 0 11-.708-.708L1.793 2.5.646 1.354a.5.5 0 010-.708z" fill="#fff"/></svg><svg fill="none" viewBox="0 0 42 42" id="icon-code" xmlns="http://www.w3.org/2000/svg"><path d="M36.5 10.003v.497H26V0h.497a1.97 1.97 0 011.392.577l8.034 8.034c.37.37.577.87.577 1.392zm-11.156 3.122a1.975 1.975 0 01-1.969-1.969V0H6.969A1.969 1.969 0 005 1.969V40.03C5 41.12 5.881 42 6.969 42H34.53a1.969 1.969 0 001.969-1.969V13.125H25.344zM15.107 32.854a.44.44 0 01-.48.111.444.444 0 01-.146-.09l-5.321-4.99a.443.443 0 010-.646l5.32-4.988a.442.442 0 01.627.02l1.606 1.713a.443.443 0 01-.03.636l-3.345 2.942 3.344 2.943a.442.442 0 01.03.636l-1.605 1.713zm4.207 4.14l-2.252-.653a.443.443 0 01-.301-.549l5.04-17.36a.443.443 0 01.549-.302l2.251.654a.442.442 0 01.302.549l-5.04 17.36a.444.444 0 01-.549.302zm13.19-9.108l-5.32 4.988a.445.445 0 01-.627-.02l-1.606-1.713a.444.444 0 01.03-.636l3.345-2.942-3.344-2.943a.445.445 0 01-.03-.636l1.605-1.713a.444.444 0 01.627-.02l5.32 4.988a.443.443 0 010 .647z" fill="currentColor"/></svg><svg viewBox="0 0 640 512" id="icon-console" xmlns="http://www.w3.org/2000/svg"><path d="M257.981 272.971L63.638 467.314c-9.373 9.373-24.569 9.373-33.941 0L7.029 444.647c-9.357-9.357-9.375-24.522-.04-33.901L161.011 256 6.99 101.255c-9.335-9.379-9.317-24.544.04-33.901l22.667-22.667c9.373-9.373 24.569-9.373 33.941 0L257.981 239.03c9.373 9.372 9.373 24.568 0 33.941zM640 456v-32c0-13.255-10.745-24-24-24H312c-13.255 0-24 10.745-24 24v32c0 13.255 10.745 24 24 24h304c13.255 0 24-10.745 24-24z" fill="currentColor"/></svg><svg viewBox="0 0 50 50" id="icon-csharp" xmlns="http://www.w3.org/2000/svg"><path d="M25 2c-.715 0-1.43.18-2.066.54L6.09 12.003A4.066 4.066 0 004 15.535v18.93c0 1.453.8 2.808 2.09 3.531l16.844 9.465c.636.36 1.351.539 2.066.539.715 0 1.43-.18 2.066-.54L43.91 38A4.077 4.077 0 0046 34.465v-18.93c0-1.453-.8-2.808-2.09-3.531L27.066 2.539A4.206 4.206 0 0025 2zm0 11c3.781 0 7.277 1.754 9.543 4.738l-4.383 2.54A6.993 6.993 0 0025 18c-3.86 0-7 3.14-7 7s3.14 7 7 7a6.993 6.993 0 005.16-2.277l4.383 2.539A11.933 11.933 0 0125 37c-6.617 0-12-5.383-12-12s5.383-12 12-12zm10 7h2v2h2v-2h2v2h2v2h-2v2h2v2h-2v2h-2v-2h-2v2h-2v-2h-2v-2h2v-2h-2v-2h2zm2 4v2h2v-2z" fill="currentColor"/></svg><svg fill="none" viewBox="0 0 42 42" id="icon-figma" xmlns="http://www.w3.org/2000/svg"><path d="M13.997 0a6.997 6.997 0 000 13.993A7.01 7.01 0 007 21a6.997 6.997 0 006.997 6.997A6.999 6.999 0 007 35.003a6.998 6.998 0 0013.993 0v-21H28a6.996 6.996 0 10-.309 13.99 6.996 6.996 0 00.312-13.99A6.997 6.997 0 0035 7.007C35 3.145 31.867 0 28.003 0H13.997z" fill="currentColor"/></svg><svg viewBox="0 0 50 50" id="icon-fullscreen" xmlns="http://www.w3.org/2000/svg"><path d="M5 6v11c-.012.723.367 1.39.992 1.754a1.982 1.982 0 002.016 0A1.988 1.988 0 009 17v-4.172l6.586 6.586c.5.523 1.246.734 1.95.55a2.006 2.006 0 001.429-1.429 1.997 1.997 0 00-.55-1.95L11.827 10H16a1.988 1.988 0 001.754-.992 1.982 1.982 0 000-2.016A1.988 1.988 0 0016 6zm27 0a1.988 1.988 0 00-1.754.992 1.982 1.982 0 000 2.016A1.988 1.988 0 0032 10h4.172l-6.586 6.586a1.997 1.997 0 00-.55 1.95c.183.698.73 1.245 1.429 1.429a1.997 1.997 0 001.95-.55L39 12.827V17c-.012.723.367 1.39.992 1.754a1.982 1.982 0 002.016 0A1.988 1.988 0 0043 17V6zM16.96 29.98a2.01 2.01 0 00-1.374.606L9 37.172V33a2 2 0 10-4 0v11h11a1.988 1.988 0 001.754-.992 1.982 1.982 0 000-2.016A1.988 1.988 0 0016 40h-4.172l6.586-6.586c.59-.574.77-1.453.45-2.215a2.008 2.008 0 00-1.903-1.219zm14.02 0c-.816 0-1.546.497-1.851 1.25a1.993 1.993 0 00.457 2.184L36.172 40H32a1.988 1.988 0 00-1.754.992 1.982 1.982 0 000 2.016A1.988 1.988 0 0032 44h11V33a2 2 0 10-4 0v4.172l-6.586-6.586a2.007 2.007 0 00-1.434-.606z" fill="#fff"/></svg><svg fill="none" viewBox="0 0 42 42" id="icon-git" xmlns="http://www.w3.org/2000/svg"><path d="M9.563 8.531a1.964 1.964 0 001.968-1.969 1.964 1.964 0 00-1.969-1.968 1.964 1.964 0 00-1.968 1.968c0 1.092.877 1.97 1.968 1.97zm6.562-1.969a6.55 6.55 0 01-3.938 6.013v7.203a10.44 10.44 0 015.25-1.403h7.875a5.255 5.255 0 005.25-5.25v-.55a6.55 6.55 0 01-3.937-6.012A6.56 6.56 0 0133.188 0a6.56 6.56 0 016.562 6.563 6.55 6.55 0 01-3.938 6.012v.55c0 5.8-4.7 10.5-10.5 10.5h-7.875a5.255 5.255 0 00-5.25 5.25v.55a6.55 6.55 0 013.938 6.012A6.56 6.56 0 019.562 42 6.56 6.56 0 013 35.437a6.55 6.55 0 013.938-6.012v-16.85A6.55 6.55 0 013 6.563 6.56 6.56 0 019.563 0a6.56 6.56 0 016.562 6.563zm19.031 0a1.964 1.964 0 00-1.968-1.968 1.964 1.964 0 00-1.97 1.968c0 1.092.878 1.97 1.97 1.97a1.964 1.964 0 001.968-1.97zM9.563 37.407a1.964 1.964 0 001.968-1.968 1.964 1.964 0 00-1.969-1.97 1.964 1.964 0 00-1.968 1.97c0 1.09.877 1.968 1.968 1.968z" fill="currentColor"/></svg><svg fill="none" viewBox="0 0 42 42" id="icon-google" xmlns="http://www.w3.org/2000/svg"><path d="M21.003 42C9.423 42 0 32.58 0 21S9.423 0 21.003 0A20.959 20.959 0 0135.15 5.475l.706.645-6.927 6.926-.642-.549a11.21 11.21 0 00-7.283-2.7C14.826 9.797 9.797 14.823 9.797 21s5.03 11.203 11.206 11.203c4.455 0 7.975-2.276 9.634-6.153H20.09v-9.455l20.59.029.154.724c1.073 5.097.214 12.593-4.138 17.958C33.094 39.745 27.816 42 21.004 42z" fill="currentColor"/></svg><svg fill="none" viewBox="0 0 42 42" id="icon-gsap" xmlns="http://www.w3.org/2000/svg"><path d="M21.383 17.447a.282.282 0 01-.282.272H18.2a.348.348 0 01-.35-.342c0-.846-.292-1.259-.892-1.259-.6 0-.986.368-.997 1.012-.013.717.393 1.369 1.547 2.488 1.52 1.426 2.13 2.69 2.1 4.359-.047 2.7-1.883 4.445-4.677 4.445-1.426 0-2.516-.381-3.24-1.134-.736-.764-1.074-1.886-1.003-3.334a.282.282 0 01.282-.272h3.002a.283.283 0 01.266.2.23.23 0 01.005.104c-.033.523.058.913.264 1.129.131.14.315.21.544.21.554 0 .88-.391.891-1.074.01-.59-.176-1.107-1.193-2.154-1.313-1.283-2.49-2.608-2.454-4.693.021-1.209.501-2.315 1.352-3.114.9-.844 2.13-1.29 3.558-1.29 1.43.01 2.515.418 3.223 1.213.67.753.992 1.841.957 3.234h-.001zm8.997 10.467l.018-14.36a.271.271 0 00-.272-.273h-4.492c-.15 0-.217.13-.26.216l-6.504 14.33v.002l-.003.003c-.072.177.065.366.256.366h3.14c.17 0 .282-.052.337-.159l.623-1.498c.077-.2.091-.219.31-.219h3c.208 0 .212.004.21.208l-.068 1.393a.27.27 0 00.271.275h3.172a.27.27 0 00.208-.094.235.235 0 00.053-.19zm-5.558-4.794a.84.84 0 01-.07-.003.075.075 0 01-.056-.031.077.077 0 01-.012-.063c.006-.02.015-.049.028-.083l2.25-5.567a1.57 1.57 0 01.07-.16c.036-.076.08-.08.094-.025.012.046-.258 5.715-.258 5.715-.021.212-.03.221-.24.239l-1.804-.021h-.004l.002-.001zm11.956-9.84h-2.384c-.126 0-.268.068-.3.218l-3.32 14.409a.217.217 0 00.046.187.294.294 0 00.224.104h2.981c.16 0 .27-.08.3-.215l.362-1.634c.025-.127-.019-.226-.133-.285a30.35 30.35 0 01-.16-.084l-.517-.269-.514-.268-.2-.103a.095.095 0 01-.052-.088.103.103 0 01.103-.1l1.633.008a7.82 7.82 0 001.458-.12c3.383-.625 5.629-3.334 5.694-7.02.055-3.147-1.7-4.74-5.218-4.74h-.003zm-.811 8.575h-.064c-.144 0-.169-.015-.173-.02-.002-.004.942-4.15.942-4.156.025-.12.024-.189-.05-.23-.095-.052-1.474-.779-1.474-.779a.098.098 0 01-.052-.088.101.101 0 01.102-.099h2.18c.678.02 1.057.628 1.039 1.665-.032 1.794-.885 3.644-2.45 3.707z" fill="currentColor"/><path d="M12.24 20.203v.007l-.552 2.398c-.03.136-.166.235-.322.235h-.668a.112.112 0 00-.107.08c-.616 2.09-1.45 3.526-2.55 4.388-.937.734-2.092 1.076-3.635 1.076-1.386 0-2.32-.445-3.113-1.326C.245 25.9-.187 23.994.075 21.701c.473-4.307 2.706-8.652 7.007-8.652 1.308-.011 2.335.392 3.05 1.198.756.852 1.14 2.135 1.141 3.815a.283.283 0 01-.282.276H7.84a.216.216 0 01-.21-.211c-.025-1.162-.37-1.727-1.054-1.727-1.208 0-1.92 1.64-2.299 2.548a9.564 9.564 0 00-.744 4.023c.026.64.128 1.538.736 1.911.538.33 1.306.111 1.771-.254.465-.366.839-1 .996-1.576.022-.08.024-.143.003-.17-.022-.03-.083-.036-.13-.036h-.81a.295.295 0 01-.225-.104.216.216 0 01-.044-.186l.553-2.403a.313.313 0 01.276-.232v-.006h5.31c.013 0 .026 0 .037.002.138.018.235.146.233.286h.001z" fill="currentColor"/></svg><svg fill="none" viewBox="0 0 42 42" id="icon-gulp" xmlns="http://www.w3.org/2000/svg"><path d="M29.416 0a.196.196 0 00-.131.047l-5.201 6.177-1.061 3.647a67.807 67.807 0 00-2.229-.033c-5.405 0-9.794.573-9.794 1.283 0 1.694 19.586 1.694 19.586 0 0-.525-2.345-.969-5.726-1.179l.84-3.002 4.864-5.851.009-.009c.109-.113-.104-.453-.452-.752-.26-.224-.534-.334-.705-.328zm-6.792 11.307l-.02.057c-.008.007-.008.016-.008.025 0 .105.424.191.941.191.517 0 .943-.086.943-.191l.017-.066c.136.05.21.105.21.17 0 .17-.524.308-1.178.3-.636 0-1.162-.128-1.162-.297 0-.073.104-.14.257-.19zm7.853.481c-2.592 1.382-16.747 1.391-19.349.02l1.152 10.125c.5-1.615 1.764-3.794 3.39-4.455.534-.218 1.075-.217 1.583.074.442.242.814.75.856.952.102.525-.168.732-.38.732-.255 0-.45-.369-.577-.587-.347-.59-.873-.615-1.433-.227-.585.403-1.093 1.081-1.449 1.67-.432.71-.797 1.493-1.017 2.275-.127.453-.244 1.177-.05 1.605.086.178.212.29.417.29.424 0 1.04-.532 1.337-.815.38-.362.872-.928 1.058-1.29l.443-1.25c.22-.549.837-.452.837 0 0 .823-.312 1.098-.845 2.8a279.861 279.861 0 00-.646 2.084c-.059.225-.288.604-.533.604-.102 0-.177-.034-.219-.098-.085-.114-.076-.425-.068-.506.017-.258.533-1.792.618-2.035-.17.178-.347.357-.542.534-.457.411-1.193.951-1.82.951a1.07 1.07 0 01-.651-.194l.642 6.423c.17.403 3.322 1.38 7.473 1.38 4.16 0 7.31-.984 7.47-1.38l.925-7.632c-.483.42-1.041.938-1.66 1.195-.458.186-1.474.305-1.474-.462 0-.42.772-1.193 1.22-1.733.119-.138.396-.476.396-.654 0-.234-.507-.18-.99.2-.271.218-.527.51-.738.785a6.377 6.377 0 00-.72 1.249c-.524 1.145-.346.694-.77 1.775-.424 1.073-.355.951-.44 1.129a.79.79 0 01-.34.364.532.532 0 01-.516-.025c-.076-.049-.112-.154-.112-.298 0-.073.01-.146.027-.219.127-.493.661-1.46 1.271-2.767.136-.298.084-.21.066-.186-.525.485-.924.719-1.22.848-.49.21-1.101.21-1.227-.331-.009-.032-.008-.066-.017-.098-1 .742-2.058.943-1.692-.654-.39.662-1.069 1.203-1.9 1.203-.348 0-.602-.112-.728-.41-.195-.444.11-1.204.388-1.922.145-.363.342-.8.605-1.307.136-.275.354-.437.642-.364.05.017.095.034.137.058.22.145.135.36.025.58-.322.604-.602 1.048-.788 1.678-.076.266-.17.727.126.727.203 0 .397-.065.585-.194.39-.274.703-.685.94-1.088.17-.29.374-.67.476-.993a2.73 2.73 0 01.154-.388c.093-.201.219-.41.44-.41.11 0 .202.04.27.12.145.178.113.36.036.555-.17.453-.398.857-.585 1.348-.11.283-.23.645-.23.944 0 .274.314.209.577.095.203-.088.406-.223.577-.36.102-.395.075-.308 2.237-5.505.11-.266.314-.38.517-.38.102 0 .185.034.27.09.144.105.147.329.088.498-.059.154-.053.106-.383.848-.441.975-.728 1.68-1.118 2.575-.161.371-.652 1.525-.736 1.8-.05.177-.111.467.085.467.458 0 1.636-1.057 1.958-1.372.016-.024.043-.033.076-.05.05-.154.1-.297.142-.443.12-.306.23-.664.452-.913.067-.081.142-.128.226-.128.237 0 .356.095.356.322 0 .088-.058.412-.093.5.119-.12.244-.24.38-.36 1.271-1.122 2.177-.55 2.177.016 0 .597-.753 1.426-1.168 1.887-.136.154-.415.436-.424.517 0 .105.076.147.186.147.17 0 .542-.283.678-.38.425-.315.998-.798 1.406-1.137l1.255-11.039zM13.7 32.244l1.264 2.05.492 6.407c0 .718 2.397 1.299 5.346 1.299 2.948 0 5.345-.58 5.345-1.299l.391-6.472 1.192-1.985c-3.355 1.348-10.538 1.396-14.03 0z" fill="currentColor"/></svg><svg fill="none" viewBox="0 0 42 42" id="icon-handshake" xmlns="http://www.w3.org/2000/svg"><path d="M22.416 9.001a5.27 5.27 0 00-3.607 1.292l-5.527 5.034c-.757.734-.796 1.554.21 2.533 1.902 1.852 5.184 1.227 7.178-.513l3.616-2.636 10.582 11.365V12.743h-6.894l-1.655-1.923c-1.006-1.17-2.447-1.785-3.903-1.819zm-7.989.838c-1.832.008-3.708.86-4.757 2.45H7.22v15.098h2.45l4.016 4.453a2.138 2.138 0 103.168-2.872l2.23 2.506c.608.68 1.563.815 2.381.492a2.125 2.125 0 00.76-3.359l1.35 1.455c.687.766 1.774.875 2.665.45a2.246 2.246 0 00.625-3.516s-.516-.652 1.403 1.397c.625.667 1.577.804 2.405.494a2.225 2.225 0 001.085-3.192l-7.753-8.105-1.91 1.475c-3.617 2.953-8.336 2.414-11.289-1.203-.798-1.251-.19-2.495.54-3.276l4.867-4.47a5.592 5.592 0 00-1.786-.277zm22.437 1.098v17.841H42V10.937h-5.136zM0 10.96v17.841h5.136v-17.84H0z" fill="currentColor"/></svg><svg viewBox="0 0 47 46" fill="none" id="icon-home" xmlns="http://www.w3.org/2000/svg"><path fill-rule="evenodd" clip-rule="evenodd" d="M21.97.105c-1.166.328-.843.029-11.21 10.382C5.377 15.864.853 20.442.707 20.66a4.221 4.221 0 00.535 5.325c.825.825 1.879 1.253 3.086 1.253h.611v7.194c0 4.87.032 7.349.099 7.672.34 1.64 1.667 3.123 3.303 3.688.597.206.64.208 4.983.208 4.283 0 4.385-.004 4.628-.186.137-.102.332-.297.434-.434.182-.243.187-.364.23-6.255l.046-6.007.273-.443c.34-.552 1.036-.993 1.694-1.075.254-.031 1.515-.044 2.802-.027l2.34.03.473.261c.45.25.741.547 1.02 1.043.104.185.135 1.3.171 6.225.045 5.884.05 6.005.231 6.248.102.137.297.332.434.434.243.182.345.186 4.629.186 4.343 0 4.385-.002 4.982-.208 1.637-.565 2.964-2.047 3.304-3.688.066-.323.098-2.801.098-7.672v-7.194h.611c2.163 0 3.91-1.466 4.266-3.577.14-.834.004-1.718-.39-2.542-.257-.54-1.04-1.347-10.054-10.374C30.169 5.36 25.579.832 25.345.68a5.933 5.933 0 00-.9-.457c-.625-.24-1.837-.299-2.476-.119z" fill="currentColor"/></svg><svg fill="none" viewBox="0 0 42 42" id="icon-idea" xmlns="http://www.w3.org/2000/svg"><path d="M25.278.005c-4.878.147-8.847 4.25-8.847 9.15 0 2.66 1.387 4.736 2.61 6.569.578.863 1.127 1.697 1.498 2.531h4.108v-7.837l-1.558-1.559a.912.912 0 111.29-1.29l1.18 1.18 1.181-1.18a.912.912 0 111.29 1.29l-1.557 1.559v7.837h4.097c.367-.827.916-1.658 1.494-2.514 1.23-1.843 2.624-3.93 2.624-6.614a9.07 9.07 0 00-2.77-6.554 8.997 8.997 0 00-6.64-2.568zm-4.286 20.076c0 .018.003.032.003.046v1.78a2.744 2.744 0 002.739 2.738h.253c.318.542.899.913 1.573.913a1.82 1.82 0 001.572-.913h.253a2.744 2.744 0 002.739-2.738V20.08h-9.132zm17.661 3.644a3.405 3.405 0 00-1.932.524l-8.537 5.26a3.574 3.574 0 011.027 2.5 3.594 3.594 0 01-4.418 3.494c-.699-.164-9.667-2.849-10.687-3.156a.913.913 0 11.524-1.747c3.983 1.195 10.095 3.013 10.587 3.13a1.768 1.768 0 002.168-1.722c0-.627-.328-1.19-.873-1.511-.264-.154-9.275-4.094-11.09-4.886a11.451 11.451 0 00-8.975-.085l-5.884 2.45c-.467.192-.563.613-.563 1.19v10.998c0 .502.41.913.913.913a.98.98 0 00.535-.175l3.18-2.336c1.623-1.19 3.784-1.451 5.684-.67l10.68 3.787a5.476 5.476 0 005.145-.799l14.367-10.887a3.433 3.433 0 00.956-4.667 3.435 3.435 0 00-2.807-1.605z" fill="currentColor"/></svg><svg fill="none" viewBox="0 0 42 42" id="icon-javascript" xmlns="http://www.w3.org/2000/svg"><path d="M39.336 0H2.668A2.669 2.669 0 000 2.668v36.664A2.669 2.669 0 002.668 42h36.664A2.668 2.668 0 0042 39.336V2.668A2.668 2.668 0 0039.336 0zM23 32.184C23 36.18 20.656 38 17.234 38c-3.093 0-5.324-2.074-6.234-4l3.145-1.902C14.75 33.172 15.672 34 17 34c1.27 0 2-.496 2-2.426V19h4v13.184zM31.676 38c-3.543 0-5.555-1.785-6.676-4l3-2c.816 1.336 1.707 2.613 3.59 2.613 1.582 0 2.41-.789 2.41-1.883 0-1.304-.86-1.769-2.598-2.53l-.953-.41c-2.754-1.173-4.586-2.642-4.586-5.75 0-2.86 2.184-5.04 5.59-5.04 2.426 0 4.168.844 5.426 3.055l-2.969 1.91c-.656-1.176-1.36-1.637-2.457-1.637-1.117 0-1.824.711-1.824 1.637 0 1.144.707 1.605 2.344 2.316l.953.41C36.172 28.079 38 29.497 38 32.684 38 36.117 35.3 38 31.676 38z" fill="currentColor"/></svg><svg viewBox="0 0 216 216" fill="none" id="icon-js" xmlns="http://www.w3.org/2000/svg"><path d="M201.88.48H14.14C6.6.48.48 6.6.48 14.14v187.72c0 7.54 6.12 13.66 13.66 13.66h187.72c7.54 0 13.66-6.12 13.66-13.64V14.14c0-7.54-6.12-13.66-13.64-13.66zm-83.64 164.78c0 20.46-12 29.78-29.52 29.78-15.84 0-27.26-10.62-31.92-20.48l16.1-9.74c3.1 5.5 7.82 9.74 14.62 9.74 6.5 0 10.24-2.54 10.24-12.42V97.76h20.48v67.5zm44.42 29.78c-18.14 0-28.44-9.14-34.18-20.48l15.36-10.24c4.18 6.84 8.74 13.38 18.38 13.38 8.1 0 12.34-4.04 12.34-9.64 0-6.68-4.4-9.06-13.3-12.96l-4.88-2.1c-14.1-6-23.48-13.52-23.48-29.44 0-14.64 11.18-25.8 28.62-25.8 12.42 0 21.34 4.32 27.78 15.64l-15.2 9.78c-3.36-6.02-6.96-8.38-12.58-8.38-5.72 0-9.34 3.64-9.34 8.38 0 5.86 3.62 8.22 12 11.86l4.88 2.1c16.62 7.1 25.98 14.36 25.98 30.68 0 17.58-13.82 27.22-32.38 27.22z" fill="currentColor"/></svg><svg fill="none" viewBox="0 0 16 16" id="icon-key-fill" xmlns="http://www.w3.org/2000/svg"><path d="M3.5 11.5a3.5 3.5 0 113.163-5H14L15.5 8 14 9.5l-1-1-1 1-1-1-1 1-1-1-1 1H6.663a3.5 3.5 0 01-3.163 2zM2.5 9a1 1 0 100-2 1 1 0 000 2z" fill="currentColor"/></svg><svg viewBox="0 0 204 204" fill="none" id="icon-link" xmlns="http://www.w3.org/2000/svg"><path d="M192.458.562c-.394.013-.787.048-1.177.105h-67.948a10.665 10.665 0 00-10.818 10.666 10.678 10.678 0 003.178 7.597 10.658 10.658 0 007.64 3.07h43.584L94.458 94.458a10.666 10.666 0 003.356 17.572 10.681 10.681 0 0011.728-2.488L182 37.083v43.584a10.669 10.669 0 1021.333 0V12.646a10.672 10.672 0 00-2.643-8.556 10.677 10.677 0 00-8.232-3.528zM40.667 16.667c-21.96 0-40 18.04-40 40v106.666c0 21.959 18.04 40 40 40h106.666c21.959 0 40-18.041 40-40v-50.666a10.67 10.67 0 00-6.549-9.992 10.661 10.661 0 00-11.714 2.351 10.674 10.674 0 00-3.07 7.641v50.666c0 10.383-8.284 18.667-18.667 18.667H40.667C30.284 182 22 173.716 22 163.333V56.667C22 46.284 30.284 38 40.666 38h50.667a10.669 10.669 0 100-21.333H40.667z" fill="#fff"/></svg><svg fill="none" viewBox="0 0 16 16" id="icon-patch-check-fill" xmlns="http://www.w3.org/2000/svg"><path d="M10.067.87a2.89 2.89 0 00-4.134 0l-.622.638-.89-.011a2.89 2.89 0 00-2.924 2.924l.01.89-.636.622a2.89 2.89 0 000 4.134l.637.622-.011.89a2.89 2.89 0 002.924 2.924l.89-.01.622.636a2.89 2.89 0 004.134 0l.622-.637.89.011a2.89 2.89 0 002.924-2.924l-.01-.89.636-.622a2.89 2.89 0 000-4.134l-.637-.622.011-.89a2.89 2.89 0 00-2.924-2.924l-.89.01-.622-.636zm.287 5.984l-3 3a.5.5 0 01-.708 0l-1.5-1.5a.5.5 0 11.708-.708L7 8.793l2.646-2.647a.5.5 0 01.708.708z" fill="currentColor"/></svg><svg fill="none" viewBox="0 0 42 42" id="icon-photoshop" xmlns="http://www.w3.org/2000/svg"><path d="M3.818 0A3.817 3.817 0 000 3.818v34.364A3.817 3.817 0 003.818 42h34.364A3.817 3.817 0 0042 38.182V3.818A3.817 3.817 0 0038.182 0H3.818zm3.818 11.44h7.596c3.759 0 6.331 2.571 6.331 6.368 0 3.733-2.666 6.29-6.477 6.29h-4.083v6.175H7.636V11.44zm3.367 2.819v7.047h3.33c2.402 0 3.81-1.253 3.81-3.498 0-2.308-1.372-3.55-3.799-3.55h-3.34zm18.029 1.446c3.392 0 5.522 1.502 5.757 4.098h-3.04c-.234-1.004-1.189-1.644-2.702-1.644-1.474 0-2.585.706-2.585 1.737 0 .81.679 1.305 2.115 1.63l2.517.574c2.728.613 3.993 1.789 3.993 3.889 0 2.743-2.52 4.571-6.082 4.571s-5.807-1.542-6.055-4.138h3.2c.312 1.057 1.315 1.685 2.934 1.685 1.63 0 2.767-.717 2.767-1.775 0-.81-.612-1.32-1.97-1.622l-2.531-.585c-2.742-.627-4.03-1.892-4.03-4.046 0-2.585 2.344-4.374 5.712-4.374z" fill="currentColor"/></svg><svg fill="none" viewBox="0 0 42 42" id="icon-sass" xmlns="http://www.w3.org/2000/svg"><path d="M36.145 23.095a8.641 8.641 0 00-3.806.885c-.39-.778-.784-1.463-.85-1.971-.078-.594-.168-.949-.074-1.657.093-.708.503-1.71.496-1.785-.006-.075-.091-.435-.938-.442-.847-.006-1.57.163-1.656.387a8.212 8.212 0 00-.35 1.251c-.149.768-1.69 3.506-2.566 4.938-.287-.559-.53-1.051-.58-1.44-.078-.595-.168-.95-.074-1.657.093-.709.503-1.71.496-1.785-.006-.075-.091-.435-.938-.442-.847-.006-1.57.163-1.657.386-.085.224-.176.746-.349 1.252-.174.505-2.223 5.072-2.76 6.256a36.726 36.726 0 01-.68 1.419v-.002l-.03.06c-.143.28-.228.437-.228.437l.002.006c-.114.207-.236.399-.296.399-.042 0-.127-.551.018-1.306.305-1.584 1.037-4.055 1.03-4.14-.003-.044.137-.474-.478-.7-.597-.218-.81.146-.865.147-.053 0-.093.128-.093.128s.666-2.778-1.27-2.778c-1.21 0-2.886 1.324-3.712 2.523a1151.905 1151.905 0 00-4.178 2.29l-.091-.098c-2.347-2.504-6.684-4.275-6.5-7.64.067-1.224.492-4.447 8.335-8.355 6.425-3.202 11.57-2.32 12.458-.368 1.27 2.79-2.75 7.975-9.421 8.722-2.543.285-3.88-.7-4.214-1.067-.35-.387-.403-.404-.534-.331-.213.118-.078.46 0 .662.2.519 1.017 1.439 2.411 1.895 1.226.403 4.21.624 7.821-.772 4.043-1.564 7.2-5.915 6.273-9.55-.944-3.7-7.075-4.915-12.879-2.853-3.453 1.227-7.192 3.153-9.88 5.667C.34 14.656-.17 17.259.04 18.346c.747 3.863 6.071 6.379 8.204 8.244l-.294.162c-1.07.529-5.128 2.653-6.143 4.898-1.152 2.546.183 4.372 1.067 4.619 2.739.761 5.549-.61 7.06-2.862 1.51-2.252 1.325-5.184.632-6.523-.009-.017-.019-.033-.027-.05.276-.164.558-.33.837-.493a57.24 57.24 0 011.542-.87c-.26.71-.45 1.562-.549 2.793-.116 1.445.477 3.313 1.252 4.048.34.324.752.331 1.012.331.902 0 1.314-.75 1.766-1.638.556-1.088 1.05-2.355 1.05-2.355s-.62 3.423 1.067 3.423c.614 0 1.232-.797 1.508-1.203v.007s.017-.026.048-.08c.064-.097.1-.16.1-.16l.003-.017c.247-.429.795-1.406 1.616-3.019 1.06-2.083 2.08-4.692 2.08-4.692s.094.638.404 1.693c.182.62.57 1.306.876 1.964-.246.342-.397.538-.397.538l.004.01a19.95 19.95 0 01-.649.818c-.837.998-1.835 2.137-1.968 2.466-.158.387-.12.673.184.901.221.168.617.194 1.03.166a4.701 4.701 0 001.544-.351 5.17 5.17 0 001.327-.698c.822-.604 1.317-1.469 1.27-2.613-.026-.631-.227-1.256-.482-1.847.075-.107.15-.215.224-.325 1.296-1.894 2.3-3.974 2.3-3.974s.095.638.405 1.692c.157.534.467 1.116.745 1.688-1.218.989-1.973 2.139-2.236 2.893-.485 1.395-.105 2.028.607 2.172.323.065.779-.083 1.122-.228a5.17 5.17 0 001.418-.73c.821-.603 1.611-1.449 1.563-2.594-.021-.52-.162-1.038-.354-1.535 1.032-.43 2.37-.67 4.072-.47 3.653.426 4.37 2.706 4.233 3.66-.137.956-.903 1.48-1.16 1.639-.255.158-.334.213-.312.33.031.172.15.165.368.128.3-.05 1.918-.776 1.987-2.538.088-2.233-2.056-4.69-5.852-4.67zM7.99 32.585c-1.21 1.32-2.9 1.819-3.626 1.399-.783-.454-.473-2.398 1.013-3.798.904-.853 2.073-1.64 2.848-2.124l.75-.451.081-.046v-.002l.187-.113c.54 1.995.017 3.75-1.253 5.135zm8.813-5.992c-.421 1.027-1.303 3.655-1.84 3.514-.461-.12-.742-2.119-.092-4.084.326-.99 1.024-2.173 1.435-2.632.66-.738 1.388-.98 1.564-.68.226.38-.802 3.238-1.067 3.882zm7.283 3.475c-.179.093-.343.152-.418.107-.057-.034.073-.157.073-.157s.911-.98 1.27-1.426c.209-.26.452-.568.715-.912l.003.102c-.003 1.174-1.137 1.967-1.643 2.286zm5.61-1.28c-.133-.094-.11-.401.327-1.355.172-.375.564-1.007 1.247-1.61.079.248.128.486.126.708-.01 1.477-1.063 2.029-1.7 2.258z" fill="currentColor"/></svg><svg fill="none" viewBox="0 0 16 16" id="icon-shield-fill-check" xmlns="http://www.w3.org/2000/svg"><path fill-rule="evenodd" clip-rule="evenodd" d="M8 0c-.69 0-1.843.265-2.928.56-1.11.3-2.229.655-2.887.87a1.54 1.54 0 00-1.044 1.262c-.596 4.477.787 7.795 2.465 9.99a11.777 11.777 0 002.517 2.453c.386.273.744.482 1.048.625.28.132.581.24.829.24s.548-.108.829-.24a7.159 7.159 0 001.048-.625 11.775 11.775 0 002.517-2.453c1.678-2.195 3.061-5.513 2.465-9.99a1.541 1.541 0 00-1.044-1.263 62.467 62.467 0 00-2.887-.87C9.843.266 8.69 0 8 0zm2.146 5.146a.5.5 0 01.708.708l-3 3a.5.5 0 01-.708 0l-1.5-1.5a.5.5 0 11.708-.708L7.5 7.793l2.646-2.647z" fill="currentColor"/></svg><svg viewBox="0 0 125 121" fill="none" id="icon-square" xmlns="http://www.w3.org/2000/svg"><path fill-rule="evenodd" clip-rule="evenodd" d="M30.493.321h59.76c16.663 0 31.434 13.314 32.101 30.653l2.247 58.405c.667 17.339-13.079 30.653-29.742 30.653H35.1c-16.662 0-31.433-13.314-32.1-30.653L.752 30.974C.084 13.634 13.83.32 30.493.32zm.758 19.701c-6.188 0-11.016 4.904-10.784 10.952l2.248 58.405c.232 6.048 5.438 10.951 11.626 10.951H94.1c6.189 0 11.017-4.903 10.784-10.95l-2.247-58.406c-.232-6.049-5.438-10.951-11.626-10.951h-59.76z" fill="currentColor"/></svg><svg fill="none" viewBox="0 0 42 42" id="icon-tailwind" xmlns="http://www.w3.org/2000/svg"><path fill-rule="evenodd" clip-rule="evenodd" d="M21 8c-5.6 0-9.1 2.8-10.5 8.4 2.1-2.8 4.55-3.85 7.35-3.15 1.598.399 2.74 1.559 4.003 2.841 2.059 2.09 4.442 4.509 9.647 4.509 5.6 0 9.1-2.8 10.5-8.4-2.1 2.8-4.55 3.85-7.35 3.15-1.598-.399-2.74-1.559-4.003-2.841C28.588 10.419 26.205 8 21 8zM10.5 20.6C4.9 20.6 1.4 23.4 0 29c2.1-2.8 4.55-3.85 7.35-3.15 1.598.4 2.74 1.559 4.003 2.841C13.412 30.781 15.795 33.2 21 33.2c5.6 0 9.1-2.8 10.5-8.4-2.1 2.8-4.55 3.85-7.35 3.15-1.598-.399-2.74-1.559-4.003-2.841-2.059-2.09-4.442-4.509-9.647-4.509z" fill="currentColor"/></svg><svg viewBox="0 0 16 16" fill="none" id="icon-theme" xmlns="http://www.w3.org/2000/svg"><path d="M8 11a3 3 0 110-6 3 3 0 010 6zm0 1a4 4 0 100-8 4 4 0 000 8zM8 0a.5.5 0 01.5.5v2a.5.5 0 01-1 0v-2A.5.5 0 018 0zm0 13a.5.5 0 01.5.5v2a.5.5 0 01-1 0v-2A.5.5 0 018 13zm8-5a.5.5 0 01-.5.5h-2a.5.5 0 010-1h2a.5.5 0 01.5.5zM3 8a.5.5 0 01-.5.5h-2a.5.5 0 010-1h2A.5.5 0 013 8zm10.657-5.657a.5.5 0 010 .707l-1.414 1.415a.5.5 0 11-.707-.708l1.414-1.414a.5.5 0 01.707 0zm-9.193 9.193a.5.5 0 010 .707L3.05 13.657a.5.5 0 01-.707-.707l1.414-1.414a.5.5 0 01.707 0zm9.193 2.121a.5.5 0 01-.707 0l-1.414-1.414a.5.5 0 01.707-.707l1.414 1.414a.5.5 0 010 .707zM4.464 4.465a.5.5 0 01-.707 0L2.343 3.05a.5.5 0 11.707-.707l1.414 1.414a.5.5 0 010 .708z" fill="currentColor"/></svg><svg viewBox="0 0 127 119" fill="none" id="icon-triangle" xmlns="http://www.w3.org/2000/svg"><path fill-rule="evenodd" clip-rule="evenodd" d="M63.267 26.064L23.145 98.661h80.244L63.267 26.064zM75.788 7.932c-5.565-10.07-19.477-10.07-25.042 0L2.226 95.724c-5.565 10.069 1.391 22.656 12.521 22.656h97.04c11.13 0 18.086-12.587 12.521-22.656L75.788 7.932z" fill="currentColor"/></svg><svg viewBox="0 0 56 46" fill="none" id="icon-uiux" xmlns="http://www.w3.org/2000/svg"><path fill-rule="evenodd" clip-rule="evenodd" d="M5.153.077c-1.272.189-2.732.987-3.6 1.97C.95 2.73.27 4.11.115 4.963.046 5.345 0 7.3 0 9.836v4.234h55.15l-.035-4.604-.034-4.604-.276-.713c-.4-1.033-.81-1.684-1.49-2.364C52.61 1.081 51.978.692 50.907.3L50.13.016 27.946.001C15.744-.007 5.488.027 5.153.077zm4.411 7.21c1.01.617.78 2.207-.375 2.589-.97.32-2.03-.63-1.812-1.625.084-.38.532-.947.853-1.077.393-.16.967-.11 1.334.114zm6.234-.006c1.374.837.43 3.015-1.125 2.596a1.4 1.4 0 01-.59-2.4c.162-.15.366-.3.455-.331.35-.128.932-.065 1.26.135zm6.181-.044c.675.349.95 1.334.558 2-.267.45-.982.773-1.503.677-.489-.09-1.051-.632-1.145-1.103-.234-1.168 1.032-2.122 2.09-1.574zm25.292.204c.839.804.545 2.12-.542 2.431-.222.064-3.185.105-7.505.105-5.807 0-7.204-.027-7.485-.147-1.113-.474-1.262-1.937-.261-2.55.335-.206.555-.211 7.903-.184l7.558.028.332.317zM0 28.696c0 7.845.038 11.93.115 12.357.063.352.308 1.041.544 1.532.718 1.497 1.929 2.546 3.649 3.164l.7.251H50.13l.7-.251c1.017-.365 1.774-.829 2.471-1.514.689-.677 1.096-1.317 1.505-2.368l.278-.713.03-12.088.03-12.089H0v11.719zm16.49-4.533c.173.103.41.384.527.627.197.406.214.67.214 3.479 0 3.337.014 3.426.66 4.16 1.203 1.372 3.477 1.03 4.254-.64.246-.53.253-.62.254-3.596 0-2.627.026-3.105.18-3.431.495-1.042 2.054-1.042 2.549 0 .154.326.18.8.178 3.431-.002 3.356-.072 3.91-.634 5.024-1.03 2.041-3.347 3.25-5.612 2.93-2.12-.301-4.013-1.96-4.54-3.977-.263-1.008-.287-6.952-.03-7.45.349-.674 1.335-.95 2-.557zm14.128-.067c.13.066 1.096.974 2.147 2.018l1.911 1.9 1.858-1.842c1.022-1.013 1.978-1.922 2.124-2.018.36-.239 1.058-.223 1.478.034.62.378.855 1.19.525 1.814-.085.16-.982 1.114-1.993 2.12-1.01 1.006-1.838 1.88-1.838 1.94 0 .06.827.933 1.838 1.94 1.011 1.006 1.908 1.96 1.993 2.12.33.623.096 1.435-.525 1.813-.42.257-1.118.273-1.478.035-.146-.097-1.102-1.005-2.123-2.017l-1.856-1.84-2.027 2.017-2.027 2.016h-.572c-.52 0-.608-.037-.99-.418-.37-.372-.417-.476-.417-.945 0-.308.073-.638.176-.793.097-.147.994-1.091 1.992-2.099l1.816-1.831-1.838-1.83c-1.01-1.006-1.907-1.96-1.992-2.12-.085-.16-.154-.517-.154-.794 0-.44.052-.554.418-.92.352-.353.489-.419.869-.419.247 0 .556.054.685.12z" fill="currentColor"/></svg><svg viewBox="0 0 448 512" id="icon-unity" xmlns="http://www.w3.org/2000/svg"><path d="M243.583 91.603l80.112 46.781c2.88 1.642 2.985 6.199 0 7.841l-95.192 55.629a8.747 8.747 0 01-8.954 0l-95.192-55.629c-2.932-1.589-2.984-6.252 0-7.841l80.06-46.781V0L0 119.417v238.835l78.384-45.775v-93.563c-.052-3.338 3.823-5.722 6.703-3.921l95.192 55.629a9.092 9.092 0 014.503 7.842v111.205c.052 3.338-3.823 5.722-6.703 3.92l-80.112-46.781-78.384 45.775L224 512l204.417-119.417-78.384-45.775-80.112 46.781c-2.828 1.749-6.807-.529-6.703-3.92V278.464c0-3.338 1.833-6.305 4.503-7.842l95.193-55.629c2.827-1.748 6.806.477 6.702 3.921v93.563L448 358.252V119.417L243.583 0v91.603z" fill="currentColor"/></svg><svg viewBox="0 0 41 46" fill="none" id="icon-user" xmlns="http://www.w3.org/2000/svg"><path fill-rule="evenodd" clip-rule="evenodd" d="M18.964.027c-2.893.356-5.316 1.537-7.328 3.573C9.85 5.408 8.82 7.337 8.294 9.86c-.22 1.06-.22 3.435 0 4.495.526 2.526 1.56 4.46 3.342 6.257 1.81 1.824 3.79 2.893 6.34 3.424 1.047.218 3.42.218 4.516 0 2.426-.484 4.436-1.56 6.239-3.342 1.81-1.79 2.889-3.788 3.42-6.339.22-1.06.22-3.434 0-4.495a13.08 13.08 0 00-1.903-4.584c-.566-.854-2.322-2.616-3.155-3.167C25.643 1.152 24.08.494 22.54.194c-.724-.141-2.944-.245-3.576-.167zm-3.572 27.056c-5.029.61-9.57 3.466-12.493 7.86C1.185 37.517.203 40.55.029 43.798c-.054.993-.043 1.11.135 1.46.129.252.312.44.548.56.352.18.49.181 19.51.181 19.022 0 19.159-.001 19.511-.181.236-.12.42-.308.549-.56.178-.35.189-.467.135-1.46-.238-4.431-1.927-8.316-4.999-11.496-2.91-3.014-6.673-4.852-10.777-5.267-1.364-.138-8-.104-9.25.047z" fill="currentColor"/></svg><svg fill="none" viewBox="0 0 42 42" id="icon-ux" xmlns="http://www.w3.org/2000/svg"><path fill-rule="evenodd" clip-rule="evenodd" d="M3.924 3.058c-.969.144-2.08.753-2.741 1.5C.723 5.08.205 6.13.088 6.78.035 7.071 0 8.56 0 10.49v3.225h42l-.027-3.506-.026-3.506-.21-.543c-.305-.787-.617-1.283-1.135-1.8-.536-.536-1.017-.833-1.832-1.131l-.593-.217-16.895-.011c-9.292-.006-17.103.02-17.358.057zm3.36 5.492c.77.47.594 1.68-.286 1.97-.738.245-1.546-.48-1.38-1.236.064-.29.405-.722.65-.82a1.24 1.24 0 011.016.086zm4.747-.005c1.047.638.328 2.296-.857 1.977a1.067 1.067 0 01-.449-1.827c.123-.115.279-.229.347-.253.266-.097.71-.05.96.103zm4.707-.034c.515.266.724 1.017.425 1.523-.203.344-.748.59-1.145.516-.372-.069-.8-.481-.872-.84-.178-.89.786-1.616 1.592-1.199zM36 8.667c.64.612.416 1.614-.412 1.851-.17.049-2.426.08-5.716.08-4.422 0-5.486-.02-5.7-.112-.847-.361-.961-1.475-.199-1.942.255-.157.423-.16 6.019-.14l5.756.021.252.242zM0 24.853c0 5.975.029 9.086.088 9.411.048.268.234.793.414 1.167.547 1.14 1.469 1.939 2.779 2.41l.533.19h34.363l.533-.19c.774-.279 1.35-.632 1.882-1.154.524-.515.834-1.003 1.146-1.803l.211-.543.023-9.206.022-9.206H0v8.924zm12.557-3.451c.133.078.313.292.403.477.15.31.162.51.162 2.649 0 2.542.01 2.61.502 3.17.917 1.043 2.649.782 3.24-.489.188-.403.193-.471.194-2.738 0-2.001.02-2.365.138-2.614.376-.793 1.563-.793 1.94 0 .118.249.137.61.136 2.614-.002 2.555-.055 2.978-.483 3.826-.785 1.554-2.549 2.475-4.274 2.23-1.614-.229-3.056-1.492-3.457-3.027-.2-.768-.219-5.295-.023-5.674.266-.514 1.016-.723 1.522-.424zm10.76-.051c.099.05.835.741 1.635 1.537l1.456 1.446 1.415-1.403c.778-.771 1.506-1.463 1.617-1.537.274-.181.806-.169 1.126.027.472.288.651.906.4 1.38-.065.123-.748.85-1.518 1.616-.77.766-1.4 1.43-1.4 1.477 0 .046.63.71 1.4 1.477.77.766 1.453 1.493 1.517 1.614.252.475.073 1.094-.399 1.382-.32.195-.852.208-1.126.026-.111-.074-.839-.765-1.616-1.536l-1.414-1.401-1.544 1.535-1.543 1.536h-.436c-.396 0-.463-.028-.753-.318-.283-.283-.319-.363-.319-.72 0-.235.056-.486.135-.604.073-.112.756-.83 1.517-1.598l1.383-1.395-1.4-1.393c-.77-.767-1.453-1.493-1.517-1.615-.065-.122-.118-.394-.118-.605 0-.335.04-.422.319-.7.268-.269.372-.32.661-.32.189 0 .424.042.522.092z" fill="currentColor"/></svg><svg fill="none" viewBox="0 0 42 42" id="icon-webpack" xmlns="http://www.w3.org/2000/svg"><path d="M38.705 32.37L21.683 42v-7.498l10.606-5.836 6.416 3.704zm1.166-1.054V11.18l-6.226 3.598v12.944l6.226 3.593zM3.166 32.37L20.188 42v-7.498L9.577 28.666l-6.41 3.704zM2 31.316V11.18l6.226 3.598v12.944L2 31.316zm.73-21.44L20.189 0v7.247L9.002 13.401l-.09.05-6.181-3.576zm36.41 0L21.684 0v7.247l11.187 6.149.089.05 6.181-3.57zM20.188 32.794L9.722 27.037V15.638l10.466 6.043v11.113zm1.495 0l10.467-5.752V15.638l-10.467 6.043v11.113zM10.43 14.322l10.506-5.775 10.505 5.775-10.505 6.064-10.506-6.064z" fill="currentColor"/></svg><svg fill="none" viewBox="0 0 42 42" id="icon-wordpress" xmlns="http://www.w3.org/2000/svg"><path d="M4.201 21c0 6.653 3.864 12.396 9.469 15.12L5.654 14.162A16.738 16.738 0 004.201 21zm28.143-.846c0-2.076-1.116-3.518-1.753-4.633-.854-1.395-1.655-2.559-1.655-3.94 0-1.538 1.544-2.982 3.193-2.982.075 0 .142.007.216.009A16.696 16.696 0 0021.001 4.2c-5.658 0-10.66 2.8-13.705 7.086.24.078.323.041.642.041 1.752 0 4.477-.21 4.477-.21.903-.06 1.014 1.273.104 1.382 0 0-.907.11-1.92.16l6.228 18.667L20.502 20.3l-2.733-7.61c-.904-.05-1.763-.16-1.763-.16-.905-.06-.8-1.444.103-1.382 0 0 2.78.21 4.428.21 1.759 0 4.477-.21 4.477-.21.904-.06 1.014 1.272.11 1.382 0 0-.914.11-1.924.16l6.185 18.49 1.68-5.593c.854-2.184 1.28-3.99 1.28-5.433zm-11.049 2.312l-5.04 14.65a16.66 16.66 0 004.746.684c1.954 0 3.831-.34 5.582-.952-.042-.075-.09-.15-.124-.231l-5.164-14.151zm14.45-9.532c.075.535.114 1.112.114 1.727 0 1.71-.322 3.624-1.28 6.024l-5.13 14.842A16.794 16.794 0 0037.8 21a16.8 16.8 0 00-2.055-8.066z" fill="currentColor"/><path d="M0 21c0 11.575 9.419 21 20.999 21C32.58 42 42 32.575 42 21S32.581 0 21 0 0 9.425 0 21zm2.095 0c0-10.42 8.477-18.899 18.904-18.899 10.426 0 18.906 8.479 18.906 18.899 0 10.42-8.48 18.9-18.905 18.9-10.424 0-18.905-8.48-18.905-18.9z" fill="currentColor"/></svg><svg viewBox="0 0 103 99" fill="none" id="icon-x" xmlns="http://www.w3.org/2000/svg"><path d="M3.508 19.652c-4.677-4.495-4.677-11.784 0-16.28s12.261-4.496 16.938 0l79.046 75.976c4.677 4.495 4.677 11.784 0 16.28s-12.261 4.496-16.938 0L3.508 19.652z" fill="currentColor"/><path d="M82.554 3.372c4.677-4.496 12.26-4.496 16.938 0 4.677 4.496 4.677 11.785 0 16.28L20.446 95.628c-4.677 4.496-12.26 4.496-16.938 0-4.677-4.496-4.677-11.785 0-16.28L82.554 3.371z" fill="currentColor"/></svg><svg viewBox="0 0 65 64" fill="none" id="logo" xmlns="http://www.w3.org/2000/svg"><path d="M38.337 41.596V64A32.022 32.022 0 0056.96 53.063L43.7 39.409c-1.94-2.011-5.361-.635-5.361 2.188z" fill="currentColor"/><path d="M32.271 0C14.461 0 0 14.465 0 32.282c0 14.96 10.193 27.555 23.983 31.189V17.253c0-1.73 1.41-3.14 3.139-3.14h9.91c.847 0 1.623.317 2.223.917L63.73 39.515a32.71 32.71 0 00.811-7.233C64.542 14.465 50.082 0 32.272 0z" fill="currentColor"/></svg><svg viewBox="0 0 3162 712" fill="none" id="logo-full" xmlns="http://www.w3.org/2000/svg"><path d="M422.094 458.845v246.727c81.95-15.328 153.533-59.333 205.369-120.644L481.335 434.122c-21.722-21.755-59.241-6.427-59.241 24.723z" fill="currentColor"/><path d="M355.447 0C158.964 0 0 159.211 0 356c0 165.144 112.065 303.589 264.117 344.133V190.361c0-19.283 15.304-34.611 34.557-34.611h109.103c9.38 0 17.772 3.461 24.19 10.383L701.515 436.1c5.924-25.711 8.886-52.411 8.886-80.1.494-196.789-158.964-356-354.954-356zm784.943 356h-29.62c-8.39 0-14.81 6.428-14.81 14.833v30.656C1064.37 373.306 1022.9 356 977.48 356c-98.242 0-177.724 79.606-177.724 178s79.482 178 177.724 178c45.42 0 86.89-17.305 118.48-45.489v30.656c0 8.405 6.42 14.833 14.81 14.833h29.62c8.4 0 14.81-6.428 14.81-14.833V370.833c0-8.405-6.91-14.833-14.81-14.833zM977.48 652.667c-65.659 0-118.482-52.906-118.482-118.667s52.823-118.667 118.482-118.667c65.66 0 118.48 52.906 118.48 118.667s-53.31 118.667-118.48 118.667zm580.07-233.873l-20.73-20.766c-5.93-5.934-15.31-5.934-20.74 0l-94.29 94.439-94.29-94.439c-5.93-5.934-15.31-5.934-20.74 0l-20.73 20.766c-5.93 5.934-5.93 15.328 0 20.767L1380.32 534l-94.29 94.439c-5.93 5.933-5.93 15.328 0 20.767l20.73 20.766c5.93 5.934 15.31 5.934 20.74 0l94.29-94.439 94.29 94.439c5.93 5.934 15.31 5.934 20.74 0l20.73-20.766c5.92-5.934 5.92-15.328 0-20.767L1463.75 534l94.29-94.439c5.43-5.933 5.43-15.328-.49-20.767zM2029.01 356h-29.62c-8.39 0-14.81 6.428-14.81 14.833V534c0 65.761-52.82 118.667-118.48 118.667S1747.62 599.761 1747.62 534V370.833c0-8.405-6.42-14.833-14.81-14.833h-29.63c-8.39 0-14.81 6.428-14.81 14.833V534c0 98.394 79.49 178 177.73 178s177.72-79.606 177.72-178V370.833c0-8.405-6.91-14.833-14.81-14.833zm192.54 123.611h-29.62c-8.4 0-14.82 6.428-14.82 14.833v202.723c0 8.405 6.42 14.833 14.82 14.833h29.62c8.39 0 14.81-6.428 14.81-14.833V494.444c0-8.405-6.92-14.833-14.81-14.833zm-14.81-64.278c16.35 0 29.62-13.282 29.62-29.666 0-16.385-13.27-29.667-29.62-29.667-16.36 0-29.63 13.282-29.63 29.667 0 16.384 13.27 29.666 29.63 29.666zM2739.91 356h-29.62c-8.4 0-14.81 6.428-14.81 14.833V534c0 65.761-52.83 118.667-118.49 118.667S2458.51 599.761 2458.51 534V370.833c0-8.405-6.42-14.833-14.81-14.833h-29.62c-8.39 0-14.81 6.428-14.81 14.833V534c0 98.394 79.48 178 177.72 178s177.73-79.606 177.73-178V370.833c0-8.405-6.91-14.833-14.81-14.833zm323.35 178l94.3-94.439c5.92-5.933 5.92-15.328 0-20.767l-20.74-20.766c-5.92-5.934-15.3-5.934-20.73 0l-94.29 94.439-94.3-94.439c-5.92-5.934-15.3-5.934-20.73 0l-20.74 20.766c-5.92 5.934-5.92 15.328 0 20.767l94.3 94.439-94.3 94.439c-5.92 5.933-5.92 15.328 0 20.767l20.74 20.766c5.92 5.934 15.3 5.934 20.73 0l94.3-94.439 94.29 94.439c5.92 5.934 15.3 5.934 20.73 0l20.74-20.766c5.92-5.934 5.92-15.328 0-20.767L3063.26 534z" fill="currentColor"/></svg><svg viewBox="0 0 42 42" fill="none" id="telegram" xmlns="http://www.w3.org/2000/svg"><path d="M21 0C9.402 0 0 9.402 0 21s9.402 21 21 21 21-9.402 21-21S32.598 0 21 0zm9.734 14.282c-.316 3.32-1.684 11.378-2.38 15.098-.294 1.573-.874 2.101-1.435 2.153-1.22.112-2.145-.806-3.326-1.58-1.849-1.212-2.893-1.966-4.687-3.149-2.073-1.366-.73-2.117.452-3.344.31-.322 5.683-5.209 5.787-5.652.013-.056.025-.263-.098-.372-.123-.108-.304-.071-.435-.042-.185.042-3.138 1.994-8.858 5.855-.838.575-1.597.856-2.277.841-.75-.016-2.192-.424-3.264-.772-1.316-.428-2.36-.654-2.27-1.38.048-.378.568-.765 1.563-1.16 6.121-2.667 10.204-4.426 12.246-5.275 5.832-2.426 7.044-2.848 7.834-2.861.174-.003.562.04.814.244a.885.885 0 01.299.569 3.7 3.7 0 01.035.827z" fill="currentColor"/></svg><svg viewBox="0 0 42 43" fill="none" id="verify" xmlns="http://www.w3.org/2000/svg"><path fill-rule="evenodd" clip-rule="evenodd" d="M19.644.227c-.377.128-.88.368-1.117.533-.238.165-1.246 1.148-2.24 2.185l-1.809 1.886H11.84c-2.922.001-3.653.08-4.522.488-.753.353-1.658 1.252-2.008 1.994-.403.855-.486 1.624-.487 4.537v2.639l-1.77 1.688C1.015 18.123.595 18.618.287 19.437c-.449 1.195-.367 2.496.23 3.68.117.229 1.128 1.341 2.258 2.481l2.048 2.066v2.57c.001 2.845.085 3.617.487 4.469.348.737 1.257 1.646 1.994 1.994.855.403 1.625.486 4.525.486h2.628l2.009 2.06c1.69 1.732 2.104 2.101 2.607 2.329.863.389 1.772.523 2.59.383 1.305-.223 1.655-.465 3.919-2.712l2.074-2.059h2.57c2.844-.001 3.617-.085 4.468-.487.737-.348 1.647-1.257 1.995-1.994.401-.852.485-1.624.486-4.468l.001-2.57 2.058-2.075c2.248-2.264 2.49-2.614 2.713-3.918.14-.819.006-1.727-.383-2.59-.227-.504-.597-.919-2.329-2.612l-2.059-2.014v-2.623c-.002-2.906-.08-3.638-.488-4.506-.353-.753-1.252-1.659-1.994-2.009-.851-.401-1.624-.486-4.467-.486l-2.571-.001-2.066-2.048C24.452 1.657 23.337.643 23.11.528c-1.151-.58-2.343-.684-3.467-.301zm7.309 15.413c.447.23.858.649 1.092 1.112.235.467.218 1.484-.033 1.967-.109.21-1.836 2.013-3.838 4.006-3.263 3.25-3.687 3.637-4.103 3.746-.551.146-1.3.076-1.772-.165-.187-.096-1.235-1.06-2.328-2.142-1.845-1.827-2-2.008-2.15-2.528-.247-.848-.063-1.554.57-2.189.547-.55 1.144-.763 1.858-.665.651.09 1.174.438 2.172 1.446l.874.884 2.68-2.669c1.475-1.468 2.82-2.742 2.99-2.83.447-.233 1.51-.218 1.988.027z" fill="currentColor"/></svg></svg>