<svg viewBox="0 0 285 103" xmlns="http://www.w3.org/2000/svg" xmlns:xlink="http://www.w3.org/1999/xlink"><style>:root&gt;svg{display:none}:root&gt;svg:target{display:block}</style><svg viewBox="0 0 32 21" fill="none" id="behance" xmlns="http://www.w3.org/2000/svg"><path d="M12.889 8.989c1.767-.845 2.689-2.122 2.689-4.111C15.578.956 12.656 0 9.283 0H0v19.689h9.544c3.578 0 6.94-1.717 6.94-5.717 0-2.472-1.173-4.3-3.595-4.983zM4.328 3.36h4.06c1.562 0 2.968.439 2.968 2.25 0 1.672-1.095 2.345-2.64 2.345H4.329V3.36zm4.628 12.983H4.328v-5.422h4.716c1.906 0 3.112.795 3.112 2.811 0 1.99-1.44 2.611-3.2 2.611zM28.872 2.972H20.89V1.033h7.983v1.94zM32 12.767c0-4.217-2.467-7.734-6.939-7.734-4.344 0-7.294 3.267-7.294 7.545 0 4.439 2.794 7.483 7.294 7.483 3.406 0 5.611-1.533 6.672-4.794h-3.455c-.372 1.216-1.906 1.86-3.095 1.86-2.294 0-3.5-1.344-3.5-3.627h10.284c.016-.233.033-.483.033-.733zm-10.311-1.734c.128-1.872 1.372-3.044 3.25-3.044 1.967 0 2.955 1.155 3.122 3.044H21.69z" fill="currentColor"/></svg><svg viewBox="0 0 32 32" fill="none" id="codepen" xmlns="http://www.w3.org/2000/svg"><path d="M31.393 9.981L16.768.231c-.5-.307-1.032-.31-1.536 0L.607 9.981c-.375.25-.607.697-.607 1.143v9.75c0 .447.232.893.607 1.143l14.625 9.751c.5.308 1.032.31 1.536 0l14.625-9.751c.375-.25.607-.696.607-1.143v-9.75c0-.446-.232-.893-.607-1.143zM17.375 3.946l10.768 7.178-4.804 3.214-5.964-3.982v-6.41zm-2.75 0v6.41l-5.964 3.982-4.804-3.214 10.768-7.178zM2.75 13.696l3.446 2.303-3.446 2.304v-4.607zm11.875 14.357L3.857 20.874l4.804-3.214 5.964 3.982v6.41zM16 19.249L11.143 16 16 12.75 20.857 16 16 19.25zm1.375 8.804v-6.41l5.964-3.983 4.804 3.214-10.768 7.179zm11.875-9.75l-3.447-2.304 3.447-2.303v4.607z" fill="currentColor"/></svg><svg viewBox="0 0 56 46" fill="none" id="icon-box" xmlns="http://www.w3.org/2000/svg"><path fill-rule="evenodd" clip-rule="evenodd" d="M16.717 2.317c-6.129 1.329-11 2.437-11.209 2.55-.203.109-.455.32-.56.468-.299.42-4.95 13.317-4.948 13.72.002.49.408 1.163.861 1.43.372.218.516.221 9.6.251 10.014.033 9.777.046 10.339-.552.127-.135 1.636-3.262 3.354-6.948 1.717-3.685 3.201-6.855 3.298-7.043l.177-.341 3.283 7.044c1.806 3.875 3.387 7.155 3.514 7.29.559.596.326.583 10.336.55 9.084-.03 9.228-.033 9.6-.252.455-.267.859-.939.861-1.432.003-.438-4.688-13.4-4.985-13.779a1.917 1.917 0 00-.527-.43C49.44 4.703 41.043 2.853 27.72 0c-.09-.019-5.04 1.024-11.003 2.317zm9.662 17.068c-.638 1.379-1.32 2.75-1.513 3.047-.741 1.137-1.912 2.065-3.217 2.551l-.671.25-8.198.056-8.197.055-.032 6.904c-.018 3.796-.003 7.155.034 7.464.075.642.393 1.177.86 1.448.356.207 21.595 4.84 22.182 4.84.602 0 21.789-4.627 22.146-4.836.18-.105.437-.353.571-.552l.243-.36V25.297l-8.17-.032-8.172-.03-.67-.251c-1.285-.48-2.49-1.436-3.218-2.552-.194-.297-.874-1.668-1.513-3.047-.638-1.38-1.193-2.508-1.232-2.508-.04 0-.595 1.128-1.233 2.508z" fill="currentColor"/></svg><svg viewBox="0 0 47 46" fill="none" id="icon-home" xmlns="http://www.w3.org/2000/svg"><path fill-rule="evenodd" clip-rule="evenodd" d="M21.97.105c-1.166.328-.843.029-11.21 10.382C5.377 15.864.853 20.442.707 20.66a4.221 4.221 0 00.535 5.325c.825.825 1.879 1.253 3.086 1.253h.611v7.194c0 4.87.032 7.349.099 7.672.34 1.64 1.667 3.123 3.303 3.688.597.206.64.208 4.983.208 4.283 0 4.385-.004 4.628-.186.137-.102.332-.297.434-.434.182-.243.187-.364.23-6.255l.046-6.007.273-.443c.34-.552 1.036-.993 1.694-1.075.254-.031 1.515-.044 2.802-.027l2.34.03.473.261c.45.25.741.547 1.02 1.043.104.185.135 1.3.171 6.225.045 5.884.05 6.005.231 6.248.102.137.297.332.434.434.243.182.345.186 4.629.186 4.343 0 4.385-.002 4.982-.208 1.637-.565 2.964-2.047 3.304-3.688.066-.323.098-2.801.098-7.672v-7.194h.611c2.163 0 3.91-1.466 4.266-3.577.14-.834.004-1.718-.39-2.542-.257-.54-1.04-1.347-10.054-10.374C30.169 5.36 25.579.832 25.345.68a5.933 5.933 0 00-.9-.457c-.625-.24-1.837-.299-2.476-.119z" fill="currentColor"/></svg><svg viewBox="0 0 56 46" fill="none" id="icon-uiux" xmlns="http://www.w3.org/2000/svg"><path fill-rule="evenodd" clip-rule="evenodd" d="M5.153.077c-1.272.189-2.732.987-3.6 1.97C.95 2.73.27 4.11.115 4.963.046 5.345 0 7.3 0 9.836v4.234h55.15l-.035-4.604-.034-4.604-.276-.713c-.4-1.033-.81-1.684-1.49-2.364C52.61 1.081 51.978.692 50.907.3L50.13.016 27.946.001C15.744-.007 5.488.027 5.153.077zm4.411 7.21c1.01.617.78 2.207-.375 2.589-.97.32-2.03-.63-1.812-1.625.084-.38.532-.947.853-1.077.393-.16.967-.11 1.334.114zm6.234-.006c1.374.837.43 3.015-1.125 2.596a1.4 1.4 0 01-.59-2.4c.162-.15.366-.3.455-.331.35-.128.932-.065 1.26.135zm6.181-.044c.675.349.95 1.334.558 2-.267.45-.982.773-1.503.677-.489-.09-1.051-.632-1.145-1.103-.234-1.168 1.032-2.122 2.09-1.574zm25.292.204c.839.804.545 2.12-.542 2.431-.222.064-3.185.105-7.505.105-5.807 0-7.204-.027-7.485-.147-1.113-.474-1.262-1.937-.261-2.55.335-.206.555-.211 7.903-.184l7.558.028.332.317zM0 28.696c0 7.845.038 11.93.115 12.357.063.352.308 1.041.544 1.532.718 1.497 1.929 2.546 3.649 3.164l.7.251H50.13l.7-.251c1.017-.365 1.774-.829 2.471-1.514.689-.677 1.096-1.317 1.505-2.368l.278-.713.03-12.088.03-12.089H0v11.719zm16.49-4.533c.173.103.41.384.527.627.197.406.214.67.214 3.479 0 3.337.014 3.426.66 4.16 1.203 1.372 3.477 1.03 4.254-.64.246-.53.253-.62.254-3.596 0-2.627.026-3.105.18-3.431.495-1.042 2.054-1.042 2.549 0 .154.326.18.8.178 3.431-.002 3.356-.072 3.91-.634 5.024-1.03 2.041-3.347 3.25-5.612 2.93-2.12-.301-4.013-1.96-4.54-3.977-.263-1.008-.287-6.952-.03-7.45.349-.674 1.335-.95 2-.557zm14.128-.067c.13.066 1.096.974 2.147 2.018l1.911 1.9 1.858-1.842c1.022-1.013 1.978-1.922 2.124-2.018.36-.239 1.058-.223 1.478.034.62.378.855 1.19.525 1.814-.085.16-.982 1.114-1.993 2.12-1.01 1.006-1.838 1.88-1.838 1.94 0 .06.827.933 1.838 1.94 1.011 1.006 1.908 1.96 1.993 2.12.33.623.096 1.435-.525 1.813-.42.257-1.118.273-1.478.035-.146-.097-1.102-1.005-2.123-2.017l-1.856-1.84-2.027 2.017-2.027 2.016h-.572c-.52 0-.608-.037-.99-.418-.37-.372-.417-.476-.417-.945 0-.308.073-.638.176-.793.097-.147.994-1.091 1.992-2.099l1.816-1.831-1.838-1.83c-1.01-1.006-1.907-1.96-1.992-2.12-.085-.16-.154-.517-.154-.794 0-.44.052-.554.418-.92.352-.353.489-.419.869-.419.247 0 .556.054.685.12z" fill="currentColor"/></svg><svg viewBox="0 0 41 46" fill="none" id="icon-user" xmlns="http://www.w3.org/2000/svg"><path fill-rule="evenodd" clip-rule="evenodd" d="M18.964.027c-2.893.356-5.316 1.537-7.328 3.573C9.85 5.408 8.82 7.337 8.294 9.86c-.22 1.06-.22 3.435 0 4.495.526 2.526 1.56 4.46 3.342 6.257 1.81 1.824 3.79 2.893 6.34 3.424 1.047.218 3.42.218 4.516 0 2.426-.484 4.436-1.56 6.239-3.342 1.81-1.79 2.889-3.788 3.42-6.339.22-1.06.22-3.434 0-4.495a13.08 13.08 0 00-1.903-4.584c-.566-.854-2.322-2.616-3.155-3.167C25.643 1.152 24.08.494 22.54.194c-.724-.141-2.944-.245-3.576-.167zm-3.572 27.056c-5.029.61-9.57 3.466-12.493 7.86C1.185 37.517.203 40.55.029 43.798c-.054.993-.043 1.11.135 1.46.129.252.312.44.548.56.352.18.49.181 19.51.181 19.022 0 19.159-.001 19.511-.181.236-.12.42-.308.549-.56.178-.35.189-.467.135-1.46-.238-4.431-1.927-8.316-4.999-11.496-2.91-3.014-6.673-4.852-10.777-5.267-1.364-.138-8-.104-9.25.047z" fill="currentColor"/></svg><svg viewBox="0 0 99 103" fill="none" id="icon-x" xmlns="http://www.w3.org/2000/svg"><path d="M79.348 3.508c4.495-4.677 11.784-4.677 16.28 0s4.496 12.261 0 16.938L19.652 99.492c-4.495 4.677-11.784 4.677-16.28 0s-4.496-12.261 0-16.938L79.348 3.508z" fill="currentColor"/><path d="M95.628 82.554c4.496 4.677 4.496 12.26 0 16.938-4.496 4.677-11.785 4.677-16.28 0L3.372 20.446c-4.496-4.677-4.496-12.26 0-16.938 4.496-4.677 11.785-4.677 16.28 0l75.976 79.046z" fill="currentColor"/></svg><svg viewBox="0 0 65 64" fill="none" id="logo" xmlns="http://www.w3.org/2000/svg"><path d="M38.337 41.596V64A32.022 32.022 0 0056.96 53.063L43.7 39.409c-1.94-2.011-5.361-.635-5.361 2.188z" fill="currentColor"/><path d="M32.271 0C14.461 0 0 14.465 0 32.282c0 14.96 10.193 27.555 23.983 31.189V17.253c0-1.73 1.41-3.14 3.139-3.14h9.91c.847 0 1.623.317 2.223.917L63.73 39.515a32.71 32.71 0 00.811-7.233C64.542 14.465 50.082 0 32.272 0z" fill="currentColor"/></svg><svg viewBox="0 0 285 64" fill="none" id="logo-full" xmlns="http://www.w3.org/2000/svg"><path d="M37.941 41.244v22.178c7.366-1.378 13.8-5.333 18.46-10.844L43.266 39.022c-1.953-1.955-5.325-.578-5.325 2.222z" fill="#fff"/><path d="M31.95 0C14.29 0 0 14.311 0 32c0 14.844 10.073 27.289 23.74 30.933V17.111A3.09 3.09 0 0126.848 14h9.807c.843 0 1.598.311 2.174.933L63.058 39.2a31.97 31.97 0 00.798-7.2C63.901 14.311 49.567 0 31.95 0z" fill="#fff"/><path d="M102.507 32h-2.662c-.755 0-1.332.578-1.332 1.333v2.756C95.673 33.556 91.946 32 87.863 32c-8.83 0-15.975 7.156-15.975 16 0 8.844 7.145 16 15.975 16 4.083 0 7.81-1.556 10.65-4.089v2.756c0 .755.577 1.333 1.332 1.333h2.662c.755 0 1.332-.578 1.332-1.333V33.333c0-.755-.622-1.333-1.332-1.333zM87.863 58.667A10.633 10.633 0 0177.213 48a10.633 10.633 0 0110.65-10.667c5.902 0 10.65 4.756 10.65 10.667s-4.792 10.667-10.65 10.667zm52.142-21.023l-1.864-1.866c-.533-.534-1.376-.534-1.864 0l-8.476 8.489-8.475-8.49c-.533-.533-1.376-.533-1.864 0l-1.864 1.867c-.532.534-.532 1.378 0 1.867L124.074 48l-8.476 8.489c-.532.533-.532 1.378 0 1.867l1.864 1.866c.532.534 1.375.534 1.864 0l8.475-8.489 8.476 8.49c.533.533 1.376.533 1.864 0l1.864-1.867c.532-.534.532-1.378 0-1.867L131.573 48l8.476-8.489c.488-.533.488-1.378-.044-1.867zM182.383 32h-2.662c-.755 0-1.332.578-1.332 1.333V48a10.633 10.633 0 01-10.65 10.667A10.633 10.633 0 01157.089 48V33.333c0-.755-.577-1.333-1.331-1.333h-2.663c-.754 0-1.331.578-1.331 1.333V48c0 8.844 7.144 16 15.975 16s15.975-7.156 15.975-16V33.333c0-.755-.621-1.333-1.331-1.333z" fill="currentColor"/><path d="M199.69 43.111h-2.663c-.754 0-1.331.578-1.331 1.333v18.223c0 .755.577 1.333 1.331 1.333h2.663c.754 0 1.331-.578 1.331-1.333V44.444c0-.755-.621-1.333-1.331-1.333zm-1.332-5.778a2.665 2.665 0 002.663-2.666A2.665 2.665 0 00198.358 32a2.664 2.664 0 00-2.662 2.667 2.664 2.664 0 002.662 2.666z" fill="#fff"/><path d="M246.284 32h-2.663c-.754 0-1.331.578-1.331 1.333V48a10.633 10.633 0 01-10.65 10.667A10.633 10.633 0 01220.99 48V33.333c0-.755-.577-1.333-1.332-1.333h-2.662c-.754 0-1.331.578-1.331 1.333V48c0 8.844 7.144 16 15.975 16s15.975-7.156 15.975-16V33.333c0-.755-.621-1.333-1.331-1.333zm29.066 16l8.475-8.489c.533-.533.533-1.378 0-1.867l-1.863-1.866c-.533-.534-1.376-.534-1.864 0l-8.476 8.489-8.476-8.49c-.532-.533-1.375-.533-1.863 0l-1.864 1.867c-.533.534-.533 1.378 0 1.867L267.895 48l-8.476 8.489c-.533.533-.533 1.378 0 1.867l1.864 1.866c.532.534 1.375.534 1.863 0l8.476-8.489 8.476 8.49c.532.533 1.375.533 1.864 0l1.863-1.867c.533-.534.533-1.378 0-1.867L275.35 48z" fill="currentColor"/></svg></svg>